<?xml version="1.0" standalone="no"?>
<!DOCTYPE svg PUBLIC "-//W3C//DTD SVG 1.1//EN" "http://www.w3.org/Graphics/SVG/1.1/DTD/svg11.dtd" >
<svg xmlns="http://www.w3.org/2000/svg">
<metadata>
This is a custom SVG webfont generated by Font Squirrel.
Copyright   : Copyright c 2009 by Fontsmith Ltd All rights reserved
Designer    : Phil Garnham Jason Smith
Foundry     : Fontsmith Ltd
Foundry URL : httpwwwfontsmithcom
</metadata>
<defs>
<font id="webfontd151ykjY" horiz-adv-x="1085" >
<font-face units-per-em="2048" ascent="1536" descent="-512" />
<missing-glyph horiz-adv-x="409" />
<glyph unicode=" "  horiz-adv-x="409" />
<glyph unicode="&#x09;" horiz-adv-x="409" />
<glyph unicode="&#xa0;" horiz-adv-x="409" />
<glyph unicode="!" horiz-adv-x="507" d="M285 375h-123l151 1026h179zM188 201h15q84 0 84 -76q0 -84 -39 -123q-31 -31 -84 -31h-14q-84 0 -84 76q0 84 38 123q31 31 84 31z" />
<glyph unicode="&#x22;" horiz-adv-x="774" d="M315 971h-122l55 430h164zM625 971h-123l55 430h164z" />
<glyph unicode="#" horiz-adv-x="1107" d="M762 436l-158 -436h-133l158 436h-264l-158 -436h-133l157 436h-139l21 121h161l105 285h-217l20 121h242l158 438h133l-160 -438h266l158 438h133l-160 -438h142l-21 -121h-164l-104 -285h221l-20 -121h-244zM408 557h264l104 285h-264z" />
<glyph unicode="$" horiz-adv-x="1107" d="M61 31l39 143q174 -53 320 -53h16l94 532q-74 37 -116.5 66t-95 75t-78 107.5t-25.5 136.5q0 170 121 275q123 104 332 112l45 252h116l-45 -254q154 -10 289 -61l-45 -133q-129 41 -270 47l-88 -502q74 -39 117.5 -66.5t96 -73.5t77 -103.5t24.5 -127.5 q0 -186 -131 -301q-115 -102 -326 -125l-45 -256h-116l43 250q-181 5 -349 60zM811 375q0 125 -172 223l-84 -467q102 18 164 66q92 69 92 178zM387 1059q0 -70 45 -122t131 -103l78 440q-119 -10 -182 -62q-72 -59 -72 -153z" />
<glyph unicode="%" horiz-adv-x="1851" d="M858 1110q0 -195 -107.5 -339t-289.5 -144q-129 0 -209 86t-80 231q0 195 107.5 339t289.5 144q129 0 209 -86t80 -231zM709 1106q0 94 -41 142t-109 48q-98 0 -162 -84q-76 -102 -75 -264q0 -94 40.5 -142t108.5 -48q98 0 162 84q76 102 76 264zM1737 455 q0 -195 -107.5 -339.5t-290.5 -144.5q-129 0 -208.5 86t-79.5 232q0 195 107.5 339t289.5 144q129 0 209 -86t80 -231zM1587 451q0 94 -41 142t-108 48q-98 0 -162 -84q-76 -102 -76 -264q0 -94 41 -142.5t109 -48.5q98 0 161 84q76 103 76 265zM1544 1419l-958 -1456h-160 l958 1456h160z" />
<glyph unicode="&#x26;" horiz-adv-x="1349" d="M1108 698h135q-59 -279 -211 -458l156 -215l-129 -93l-146 195q-199 -160 -454 -160q-170 0 -281.5 94.5t-111.5 262.5q0 143 93 252.5t287 203.5q-111 156 -110 293q0 152 100.5 251t263.5 99q129 0 203 -67.5t74 -179.5q0 -244 -326 -414l301 -412q101 127 156 348z M838 233l-332 457q-266 -137 -266 -336q0 -115 69.5 -180t196.5 -65q178 -1 332 124zM592 844q244 139 244 313q0 141 -146 141q-92 0 -148.5 -60t-56.5 -153q1 -98 107 -241z" />
<glyph unicode="'" horiz-adv-x="464" d="M315 971h-122l55 430h164z" />
<glyph unicode="(" horiz-adv-x="667" d="M131 276q0 344 152.5 676t449.5 578l94 -82q-492 -506 -510 -1155q-8 -385 187 -688l-103 -70q-270 290 -270 741z" />
<glyph unicode=")" horiz-adv-x="667" d="M528 788q0 -344 -152.5 -675.5t-449.5 -577.5l-94 82q492 506 510 1155q8 385 -186 688l102 70q270 -291 270 -742z" />
<glyph unicode="*" horiz-adv-x="880" d="M612 643l-120 264l-213 -264l-101 94l240 240l-275 88l68 135l252 -129l33 330h151l-78 -330l295 125l21 -139l-307 -88l159 -240z" />
<glyph unicode="+" d="M694 1020l-49 -281h270l-22 -129h-270l-50 -280h-131l50 280h-267l23 129h266l51 281h129z" />
<glyph unicode="," horiz-adv-x="454" d="M266 119q0 -29 -6 -60q-33 -172 -106 -348h-78l45 256q-76 18 -76 88q0 76 39 115q31 31 84 31h10q88 0 88 -82z" />
<glyph unicode="-" horiz-adv-x="645" d="M524 459h-405l26 145h406z" />
<glyph unicode="." horiz-adv-x="454" d="M172 201h14q84 0 84 -76q0 -84 -39 -123q-31 -31 -84 -31h-14q-84 0 -84 76q0 84 39 123q31 31 84 31z" />
<glyph unicode="/" horiz-adv-x="847" d="M956 1427l-843 -1456h-166l844 1456h165z" />
<glyph unicode="0" horiz-adv-x="1107" d="M1081 946q0 -229 -75.5 -466.5t-219.5 -375.5q-139 -133 -323 -133q-182 0 -280.5 123t-98.5 359q0 229 76 466.5t219 374.5q139 133 323 133q182 0 280.5 -122.5t98.5 -358.5zM909 948q0 334 -215 334q-143 0 -250 -143q-92 -127 -140 -327t-48 -361q0 -334 215 -334 q143 0 250 143q92 127 140 326.5t48 361.5z" />
<glyph unicode="1" horiz-adv-x="1107" d="M592 131h209l-23 -131h-610l22 131h238l203 1147h-234l21 115q154 23 287 22q57 0 78.5 -14.5t21.5 -48.5q0 -16 -8 -62z" />
<glyph unicode="2" horiz-adv-x="1107" d="M256 135h616l-22 -135h-803q-2 10 -2 23q0 51 21.5 89t91.5 109l385 393q170 174 234.5 277.5t64.5 202.5q0 92 -58 141q-66 53 -219 53q-127 0 -276 -31l22 132q150 39 303 38q213 0 318 -98q86 -82 86 -213q0 -137 -76 -258t-287 -328z" />
<glyph unicode="3" horiz-adv-x="1107" d="M57 6l23 135q125 -29 264 -28q195 0 303 88q106 86 107 235q0 111 -74 163t-231 52h-35l20 127h33q162 0 265.5 81t103.5 218q0 94 -52 146q-66 66 -229 65q-115 0 -262 -24l24 131q141 33 283 32q215 0 315 -98q92 -88 93 -235q0 -125 -75 -224.5t-198 -144.5 q195 -76 195 -281q0 -231 -166 -352t-410 -121q-168 0 -297 35z" />
<glyph unicode="4" horiz-adv-x="1107" d="M678 342h-625q0 51 13.5 91t54.5 122l436 846h170l-481 -922h456l62 355h164l-62 -355h166l-24 -137h-166l-62 -342h-164z" />
<glyph unicode="5" horiz-adv-x="1107" d="M438 692h-200q-2 12 -2 39q0 35 14 98l125 572h659l-24 -135h-516l-97 -437h80q268 0 381 -104q90 -86 90 -240q0 -211 -147 -354q-166 -160 -449 -160q-145 0 -268 33l25 133q127 -23 233 -22q211 0 324 106q109 98 108 260q0 100 -55 150q-70 61 -281 61z" />
<glyph unicode="6" horiz-adv-x="1107" d="M498 1143q-119 -131 -176 -361q176 78 329 78q174 0 258 -84q90 -88 90 -254q0 -268 -165 -426q-131 -125 -328 -125q-186 0 -289.5 127t-103.5 344q0 213 63 420q78 248 234 398q178 168 438 167q96 0 201 -24l-25 -129q-119 16 -184 16q-209 0 -342 -147zM614 723 q-141 0 -315 -61q-18 -104 -18 -224q0 -154 65 -243q66 -84 180 -84q119 0 199 86q111 113 111 309q0 102 -53.5 159.5t-168.5 57.5z" />
<glyph unicode="7" horiz-adv-x="1107" d="M1118 1401q2 -14 2 -25q0 -57 -43 -143l-624 -1233h-193l672 1266h-664l25 135h825z" />
<glyph unicode="8" horiz-adv-x="1107" d="M993 395q0 -184 -143 -305t-365 -121q-188 0 -299.5 96.5t-111.5 249.5q0 266 340 428q-158 117 -158 297q0 166 119 275.5t309 109.5q158 0 265.5 -85t109.5 -234q0 -225 -311 -373q125 -78 185 -158t60 -180zM526 676q-283 -143 -282 -342q0 -102 68.5 -162.5 t183.5 -60.5q137 0 231 72.5t94 189.5q0 51 -21.5 95t-71.5 83t-88 61.5t-114 63.5zM418 1063q0 -76 46 -134.5t167 -129.5q141 70 205.5 137.5t64.5 157.5t-62.5 141t-162.5 51q-115 0 -186.5 -61.5t-71.5 -161.5z" />
<glyph unicode="9" horiz-adv-x="1107" d="M668 256q119 131 176 360q-176 -78 -330 -77q-174 0 -258 84q-90 88 -90 254q0 268 166 426q131 125 327 124q186 0 290 -126.5t104 -344.5q0 -213 -64 -419q-78 -248 -233 -398q-178 -168 -439 -168q-96 0 -200 25l24 129q119 -16 185 -16q209 0 342 147zM551 676 q141 0 315 61q18 104 19 224q0 154 -66 243q-66 84 -180 84q-119 0 -199 -86q-111 -113 -110 -309q0 -102 53 -159.5t168 -57.5z" />
<glyph unicode=":" horiz-adv-x="454" d="M172 201h14q84 0 84 -76q0 -84 -39 -123q-31 -31 -84 -31h-14q-84 0 -84 76q0 84 39 123q31 31 84 31zM283 838h14q84 0 84 -76q0 -84 -39 -123q-31 -31 -84 -31h-14q-84 0 -84 76q0 84 39 123q31 31 84 31z" />
<glyph unicode=";" horiz-adv-x="450" d="M279 838h14q84 0 84 -76q0 -84 -39 -123q-31 -31 -84 -31h-14q-84 0 -84 76q0 84 39 123q31 31 84 31zM266 119q0 -29 -6 -60q-33 -172 -106 -348h-78l45 256q-76 18 -76 88q0 76 39 115q31 31 84 31h10q88 0 88 -82z" />
<glyph unicode="&#x3c;" d="M803 268l-608 338l24 139l727 340l-26 -153l-570 -262l479 -256z" />
<glyph unicode="=" d="M311 924h668l-23 -129h-667zM248 555h667l-22 -129h-668z" />
<glyph unicode="&#x3e;" d="M922 606l-725 -338l26 158l570 256l-480 262l27 141l606 -340z" />
<glyph unicode="?" horiz-adv-x="839" d="M381 375h-123q0 88 44 169t107 144l123 124q61 60 105.5 135t44.5 153q0 86 -51 133q-57 51 -185 51q-119 0 -241 -33l-10 129q117 47 284 47q197 0 291 -88q90 -84 90 -217q0 -92 -43 -175t-108 -147l-132 -126q-67 -61 -123.5 -139t-72.5 -160zM287 201h14q84 0 84 -76 q0 -84 -39 -123q-31 -31 -84 -31h-14q-84 0 -84 76q0 84 39 123q31 31 84 31z" />
<glyph unicode="@" horiz-adv-x="1601" d="M731 319q-115 0 -177 79t-62 202q0 197 110.5 332t280.5 135q98 0 174 -55l22 37l95 -9l-93 -458q-8 -45 -8 -64q0 -86 86 -86q66 0 116 45t76.5 113.5t39 138.5t12.5 133q0 201 -129 314.5t-359 113.5q-274 0 -460.5 -190.5t-186.5 -505.5q0 -250 144.5 -370t400.5 -120 q203 0 379 43l-14 -122q-184 -53 -408 -54q-299 0 -479 166t-180 459q0 358 228 594.5t585 236.5q293 0 460.5 -160.5t167.5 -402.5q0 -135 -46 -257t-141 -205t-220 -83q-131 0 -182 84q-115 -84 -232 -84zM938 494v24q0 41 20 144l56 274q-55 25 -117 25 q-119 0 -190.5 -100.5t-71.5 -242.5q0 -180 135 -180q78 1 168 56z" />
<glyph unicode="A" horiz-adv-x="1183" d="M121 0h-178l675 1401h201l225 -1401h-178l-55 373h-514zM365 516h426l-101 684h-2z" />
<glyph unicode="B" horiz-adv-x="1185" d="M68 0l247 1401h336q250 0 350 -103q76 -80 76 -208q0 -117 -67.5 -211.5t-173.5 -139.5q100 -27 161.5 -100.5t61.5 -179.5q0 -119 -52.5 -218.5t-150.5 -156.5q-139 -84 -389 -84h-399zM362 651l-90 -508h162q219 0 320 70q117 80 116 240q0 104 -73 151q-76 47 -254 47 h-181zM471 1257l-82 -462h164q168 0 256 77.5t88 210.5q0 84 -49 127q-55 47 -201 47h-176z" />
<glyph unicode="C" horiz-adv-x="1112" d="M1112 1237q-125 41 -242 41q-227 0 -372 -170q-94 -109 -148.5 -268.5t-54.5 -327.5q0 -197 91 -293t280 -96q119 0 260 31l-6 -142q-150 -41 -308 -41q-252 0 -379 140.5t-127 400.5q0 193 74 390.5t195 320.5q199 205 497 204q158 0 293 -57z" />
<glyph unicode="D" horiz-adv-x="1284" d="M68 0l247 1401h310q350 0 491 -154q119 -129 119 -377q0 -176 -67.5 -364.5t-202.5 -317.5q-195 -188 -514 -188h-383zM471 1257l-199 -1114h174q233 0 379 140q109 104 166.5 264t57.5 332q0 199 -91 284q-96 94 -378 94h-109z" />
<glyph unicode="E" horiz-adv-x="1054" d="M360 635l-88 -492h623l-27 -143h-800l247 1401h785l-41 -144h-588l-84 -473h479l-26 -149h-480z" />
<glyph unicode="F" horiz-adv-x="999" d="M315 1401h766l-41 -144h-569l-84 -473h459l-27 -149h-459l-112 -635h-180z" />
<glyph unicode="G" horiz-adv-x="1263" d="M1217 1370l-48 -135q-135 43 -274 43q-238 0 -383 -158q-100 -106 -158.5 -267t-58.5 -333q0 -399 364 -399q106 0 209 22l74 424h-217l25 142h391l-119 -680q-184 -57 -377 -58q-256 0 -397 138q-141 135 -142 409q0 203 72 390.5t205 320.5q199 199 502 198 q191 0 332 -57z" />
<glyph unicode="H" horiz-adv-x="1316" d="M387 782h631l108 619h181l-248 -1401h-180l112 635h-631l-112 -635h-180l247 1401h181z" />
<glyph unicode="I" horiz-adv-x="514" d="M72 0l247 1401h181l-248 -1401h-180z" />
<glyph unicode="J" horiz-adv-x="741" d="M-16 -12l8 141q68 -10 143 -10q111 0 164 51q49 49 76 201l182 1030h180l-182 -1030q-41 -231 -125 -312q-92 -88 -287 -88q-98 1 -159 17z" />
<glyph unicode="K" horiz-adv-x="1189" d="M1276 1401l-576 -584l349 -817h-195l-281 690l-249 -256l-76 -434h-180l247 1401h181l-129 -723l696 723h213z" />
<glyph unicode="L" horiz-adv-x="987" d="M846 0h-778l247 1401h181l-224 -1258h600z" />
<glyph unicode="M" horiz-adv-x="1589" d="M453 1401l325 -934l643 934h158l-248 -1401h-172l182 1030l-514 -737h-149l-262 741l-183 -1034h-165l247 1401h138z" />
<glyph unicode="N" horiz-adv-x="1361" d="M68 0l247 1401h136l542 -1100l195 1100h164l-248 -1401h-135l-543 1100l-195 -1100h-163z" />
<glyph unicode="O" horiz-adv-x="1298" d="M106 496q0 205 71 412.5t196 340.5q168 178 413 178q223 0 343 -139t120 -385q0 -205 -70.5 -412.5t-195.5 -340.5q-168 -178 -414 -179q-223 0 -343 139.5t-120 385.5zM295 487q0 -160 68.5 -260t214.5 -100q195 0 319 186q76 113 120 279t44 319q0 160 -68.5 260.5 t-214.5 100.5q-195 0 -319 -187q-76 -113 -120 -278.5t-44 -319.5z" />
<glyph unicode="P" horiz-adv-x="1132" d="M471 1257l-106 -591h182q211 0 315 110q98 104 99 266q0 104 -64 158q-66 57 -238 57h-188zM340 522l-92 -522h-180l247 1401h371q248 0 361 -101q98 -88 98 -247q0 -229 -141 -375q-156 -156 -429 -156h-235z" />
<glyph unicode="Q" horiz-adv-x="1298" d="M106 496q0 205 71 412.5t196 340.5q168 178 413 178q223 0 343 -139t120 -385q0 -205 -70.5 -412.5t-195.5 -340.5q-55 -61 -133 -107q90 -8 185 -40t153 -75q-12 -29 -46 -80t-55 -73l-284 145q-61 31 -102.5 41t-116.5 10h-15q-223 0 -343 139.5t-120 385.5zM295 487 q0 -160 68.5 -260t214.5 -100q195 0 319 186q76 113 120 279t44 319q0 160 -68.5 260.5t-214.5 100.5q-195 0 -319 -187q-76 -113 -120 -278.5t-44 -319.5z" />
<glyph unicode="R" horiz-adv-x="1181" d="M342 537l-94 -537h-180l247 1401h379q254 0 367 -111q88 -88 88 -237q0 -217 -141 -357q-90 -86 -211 -125l198 -571h-188l-172 541q-33 -4 -105 -4h-188zM471 1257l-102 -575h196q193 0 295 102q104 104 105 263q0 90 -47 141q-68 70 -250 69h-197z" />
<glyph unicode="S" horiz-adv-x="1062" d="M23 31l38 143q172 -53 320 -53q197 0 299 76q92 70 92 178q0 80 -61.5 141.5t-148.5 104.5l-175 91t-149.5 131t-61.5 195q0 170 121 275q133 115 381 114q186 0 356 -65l-45 -133q-158 49 -317 49q-172 0 -252 -66q-72 -59 -72 -153q0 -57 33 -105.5t86 -83t117 -68.5 l127 -71q63 -37 116.5 -80t86 -106.5t32.5 -141.5q0 -186 -131 -301q-147 -131 -430 -131q-188 1 -362 60z" />
<glyph unicode="T" horiz-adv-x="1144" d="M602 1257h-436l27 144h1062l-41 -144h-432l-221 -1257h-180z" />
<glyph unicode="U" horiz-adv-x="1310" d="M485 1401l-149 -844q-20 -119 -21 -180q0 -250 281 -250q172 0 274 106q84 84 119 289l156 879h164l-162 -914q-43 -240 -160 -362q-147 -154 -412 -154q-199 0 -320.5 99.5t-121.5 283.5q0 74 23 199l149 848h180z" />
<glyph unicode="V" horiz-adv-x="1179" d="M180 1401h178l172 -1202h5l567 1202h184l-684 -1401h-203z" />
<glyph unicode="W" horiz-adv-x="1775" d="M1126 1401l91 -1184h4l493 1184h168l-602 -1401h-201l-84 1118h-4l-452 -1118h-209l-150 1401h178l109 -1192h4l477 1192h178z" />
<glyph unicode="X" d="M150 0h-195l522 698l-266 703h176l201 -570l393 570h190l-522 -711l264 -690h-176l-200 553z" />
<glyph unicode="Y" horiz-adv-x="1155" d="M561 0h-178l100 561l-309 840h184l240 -678l483 678h193l-612 -832z" />
<glyph unicode="Z" horiz-adv-x="1095" d="M918 0h-926l16 104l905 1153h-690l23 144h911l-16 -111l-901 -1147h702z" />
<glyph unicode="[" horiz-adv-x="684" d="M469 -424h-399l338 1913h399l-23 -133h-225l-291 -1647h224z" />
<glyph unicode="\" horiz-adv-x="847" d="M549 -29l-340 1456h147l340 -1456h-147z" />
<glyph unicode="]" horiz-adv-x="684" d="M207 1489h399l-338 -1913h-399l22 133h226l291 1647h-224z" />
<glyph unicode="^" d="M965 815h-148l-164 457l-319 -457h-158l428 586h133z" />
<glyph unicode="_" horiz-adv-x="862" d="M713 -182h-774l22 125h774z" />
<glyph unicode="`" horiz-adv-x="823" d="M659 1221l-67 -76l-334 280l102 115z" />
<glyph unicode="a" d="M891 1004h129l-137 -766q-14 -84 -15 -201v-37h-155l-8 72q-152 -100 -310 -101q-152 0 -234.5 112t-82.5 288q0 137 44 273t130 233q135 156 346 155q147 0 264 -94zM453 115q129 0 256 82l112 630q-106 63 -221 64q-129 0 -219 -100q-131 -150 -131 -416 q0 -260 203 -260z" />
<glyph unicode="b" horiz-adv-x="1081" d="M59 0l260 1464h168l-92 -520q141 88 289 88q152 0 234.5 -111.5t82.5 -287.5q0 -137 -44 -273.5t-130 -232.5q-135 -156 -346 -156q-147 0 -264 95l-29 -66h-129zM371 807l-113 -631q102 -61 221 -61q129 0 219 100q131 150 131 414q0 260 -202 260q-129 0 -256 -82z" />
<glyph unicode="c" horiz-adv-x="872" d="M768 139l-6 -125q-141 -43 -279 -43q-197 0 -303 104.5t-106 311.5q0 139 48 269t136 218q158 158 410 158q117 0 229 -41l-29 -129q-98 31 -198 31q-180 0 -279 -105q-143 -150 -143 -395q0 -115 45 -184q61 -96 239 -96q123 -1 236 26z" />
<glyph unicode="d" horiz-adv-x="1089" d="M598 1032q135 0 250 -82l90 514h168l-219 -1226q-14 -84 -15 -201v-37h-155l-8 72q-152 -100 -314 -101q-152 0 -234.5 112t-82.5 288q0 137 44 273t130 233q135 155 346 155zM453 115q133 0 260 82l112 630q-102 61 -225 62q-129 0 -219 -101q-131 -150 -131 -413 q0 -260 203 -260z" />
<glyph unicode="e" horiz-adv-x="1017" d="M862 444h-612q-2 -20 -2 -57q0 -137 69 -205q74 -70 244 -69q121 0 256 30l-10 -133q-160 -39 -289 -39q-229 0 -340 113q-104 109 -104 301q0 311 178 502q135 145 326 145q170 0 264 -104q92 -104 92 -289q0 -70 -12 -139q-6 -35 -17.5 -45.5t-42.5 -10.5zM377 803 q-80 -86 -113 -234h500q6 41 6 76q0 117 -53 182q-53 63 -148 64q-110 0 -192 -88z" />
<glyph unicode="f" horiz-adv-x="657" d="M442 1004h281l-23 -125h-280l-236 -1340h-168l236 1340h-178l16 96l184 26l25 140q33 186 123 270q94 88 270 88q96 0 191 -22l-21 -131q-102 12 -170 12q-104 0 -153.5 -45t-71.5 -170z" />
<glyph unicode="g" horiz-adv-x="1081" d="M1022 1004l-195 -1082q-35 -195 -129 -295q-111 -117 -338 -116q-115 0 -210 26l8 133q106 -18 188 -18q158 0 225 74q63 68 91 213l20 118q-139 -86 -287 -86q-152 0 -234.5 112t-82.5 288q0 137 44 273t130 233q135 156 344 155q150 0 266 -94l29 66h131zM453 115 q129 0 256 82l112 630q-102 61 -221 62q-129 0 -219 -101q-131 -150 -131 -413q0 -260 203 -260z" />
<glyph unicode="h" horiz-adv-x="1099" d="M485 1464l-94 -530q158 98 320 98q133 0 211.5 -69.5t78.5 -200.5q0 -49 -16 -141l-108 -621h-168l110 618q12 78 12 117q0 147 -174 148q-133 0 -288 -74l-142 -809h-168l258 1464h168z" />
<glyph unicode="i" horiz-adv-x="473" d="M410 1004l-179 -1004h-168l179 1004h168zM393 1407h13q82 0 81 -66q0 -82 -36 -118q-29 -29 -84 -29h-13q-82 0 -82 66q0 82 37 118q29 29 84 29z" />
<glyph unicode="j" horiz-adv-x="473" d="M242 1004h168l-181 -1014q-27 -154 -59.5 -230.5t-89.5 -132.5q-117 -111 -367 -110l6 133q170 8 242 76q63 59 96 241zM393 1407h13q82 0 81 -66q0 -82 -36 -118q-29 -29 -84 -29h-13q-82 0 -82 66q0 82 37 118q29 29 84 29z" />
<glyph unicode="k" horiz-adv-x="1007" d="M1044 1004l-434 -400l273 -604h-176l-213 498l-213 -199l-54 -299h-168l258 1464h168l-170 -958l529 498h200z" />
<glyph unicode="l" horiz-adv-x="468" d="M319 1464h168l-258 -1464h-168z" />
<glyph unicode="m" horiz-adv-x="1697" d="M379 1004l-6 -78q174 106 329 106q172 0 244 -119q193 119 367 119q131 0 208.5 -70.5t77.5 -199.5q0 -49 -16 -141l-108 -621h-168l110 618q12 78 13 117q0 147 -168 148q-129 0 -283 -70q4 -33 4 -51q0 -49 -16 -141l-109 -621h-168l111 618q12 78 12 117 q0 147 -164 148q-125 0 -280 -76l-142 -807h-168l179 1004h141z" />
<glyph unicode="n" horiz-adv-x="1101" d="M379 1004l-2 -80q164 109 336 108q133 0 212 -69.5t79 -200.5q0 -49 -17 -141l-108 -621h-168l110 618q12 78 13 117q0 145 -175 146q-139 0 -288 -72l-144 -809h-168l179 1004h141z" />
<glyph unicode="o" horiz-adv-x="1073" d="M999 629q0 -319 -184 -508q-145 -150 -358 -150q-182 0 -282.5 111t-100.5 293q0 319 184 508q145 150 358 149q182 0 282.5 -110.5t100.5 -292.5zM825 616q0 121 -56 196t-167 75q-141 0 -231 -111q-123 -147 -123 -389q0 -121 56 -195.5t167 -74.5q141 0 231 110 q123 147 123 389z" />
<glyph unicode="p" horiz-adv-x="1081" d="M481 -29q-131 0 -243 78l-91 -510h-167l258 1465h143l4 -64q152 92 299 92q152 0 234.5 -111.5t82.5 -287.5q0 -137 -44 -273.5t-130 -232.5q-135 -156 -346 -156zM627 887q-133 0 -256 -80l-113 -631q102 -61 221 -61q129 0 219 100q131 150 131 414q1 258 -202 258z " />
<glyph unicode="q" horiz-adv-x="1081" d="M594 -473l92 530q-139 -86 -290.5 -86t-234.5 112t-83 288q0 137 44 273t130 233q135 156 346 155q147 0 264 -94l29 66h131l-258 -1453zM453 115q131 0 258 82l110 630q-102 61 -221 62q-129 0 -219 -101q-131 -150 -131 -413q0 -260 203 -260z" />
<glyph unicode="r" horiz-adv-x="681" d="M238 1004h139l-6 -86q158 115 299 114q31 0 65 -6l-26 -154q-45 4 -88 5q-129 0 -252 -72l-142 -805h-168z" />
<glyph unicode="s" horiz-adv-x="856" d="M795 991l-31 -127q-127 31 -244 31q-111 0 -172 -39t-61 -115q0 -53 47 -89t114.5 -62.5t134 -57t113.5 -92t47 -149.5q0 -158 -118.5 -239t-302.5 -81q-174 0 -306 56l29 131q145 -47 279 -47q123 0 193.5 45t70.5 118q0 59 -47 98.5t-114 63t-133.5 53t-113.5 90 t-47 152.5q0 141 108.5 221t274.5 80q150 0 279 -41z" />
<glyph unicode="t" horiz-adv-x="712" d="M246 879h-178l16 96l184 26l41 230q92 31 174 31l-47 -258h277l-23 -125h-276l-99 -555q-14 -76 -14 -113q0 -51 28.5 -75.5t94.5 -24.5q76 0 188 22l-14 -125q-131 -37 -239.5 -37t-167 58.5t-58.5 163.5q0 43 17 137z" />
<glyph unicode="u" horiz-adv-x="1103" d="M731 0l-6 80q-164 -109 -336 -109q-133 0 -212 70t-79 201q0 49 17 141l108 621h168l-110 -619q-12 -78 -13 -117q0 -147 174 -147q137 0 285 74l143 809h168l-137 -766q-14 -84 -14 -201v-37h-156z" />
<glyph unicode="v" horiz-adv-x="935" d="M283 0l-177 1004h170l130 -830l407 830h178l-522 -1004h-186z" />
<glyph unicode="w" horiz-adv-x="1431" d="M842 0l-90 768l-340 -768h-195l-111 1004h166l76 -826l359 826h170l92 -836l348 836h164l-445 -1004h-194z" />
<glyph unicode="x" horiz-adv-x="954" d="M317 1004l189 -392l295 392h186l-424 -510l238 -494h-172l-185 385l-292 -385h-187l422 502l-240 502h170z" />
<glyph unicode="y" horiz-adv-x="1097" d="M592 -274q63 68 90 213l23 127q-156 -94 -316 -95q-133 0 -212 70t-79 201q0 49 17 141l108 621h168l-110 -619q-12 -78 -13 -117q0 -147 174 -147q137 0 285 74l143 809h168l-190 -1082q-35 -195 -129 -295q-111 -117 -338 -116q-117 0 -213 26l8 133q106 -18 191 -18 q157 0 225 74z" />
<glyph unicode="z" horiz-adv-x="843" d="M702 0h-718l16 94l641 785h-498l21 125h704l-16 -101l-635 -778h508z" />
<glyph unicode="{" horiz-adv-x="720" d="M111 463l24 139q123 23 174 68q61 53 92 219l60 338q25 139 80 194q66 68 252 68h49l-23 -133h-35q-86 0 -112.5 -26.5t-40.5 -112.5l-58 -324q-20 -119 -45.5 -177.5t-70.5 -103.5q-51 -49 -129 -80q80 -37 110 -96q25 -47 25 -112q0 -51 -17 -150l-59 -336 q-6 -37 -6 -61q0 -33 16 -49q20 -18 97 -19h34l-22 -133h-49q-150 0 -207 55q-43 41 -43 111q0 43 8 92l59 336q14 90 15 127q0 66 -27 98q-34 43 -151 68z" />
<glyph unicode="|" horiz-adv-x="471" d="M109 -518h-142l365 2066h141z" />
<glyph unicode="}" horiz-adv-x="720" d="M602 602l-24 -139q-123 -23 -175 -68q-61 -53 -92 -219l-59 -338q-25 -139 -80 -194q-66 -68 -252 -68h-49l23 133h34q86 0 113 26.5t41 112.5l57 324q20 119 46 177.5t71 103.5q51 49 129 79q-80 37 -111 97q-25 47 -24 112q0 51 16 150l60 336q6 37 6 61q0 33 -17 49 q-20 18 -96 19h-35l23 133h49q150 0 207 -55q43 -41 43 -111q0 -43 -8 -92l-60 -336q-14 -90 -14 -127q0 -66 27 -98q34 -43 151 -68z" />
<glyph unicode="~" d="M866 864l101 -22q-43 -201 -219 -201q-68 0 -188 41t-177 41q-74 0 -107 -88l-100 22q43 201 219 201q68 0 187.5 -41t177.5 -41q73 0 106 88z" />
<glyph unicode="&#xa1;" horiz-adv-x="507" d="M186 629h123l-151 -1026h-178zM283 803h-15q-84 0 -84 76q0 84 39 122q31 31 84 31h15q84 0 84 -76q0 -84 -39 -122q-31 -31 -84 -31z" />
<glyph unicode="&#xa2;" horiz-adv-x="1107" d="M858 137l-6 -123q-117 -37 -254 -43l-41 -229h-117l41 235q-154 23 -235.5 125.5t-81.5 284.5q0 139 48 269t136 218q127 127 320 152l41 236h116l-41 -232q106 -4 203 -39l-29 -127q-98 31 -198 31l-137 -784q122 -1 235 26zM481 791q-143 -150 -143 -398 q0 -115 45 -184q37 -61 125 -86l133 760q-94 -22 -160 -92z" />
<glyph unicode="&#xa3;" horiz-adv-x="1107" d="M831 788l-20 -118h-330q2 -35 2 -70q0 -145 -47 -245.5t-172 -219.5h701l-23 -135h-876q-4 16 -5 35q0 76 70 147q111 113 147.5 197t36.5 217q0 33 -2 74h-184l16 94l166 16q-4 45 -4 138q0 260 137 389q127 121 383 120q147 0 277 -34l-21 -129q-123 25 -252 24 q-197 0 -272 -86q-84 -94 -84 -301q0 -86 2 -113h354z" />
<glyph unicode="&#xa4;" horiz-adv-x="1107" d="M645 1079q121 0 197 -63l178 158l74 -91l-183 -157q31 -66 31 -152q0 -170 -111 -293l121 -151l-96 -82l-123 153q-96 -57 -217 -57q-119 0 -194 59l-179 -155l-73 90l180 158q-31 66 -31 153q0 162 100 281l-120 153l96 82l119 -151q104 65 231 65zM623 950 q-100 0 -174 -85t-74 -216q0 -82 42 -129t122 -47q100 0 173.5 85t73.5 216q0 82 -41.5 129t-121.5 47z" />
<glyph unicode="&#xa5;" horiz-adv-x="1105" d="M147 418h269l18 96h-268l20 117h240l-240 770h166l199 -680l446 680h185l-525 -770h238l-21 -117h-272l-18 -96h272l-20 -117h-273l-53 -301h-168l53 301h-268z" />
<glyph unicode="&#xa6;" horiz-adv-x="471" d="M332 752h-142l142 796h141zM109 -518h-142l139 797h142z" />
<glyph unicode="&#xa7;" horiz-adv-x="1112" d="M152 20l26 127q147 -43 295 -43q115 0 179.5 41t64.5 117q0 53 -53.5 87t-129 54.5t-150.5 47t-128 86t-53 151.5q0 176 178 258q-92 66 -92 189q0 141 105.5 216.5t271.5 75.5q150 0 278 -41l-31 -122q-135 31 -243 30q-229 0 -230 -145q0 -57 52.5 -93t126 -57.5 t148.5 -49t127 -87t52 -151.5q2 -166 -176 -254q98 -63 98 -185q0 -125 -84 -202q-104 -98 -327 -99q-164 0 -305 49zM793 692q0 31 -12.5 55.5t-29 41t-50 33t-55.5 23.5l-67 21l-65 21q-78 -18 -118 -67.5t-40 -112.5q0 -37 13.5 -64t50.5 -47.5t58.5 -29.5t84 -27.5 t78.5 -24.5q72 23 112 72t40 106z" />
<glyph unicode="&#xa8;" horiz-adv-x="823" d="M240 1466h8q86 0 86 -67q0 -86 -39 -125q-29 -29 -86 -29h-8q-86 0 -86 68q0 86 39 125q29 28 86 28zM618 1466h9q86 0 86 -67q0 -86 -39 -125q-29 -29 -86 -29h-8q-86 0 -86 68q0 86 38 125q29 28 86 28z" />
<glyph unicode="&#xa9;" horiz-adv-x="1587" d="M971 463l-4 -92q-90 -29 -183 -29q-125 0 -190.5 71.5t-65.5 198.5q0 180 98.5 317.5t276.5 137.5q82 0 164 -31l-27 -90q-63 20 -131 21q-129 0 -193.5 -104.5t-64.5 -246.5q0 -174 168 -174q70 1 152 21zM1534 819q0 -365 -218 -606.5t-583 -241.5q-287 0 -454.5 168 t-167.5 441q0 365 218 606t582 241q287 0 455 -168t168 -440zM1395 813q0 229 -135.5 361.5t-370.5 132.5q-291 0 -465 -202t-174 -519q0 -229 135 -361.5t371 -132.5q291 0 465 202t174 519z" />
<glyph unicode="&#xaa;" horiz-adv-x="817" d="M588 858l30 174h-124q-111 0 -150 -43q-29 -33 -29 -80q0 -84 115 -84q82 0 158 33zM182 899q0 92 62 156q76 80 260 80h133l10 55q4 25 4 37q0 49 -30.5 69.5t-104.5 20.5q-96 0 -194 -21l12 107q119 25 217 24q231 0 231 -172q0 -18 -8 -71l-80 -459h-102l-4 45 q-100 -59 -205 -59q-96 0 -148.5 51t-52.5 137z" />
<glyph unicode="&#xab;" horiz-adv-x="1050" d="M295 537l176 -359l-90 -65l-211 307q-43 59 -43 100q0 53 82 133l317 308l76 -76zM674 537l176 -359l-90 -65l-211 307q-43 59 -43 100q0 53 82 133l317 308l76 -76z" />
<glyph unicode="&#xac;" d="M702 426l66 369h-543l23 129h665l-84 -498h-127z" />
<glyph unicode="&#xad;" horiz-adv-x="645" d="M524 459h-405l26 145h406z" />
<glyph unicode="&#xae;" horiz-adv-x="1587" d="M707 627l-48 -269h-116l125 701h200q125 0 183 -45q55 -45 55 -131q0 -78 -44 -146.5t-118 -89.5l90 -289h-121l-82 269h-124zM766 965l-43 -244h102q74 0 117 39t43 114q0 90 -121 91h-98zM1534 819q0 -365 -218 -606.5t-583 -241.5q-287 0 -454.5 168t-167.5 441 q0 365 218 606t582 241q287 0 455 -168t168 -440zM1395 813q0 229 -135.5 361.5t-370.5 132.5q-291 0 -465 -202t-174 -519q0 -229 135 -361.5t371 -132.5q291 0 465 202t174 519z" />
<glyph unicode="&#xaf;" horiz-adv-x="823" d="M662 1251h-525l25 138h524z" />
<glyph unicode="&#xb0;" horiz-adv-x="948" d="M492 825q92 0 153 66q88 94 88 239q0 170 -158 170q-92 0 -153 -65q-88 -94 -88 -240q0 -170 158 -170zM469 698q-133 0 -209 78t-76 219q0 186 123 316q115 117 291 116q133 0 209 -77.5t76 -219.5q0 -186 -123 -315q-115 -117 -291 -117z" />
<glyph unicode="&#xb1;" d="M231 610l23 129h270l47 275h127l-49 -275h273l-23 -129h-272l-47 -276h-127l49 276h-271zM145 129h668l-22 -129h-668z" />
<glyph unicode="&#xb2;" horiz-adv-x="946" d="M399 727h340l-20 -117h-502q-4 16 -4 33q0 35 16.5 62.5t69.5 78.5l195 187q104 100 139 152.5t35 99.5q0 88 -131 88q-98 0 -211 -23l18 109q111 31 225.5 30.5t182 -51.5t67.5 -147q0 -68 -40 -133.5t-152 -165.5z" />
<glyph unicode="&#xb3;" horiz-adv-x="946" d="M219 731q100 -23 187 -22q92 0 142 42t50 119q0 53 -35 77t-117 24h-40l18 104h43q88 0 134 38t46 104q0 49 -32.5 71.5t-108.5 22.5q-68 0 -174 -15l18 111q78 20 193 20q143 0 205 -61q49 -49 49 -137q0 -61 -37 -116.5t-109 -84.5q104 -37 105 -151q0 -145 -97.5 -215 t-252.5 -70q-111 0 -205 29z" />
<glyph unicode="&#xb4;" horiz-adv-x="823" d="M227 1145l-57 90l410 319l79 -129z" />
<glyph unicode="&#xb5;" horiz-adv-x="1116" d="M1051 1004l-136 -766q-14 -84 -14 -201v-37h-156l-6 80q-164 -109 -336 -109q-102 0 -172 41l-84 -473h-165l258 1465h166l-111 -619q-12 -78 -12 -117q0 -150 174 -149q133 0 284 76l144 809h166z" />
<glyph unicode="&#x3bc;" horiz-adv-x="1116" d="M1051 1004l-136 -766q-14 -84 -14 -201v-37h-156l-6 80q-164 -109 -336 -109q-102 0 -172 41l-84 -473h-165l258 1465h166l-111 -619q-12 -78 -12 -117q0 -150 174 -149q133 0 284 76l144 809h166z" />
<glyph unicode="&#xb6;" horiz-adv-x="1208" d="M668 1401h565l-25 -135h-141l-297 -1682h-147l297 1682h-148l-297 -1682h-147l190 1084q-154 0 -239.5 73.5t-85.5 210.5q0 201 110 318q125 131 365 131z" />
<glyph unicode="&#xb7;" horiz-adv-x="454" d="M268 842h15q84 0 84 -76q0 -84 -39 -123q-31 -31 -84 -31h-15q-84 0 -84 76q0 84 39 123q31 31 84 31z" />
<glyph unicode="&#xb8;" horiz-adv-x="823" d="M332 14h92q-31 -45 -31 -75q0 -23 31 -40.5t66.5 -29.5t66.5 -46t31 -87q0 -86 -56 -142q-63 -63 -190 -63q-76 0 -149 25l18 106q66 -16 131 -16q113 0 113 63q0 25 -31 43.5t-68 29.5t-67.5 38.5t-30.5 66.5q0 66 74 127z" />
<glyph unicode="&#xb9;" horiz-adv-x="946" d="M565 723h148l-19 -113h-456l18 113h166l102 580h-157l18 106q113 10 217 10q43 0 61.5 -16.5t12.5 -52.5z" />
<glyph unicode="&#xba;" horiz-adv-x="843" d="M575 1427q125 0 194 -72.5t69 -197.5q0 -229 -138 -356q-96 -90 -249 -90q-125 0 -194 72.5t-69 197.5q0 229 138 356q95 90 249 90zM471 829q82 0 139 58q84 88 84 270q0 152 -139 152q-82 0 -139 -58q-84 -88 -84 -270q0 -152 139 -152z" />
<glyph unicode="&#xbb;" horiz-adv-x="1050" d="M756 537l-176 358l90 66l211 -308q43 -59 43 -100q0 -53 -82 -133l-318 -307l-75 75zM377 537l-176 358l90 66l211 -308q43 -59 43 -100q0 -53 -82 -133l-318 -307l-75 75z" />
<glyph unicode="&#xbc;" horiz-adv-x="1925" d="M1448 195h-356q-4 16 -5 28q0 39 37 107l254 489h133l-258 -506h215l33 183h135l-32 -183h94l-21 -118h-94l-35 -195h-135zM594 723h147l-18 -113h-457l19 113h166l102 580h-158l19 106q113 10 217 10q43 0 61.5 -16.5t12.5 -52.5zM1569 1427l-959 -1456h-159l958 1456 h160z" />
<glyph unicode="&#xbd;" horiz-adv-x="1925" d="M573 723h148l-19 -113h-456l18 113h166l102 580h-157l18 106q113 10 217 10q43 0 61.5 -16.5t12.5 -52.5zM1550 1427l-958 -1456h-160l959 1456h159zM1313 121h340l-21 -117h-502q-4 16 -4 33q0 35 16.5 62.5t69.5 78.5l195 187q104 100 139 152t35 99q0 88 -131 89 q-98 0 -211 -23l18 109q111 31 225.5 30.5t182.5 -51.5t68 -147q0 -68 -40 -133.5t-153 -165.5z" />
<glyph unicode="&#xbe;" horiz-adv-x="1925" d="M1448 195h-356q-4 16 -5 28q0 39 37 107l254 489h133l-258 -506h215l33 183h135l-32 -183h94l-21 -118h-94l-35 -195h-135zM252 731q100 -23 186 -22q92 0 142.5 42t50.5 119q0 53 -35 77t-117 24h-41l19 104h43q88 0 134 38t46 104q0 49 -33 71.5t-108 22.5 q-68 0 -174 -15l18 111q78 20 192 20q143 0 205 -61q49 -49 49 -137q0 -61 -36.5 -116.5t-108.5 -84.5q104 -37 104 -151q0 -145 -97 -215t-253 -70q-111 0 -205 29zM1569 1427l-959 -1456h-159l958 1456h160z" />
<glyph unicode="&#xbf;" horiz-adv-x="839" d="M444 629h123q0 -88 -44 -169t-105 -145l-124 -124q-62 -60 -106.5 -134.5t-44.5 -152.5q0 -86 52 -133q57 -51 184 -52q119 0 242 33l10 -129q-117 -47 -285 -47q-197 0 -291 88q-90 84 -90 217q0 92 43 175t109 148l132 126q67 61 123 139t72 160zM539 803h-15 q-84 0 -84 76q0 84 39 122q31 31 84 31h15q84 0 84 -76q0 -84 -39 -122q-31 -31 -84 -31z" />
<glyph unicode="&#xc0;" horiz-adv-x="1183" d="M121 0h-178l675 1401h201l225 -1401h-178l-55 373h-514zM365 516h426l-101 684h-2zM977 1610l-68 -76l-334 281l103 114z" />
<glyph unicode="&#xc1;" horiz-adv-x="1183" d="M121 0h-178l675 1401h201l225 -1401h-178l-55 373h-514zM365 516h426l-101 684h-2zM588 1534l-58 90l410 320l80 -129z" />
<glyph unicode="&#xc2;" horiz-adv-x="1183" d="M121 0h-178l675 1401h201l225 -1401h-178l-55 373h-514zM365 516h426l-101 684h-2zM885 1898l184 -301l-61 -61l-211 219l-287 -217l-59 59l292 301h142z" />
<glyph unicode="&#xc3;" horiz-adv-x="1183" d="M121 0h-178l675 1401h201l225 -1401h-178l-55 373h-514zM365 516h426l-101 684h-2zM532 1620l-90 16q18 106 72.5 159.5t132.5 53.5q55 0 143.5 -40t120.5 -40q68 0 95 82l90 -16q-18 -106 -72.5 -159.5t-132.5 -53.5q-55 0 -143.5 40t-120.5 40q-68 0 -95 -82z" />
<glyph unicode="&#xc4;" horiz-adv-x="1183" d="M121 0h-178l675 1401h201l225 -1401h-178l-55 373h-514zM365 516h426l-101 684h-2zM596 1843h8q86 0 86 -67q0 -86 -39 -125q-29 -29 -86 -29h-8q-86 0 -86 68q0 86 39 125q29 28 86 28zM975 1843h8q86 0 86 -67q0 -86 -39 -125q-29 -29 -86 -29h-8q-86 0 -86 68 q0 86 39 125q29 28 86 28z" />
<glyph unicode="&#xc5;" horiz-adv-x="1183" d="M121 0h-178l675 1401h201l225 -1401h-178l-55 373h-514zM365 516h426l-101 684h-2zM756 1651h8q137 0 137 159q0 84 -98 84h-8q-137 0 -138 -159q1 -84 99 -84zM817 1999q92 0 144.5 -48t52.5 -126q0 -279 -262 -279h-11q-92 0 -144 48t-52 126q0 279 262 279h10z" />
<glyph unicode="&#xc6;" horiz-adv-x="1808" d="M1114 635l-88 -492h623l-27 -143h-801l66 373h-488l-274 -373h-193l1049 1401h872l-41 -144h-587l-84 -473h479l-27 -149h-479zM506 516h407l127 723h-2z" />
<glyph unicode="&#xc7;" horiz-adv-x="1112" d="M1112 1237q-125 41 -242 41q-227 0 -372 -170q-94 -109 -148.5 -268.5t-54.5 -327.5q0 -197 91 -293t280 -96q119 0 260 31l-6 -142q-150 -41 -308 -41q-27 0 -71 4q-6 -20 -6 -36q0 -23 30.5 -40.5t66.5 -29.5t66.5 -46t30.5 -87q0 -86 -55 -142q-63 -63 -191 -63 q-76 0 -149 25l18 106q66 -16 131 -16q113 0 113 63q0 25 -30.5 43.5t-67.5 29.5t-68 38.5t-31 66.5q0 51 47 105q-340 82 -340 520q0 193 74 390.5t195 320.5q199 205 497 204q158 0 293 -57z" />
<glyph unicode="&#xc8;" horiz-adv-x="1054" d="M360 635l-88 -492h623l-27 -143h-800l247 1401h785l-41 -144h-588l-84 -473h479l-26 -149h-480zM952 1610l-67 -76l-334 281l102 114z" />
<glyph unicode="&#xc9;" horiz-adv-x="1054" d="M360 635l-88 -492h623l-27 -143h-800l247 1401h785l-41 -144h-588l-84 -473h479l-26 -149h-480zM586 1534l-58 90l410 320l80 -129z" />
<glyph unicode="&#xca;" horiz-adv-x="1054" d="M360 635l-88 -492h623l-27 -143h-800l247 1401h785l-41 -144h-588l-84 -473h479l-26 -149h-480zM864 1898l185 -301l-62 -61l-211 219l-287 -217l-59 59l293 301h141z" />
<glyph unicode="&#xcb;" horiz-adv-x="1054" d="M360 635l-88 -492h623l-27 -143h-800l247 1401h785l-41 -144h-588l-84 -473h479l-26 -149h-480zM573 1843h9q86 0 86 -67q0 -86 -39 -125q-29 -29 -86 -29h-8q-86 0 -86 68q0 86 38 125q29 28 86 28zM952 1843h9q86 0 86 -67q0 -86 -39 -125q-29 -29 -86 -29h-9 q-86 0 -86 68q0 86 39 125q29 28 86 28z" />
<glyph unicode="&#xcc;" horiz-adv-x="514" d="M72 0l247 1401h181l-248 -1401h-180zM647 1610l-67 -76l-334 281l102 114z" />
<glyph unicode="&#xcd;" horiz-adv-x="514" d="M72 0l247 1401h181l-248 -1401h-180zM299 1534l-57 90l409 320l80 -129z" />
<glyph unicode="&#xce;" horiz-adv-x="514" d="M72 0l247 1401h181l-248 -1401h-180zM559 1898l184 -301l-61 -61l-211 219l-287 -217l-59 59l293 301h141z" />
<glyph unicode="&#xcf;" horiz-adv-x="514" d="M72 0l247 1401h181l-248 -1401h-180zM299 1843h8q86 0 86 -67q0 -86 -39 -125q-29 -29 -86 -29h-8q-86 0 -86 68q0 86 39 125q29 28 86 28zM678 1843h8q86 0 86 -67q0 -86 -39 -125q-29 -29 -86 -29h-8q-86 0 -86 68q0 86 39 125q29 28 86 28z" />
<glyph unicode="&#xd0;" horiz-adv-x="1316" d="M100 0l113 639h-184l24 139h185l110 623h309q350 0 492 -154q119 -129 119 -377q0 -176 -67.5 -364.5t-203.5 -317.5q-195 -188 -514 -188h-383zM676 639h-283l-88 -496h174q233 0 379 140q109 104 166 264t57 332q0 199 -90 284q-96 94 -379 94h-108l-86 -479h282z" />
<glyph unicode="&#xd1;" horiz-adv-x="1361" d="M68 0l247 1401h136l542 -1100l195 1100h164l-248 -1401h-135l-543 1100l-195 -1100h-163zM657 1620l-90 16q18 106 72.5 159.5t132.5 53.5q55 0 143.5 -40t120.5 -40q68 0 94 82l91 -16q-18 -106 -72.5 -159.5t-132.5 -53.5q-55 0 -143.5 40t-120.5 40q-68 0 -95 -82z " />
<glyph unicode="&#xd2;" horiz-adv-x="1298" d="M106 496q0 205 71 412.5t196 340.5q168 178 413 178q223 0 343 -139t120 -385q0 -205 -70.5 -412.5t-195.5 -340.5q-168 -178 -414 -179q-223 0 -343 139.5t-120 385.5zM295 487q0 -160 68.5 -260t214.5 -100q195 0 319 186q76 113 120 279t44 319q0 160 -68.5 260.5 t-214.5 100.5q-195 0 -319 -187q-76 -113 -120 -278.5t-44 -319.5zM1069 1610l-68 -76l-333 281l102 114z" />
<glyph unicode="&#xd3;" horiz-adv-x="1298" d="M106 496q0 205 71 412.5t196 340.5q168 178 413 178q223 0 343 -139t120 -385q0 -205 -70.5 -412.5t-195.5 -340.5q-168 -178 -414 -179q-223 0 -343 139.5t-120 385.5zM295 487q0 -160 68.5 -260t214.5 -100q195 0 319 186q76 113 120 279t44 319q0 160 -68.5 260.5 t-214.5 100.5q-195 0 -319 -187q-76 -113 -120 -278.5t-44 -319.5zM678 1534l-57 90l409 320l80 -129z" />
<glyph unicode="&#xd4;" horiz-adv-x="1298" d="M106 496q0 205 71 412.5t196 340.5q168 178 413 178q223 0 343 -139t120 -385q0 -205 -70.5 -412.5t-195.5 -340.5q-168 -178 -414 -179q-223 0 -343 139.5t-120 385.5zM295 487q0 -160 68.5 -260t214.5 -100q195 0 319 186q76 113 120 279t44 319q0 160 -68.5 260.5 t-214.5 100.5q-195 0 -319 -187q-76 -113 -120 -278.5t-44 -319.5zM956 1898l185 -301l-62 -61l-211 219l-286 -217l-60 59l293 301h141z" />
<glyph unicode="&#xd5;" horiz-adv-x="1298" d="M106 496q0 205 71 412.5t196 340.5q168 178 413 178q223 0 343 -139t120 -385q0 -205 -70.5 -412.5t-195.5 -340.5q-168 -178 -414 -179q-223 0 -343 139.5t-120 385.5zM295 487q0 -160 68.5 -260t214.5 -100q195 0 319 186q76 113 120 279t44 319q0 160 -68.5 260.5 t-214.5 100.5q-195 0 -319 -187q-76 -113 -120 -278.5t-44 -319.5zM614 1620l-90 16q18 106 72.5 159.5t132.5 53.5q55 0 143.5 -40t120.5 -40q68 0 94 82l91 -16q-18 -106 -72.5 -159.5t-132.5 -53.5q-55 0 -143.5 40t-120.5 40q-68 0 -95 -82z" />
<glyph unicode="&#xd6;" horiz-adv-x="1298" d="M106 496q0 205 71 412.5t196 340.5q168 178 413 178q223 0 343 -139t120 -385q0 -205 -70.5 -412.5t-195.5 -340.5q-168 -178 -414 -179q-223 0 -343 139.5t-120 385.5zM295 487q0 -160 68.5 -260t214.5 -100q195 0 319 186q76 113 120 279t44 319q0 160 -68.5 260.5 t-214.5 100.5q-195 0 -319 -187q-76 -113 -120 -278.5t-44 -319.5zM680 1835h8q86 0 86 -68q0 -86 -39 -125q-29 -29 -86 -28h-8q-86 0 -86 67q0 86 39 125q29 29 86 29zM1059 1835h8q86 0 86 -68q0 -86 -39 -125q-29 -29 -86 -28h-8q-86 0 -86 67q0 86 39 125q29 29 86 29z " />
<glyph unicode="&#xd7;" d="M717 387l-160 197l-223 -195l-78 92l225 195l-155 192l102 88l156 -192l225 197l78 -93l-228 -196l160 -197z" />
<glyph unicode="&#xd8;" horiz-adv-x="1298" d="M106 496q0 205 71 412.5t196 340.5q168 178 413 178q111 0 201 -38l88 161h139l-122 -225q158 -139 157 -422q0 -205 -70.5 -412.5t-195.5 -340.5q-168 -178 -414 -179q-106 0 -200 37l-86 -160h-140l123 224q-160 137 -160 424zM295 487q0 -156 61 -249l551 1005 q-57 29 -129 29q-195 0 -319 -187q-76 -113 -120 -278.5t-44 -319.5zM1061 911.5q0 153.5 -62 247.5l-550 -1005q59 -27 129 -27q195 0 319 186q76 113 120 279t44 319.5z" />
<glyph unicode="&#xd9;" horiz-adv-x="1310" d="M485 1401l-149 -844q-20 -119 -21 -180q0 -250 281 -250q172 0 274 106q84 84 119 289l156 879h164l-162 -914q-43 -240 -160 -362q-147 -154 -412 -154q-199 0 -320.5 99.5t-121.5 283.5q0 74 23 199l149 848h180zM1030 1610l-67 -76l-334 281l102 114z" />
<glyph unicode="&#xda;" horiz-adv-x="1310" d="M485 1401l-149 -844q-20 -119 -21 -180q0 -250 281 -250q172 0 274 106q84 84 119 289l156 879h164l-162 -914q-43 -240 -160 -362q-147 -154 -412 -154q-199 0 -320.5 99.5t-121.5 283.5q0 74 23 199l149 848h180zM719 1534l-57 90l409 320l80 -129z" />
<glyph unicode="&#xdb;" horiz-adv-x="1310" d="M485 1401l-149 -844q-20 -119 -21 -180q0 -250 281 -250q172 0 274 106q84 84 119 289l156 879h164l-162 -914q-43 -240 -160 -362q-147 -154 -412 -154q-199 0 -320.5 99.5t-121.5 283.5q0 74 23 199l149 848h180zM967 1898l184 -301l-61 -61l-211 219l-287 -217l-60 59 l293 301h142z" />
<glyph unicode="&#xdc;" horiz-adv-x="1310" d="M485 1401l-149 -844q-20 -119 -21 -180q0 -250 281 -250q172 0 274 106q84 84 119 289l156 879h164l-162 -914q-43 -240 -160 -362q-147 -154 -412 -154q-199 0 -320.5 99.5t-121.5 283.5q0 74 23 199l149 848h180zM680 1843h8q86 0 86 -67q0 -86 -39 -125 q-29 -29 -86 -29h-8q-86 0 -86 68q0 86 39 125q29 28 86 28zM1059 1843h8q86 0 86 -67q0 -86 -39 -125q-29 -29 -86 -29h-8q-86 0 -86 68q0 86 39 125q29 28 86 28z" />
<glyph unicode="&#xdd;" horiz-adv-x="1155" d="M561 0h-178l100 561l-309 840h184l240 -678l483 678h193l-612 -832zM604 1534l-57 90l409 320l80 -129z" />
<glyph unicode="&#xde;" horiz-adv-x="1144" d="M426 1001l-107 -591h183q211 0 315 110q98 104 98 266q0 104 -63 158q-66 57 -238 57h-188zM295 266l-47 -266h-180l247 1401h183l-47 -256h190q248 0 360 -101q98 -88 99 -247q0 -229 -142 -375q-156 -156 -428 -156h-235z" />
<glyph unicode="&#xdf;" horiz-adv-x="1269" d="M274 1001l5 23q88 475 503 475q162 0 259.5 -71.5t97.5 -198.5q0 -82 -40 -149.5t-96.5 -111.5l-111.5 -83t-95 -79t-40 -81q0 -43 42 -78t101 -62.5t117.5 -61.5t100.5 -92t42 -134q0 -156 -119.5 -241t-304.5 -85q-168 0 -307 45l33 129q133 -35 268 -34 q119 0 191.5 44t72.5 128q0 61 -62.5 107t-136 74t-136 91t-62.5 154q0 63 39 117.5t94 95.5l111 82q55 41 94 97t39 122q0 63 -48 101t-139 38q-145 0 -227 -84q-84 -88 -123 -305l-252 -1434h-168l236 1342h-178l16 94z" />
<glyph unicode="&#xe0;" d="M891 1004h129l-137 -766q-14 -84 -15 -201v-37h-155l-8 72q-152 -100 -310 -101q-152 0 -234.5 112t-82.5 288q0 137 44 273t130 233q135 156 346 155q147 0 264 -94zM453 115q129 0 256 82l112 630q-106 63 -221 64q-129 0 -219 -100q-131 -150 -131 -416 q0 -260 203 -260zM850 1221l-68 -76l-333 280l102 115z" />
<glyph unicode="&#xe1;" d="M891 1004h129l-137 -766q-14 -84 -15 -201v-37h-155l-8 72q-152 -100 -310 -101q-152 0 -234.5 112t-82.5 288q0 137 44 273t130 233q135 156 346 155q147 0 264 -94zM453 115q129 0 256 82l112 630q-106 63 -221 64q-129 0 -219 -100q-131 -150 -131 -416 q0 -260 203 -260zM528 1145l-57 90l410 319l80 -129z" />
<glyph unicode="&#xe2;" d="M891 1004h129l-137 -766q-14 -84 -15 -201v-37h-155l-8 72q-152 -100 -310 -101q-152 0 -234.5 112t-82.5 288q0 137 44 273t130 233q135 156 346 155q147 0 264 -94zM453 115q129 0 256 82l112 630q-106 63 -221 64q-129 0 -219 -100q-131 -150 -131 -416 q0 -260 203 -260zM772 1509l184 -301l-61 -61l-211 219l-287 -217l-59 59l293 301h141z" />
<glyph unicode="&#xe3;" d="M891 1004h129l-137 -766q-14 -84 -15 -201v-37h-155l-8 72q-152 -100 -310 -101q-152 0 -234.5 112t-82.5 288q0 137 44 273t130 233q135 156 346 155q147 0 264 -94zM453 115q129 0 256 82l112 630q-106 63 -221 64q-129 0 -219 -100q-131 -150 -131 -416 q0 -260 203 -260zM428 1231l-90 16q18 106 72.5 159.5t132.5 53.5q55 0 143 -40t121 -40q68 0 94 82l90 -16q-18 -106 -72.5 -159.5t-132.5 -53.5q-55 0 -143 40t-121 40q-67 0 -94 -82z" />
<glyph unicode="&#xe4;" d="M891 1004h129l-137 -766q-14 -84 -15 -201v-37h-155l-8 72q-152 -100 -310 -101q-152 0 -234.5 112t-82.5 288q0 137 44 273t130 233q135 156 346 155q147 0 264 -94zM453 115q129 0 256 82l112 630q-106 63 -221 64q-129 0 -219 -100q-131 -150 -131 -416 q0 -260 203 -260zM502 1466h8q86 0 86 -67q0 -86 -39 -125q-29 -29 -86 -29h-8q-86 0 -86 68q0 86 39 125q29 28 86 28zM881 1466h8q86 0 86 -67q0 -86 -39 -125q-29 -29 -86 -29h-8q-86 0 -86 68q0 86 39 125q29 28 86 28z" />
<glyph unicode="&#xe5;" d="M891 1004h129l-137 -766q-14 -84 -15 -201v-37h-155l-8 72q-152 -100 -310 -101q-152 0 -234.5 112t-82.5 288q0 137 44 273t130 233q135 156 346 155q147 0 264 -94zM453 115q129 0 256 82l112 630q-106 63 -221 64q-129 0 -219 -100q-131 -150 -131 -416 q0 -260 203 -260zM664 1262h8q137 0 137 159q0 84 -98 84h-9q-137 0 -137 -159q1 -84 99 -84zM725 1610q92 0 144.5 -48.5t52.5 -125.5q0 -279 -263 -279h-10q-92 0 -144 48t-52 126q0 279 262 279h10z" />
<glyph unicode="&#xe6;" horiz-adv-x="1632" d="M690 385q0 45 2 59h-198q-154 0 -211 -47q-51 -41 -52 -123q0 -80 50.5 -122.5t146.5 -42.5q162 0 293 92q-31 78 -31 184zM883 569h495q6 41 6 74q0 119 -53 184q-53 63 -147 64q-111 0 -193 -88q-75 -82 -108 -234zM1479 444h-611q-2 -20 -2 -57q0 -137 70 -205 q74 -70 244 -69q119 0 254 30l-11 -133q-160 -39 -288 -39q-244 0 -355 129q-184 -129 -379 -129q-158 0 -249 80t-91 219q0 119 70 193q104 106 363 106h221q25 86 24 144q0 96 -53 139t-178 43q-96 0 -272 -29l18 131q150 35 305 35q240 0 318 -133q137 133 315 133 q170 0 264 -104q94 -106 94 -289q0 -70 -12 -139q-6 -35 -17 -45.5t-42 -10.5z" />
<glyph unicode="&#xe7;" horiz-adv-x="872" d="M768 139l-6 -125q-141 -43 -279 -43h-22q-6 -18 -6 -32q0 -23 30.5 -40.5t66.5 -29.5t66.5 -46t30.5 -87q0 -86 -55 -142q-63 -63 -191 -63q-76 0 -149 25l18 106q66 -16 131 -16q113 0 113 63q0 25 -30.5 43.5t-67.5 29.5t-68 38.5t-31 66.5q0 49 41 97 q-289 61 -288 403q0 139 48 269t136 218q158 158 412 158q117 0 229 -41l-29 -129q-98 31 -198 31q-180 0 -279 -105q-143 -150 -143 -395q0 -115 45 -184q61 -96 239 -96q123 -1 236 26z" />
<glyph unicode="&#xe8;" horiz-adv-x="1017" d="M862 444h-612q-2 -20 -2 -57q0 -137 69 -205q74 -70 244 -69q121 0 256 30l-10 -133q-160 -39 -289 -39q-229 0 -340 113q-104 109 -104 301q0 311 178 502q135 145 326 145q170 0 264 -104q92 -104 92 -289q0 -70 -12 -139q-6 -35 -17.5 -45.5t-42.5 -10.5zM377 803 q-80 -86 -113 -234h500q6 41 6 76q0 117 -53 182q-53 63 -148 64q-110 0 -192 -88zM823 1221l-67 -76l-334 280l102 115z" />
<glyph unicode="&#xe9;" horiz-adv-x="1017" d="M862 444h-612q-2 -20 -2 -57q0 -137 69 -205q74 -70 244 -69q121 0 256 30l-10 -133q-160 -39 -289 -39q-229 0 -340 113q-104 109 -104 301q0 311 178 502q135 145 326 145q170 0 264 -104q92 -104 92 -289q0 -70 -12 -139q-6 -35 -17.5 -45.5t-42.5 -10.5zM377 803 q-80 -86 -113 -234h500q6 41 6 76q0 117 -53 182q-53 63 -148 64q-110 0 -192 -88zM463 1145l-57 90l409 319l80 -129z" />
<glyph unicode="&#xea;" horiz-adv-x="1017" d="M862 444h-612q-2 -20 -2 -57q0 -137 69 -205q74 -70 244 -69q121 0 256 30l-10 -133q-160 -39 -289 -39q-229 0 -340 113q-104 109 -104 301q0 311 178 502q135 145 326 145q170 0 264 -104q92 -104 92 -289q0 -70 -12 -139q-6 -35 -17.5 -45.5t-42.5 -10.5zM377 803 q-80 -86 -113 -234h500q6 41 6 76q0 117 -53 182q-53 63 -148 64q-110 0 -192 -88zM735 1509l185 -301l-62 -61l-211 219l-287 -217l-59 59l293 301h141z" />
<glyph unicode="&#xeb;" horiz-adv-x="1017" d="M862 444h-612q-2 -20 -2 -57q0 -137 69 -205q74 -70 244 -69q121 0 256 30l-10 -133q-160 -39 -289 -39q-229 0 -340 113q-104 109 -104 301q0 311 178 502q135 145 326 145q170 0 264 -104q92 -104 92 -289q0 -70 -12 -139q-6 -35 -17.5 -45.5t-42.5 -10.5zM377 803 q-80 -86 -113 -234h500q6 41 6 76q0 117 -53 182q-53 63 -148 64q-110 0 -192 -88zM459 1466h8q86 0 86 -67q0 -86 -39 -125q-29 -29 -86 -29h-8q-86 0 -86 68q0 86 39 125q29 28 86 28zM838 1466h8q86 0 86 -67q0 -86 -39 -125q-29 -29 -86 -29h-8q-86 0 -86 68 q0 86 39 125q29 28 86 28z" />
<glyph unicode="&#xec;" horiz-adv-x="471" d="M408 1004l-179 -1004h-166l179 1004h166zM547 1221l-68 -76l-334 280l103 115z" />
<glyph unicode="&#xed;" horiz-adv-x="471" d="M408 1004l-179 -1004h-166l179 1004h166zM207 1145l-57 90l409 319l80 -129z" />
<glyph unicode="&#xee;" horiz-adv-x="471" d="M408 1004l-179 -1004h-166l179 1004h166zM469 1509l184 -301l-61 -61l-211 219l-287 -217l-59 59l293 301h141z" />
<glyph unicode="&#xef;" horiz-adv-x="471" d="M408 1004l-179 -1004h-166l179 1004h166zM205 1466h8q86 0 86 -67q0 -86 -39 -125q-29 -29 -86 -29h-8q-86 0 -86 68q0 86 39 125q29 28 86 28zM584 1466h8q86 0 86 -67q0 -86 -39 -125q-29 -29 -86 -29h-8q-86 0 -86 68q0 86 39 125q29 28 86 28z" />
<glyph unicode="&#xf0;" horiz-adv-x="1087" d="M1008 776q0 -213 -55.5 -391t-178.5 -296t-293 -118q-193 0 -294 112t-101 296q0 268 143 432q129 145 336 145q147 0 271 -79q-16 184 -129 376l-164 -118l-68 92l168 123q-61 84 -139 157l92 82q86 -74 160 -157l188 137l68 -92l-185 -136q181 -254 181 -565zM836 750 q-106 72 -248 71q-162 0 -244 -121q-88 -125 -88 -313q0 -129 58.5 -202.5t166.5 -73.5q102 0 178 74.5t119 205.5q58 164 58 359z" />
<glyph unicode="&#xf1;" horiz-adv-x="1101" d="M379 1004l-2 -80q164 109 336 108q133 0 212 -69.5t79 -200.5q0 -49 -17 -141l-108 -621h-168l110 618q12 78 13 117q0 145 -175 146q-139 0 -288 -72l-144 -809h-168l179 1004h141zM502 1231l-90 16q18 106 72.5 159.5t131.5 53.5q55 0 143.5 -40t121.5 -40q68 0 94 82 l90 -16q-18 -106 -72.5 -159.5t-132.5 -53.5q-55 0 -143 40t-121 40q-67 0 -94 -82z" />
<glyph unicode="&#xf2;" horiz-adv-x="1073" d="M999 629q0 -319 -184 -508q-145 -150 -358 -150q-182 0 -282.5 111t-100.5 293q0 319 184 508q145 150 358 149q182 0 282.5 -110.5t100.5 -292.5zM825 616q0 121 -56 196t-167 75q-141 0 -231 -111q-123 -147 -123 -389q0 -121 56 -195.5t167 -74.5q141 0 231 110 q123 147 123 389zM881 1221l-68 -76l-334 280l103 115z" />
<glyph unicode="&#xf3;" horiz-adv-x="1073" d="M999 629q0 -319 -184 -508q-145 -150 -358 -150q-182 0 -282.5 111t-100.5 293q0 319 184 508q145 150 358 149q182 0 282.5 -110.5t100.5 -292.5zM825 616q0 121 -56 196t-167 75q-141 0 -231 -111q-123 -147 -123 -389q0 -121 56 -195.5t167 -74.5q141 0 231 110 q123 147 123 389zM506 1145l-57 90l409 319l80 -129z" />
<glyph unicode="&#xf4;" horiz-adv-x="1073" d="M999 629q0 -319 -184 -508q-145 -150 -358 -150q-182 0 -282.5 111t-100.5 293q0 319 184 508q145 150 358 149q182 0 282.5 -110.5t100.5 -292.5zM825 616q0 121 -56 196t-167 75q-141 0 -231 -111q-123 -147 -123 -389q0 -121 56 -195.5t167 -74.5q141 0 231 110 q123 147 123 389zM772 1509l184 -301l-61 -61l-211 219l-287 -217l-59 59l293 301h141z" />
<glyph unicode="&#xf5;" horiz-adv-x="1073" d="M999 629q0 -319 -184 -508q-145 -150 -358 -150q-182 0 -282.5 111t-100.5 293q0 319 184 508q145 150 358 149q182 0 282.5 -110.5t100.5 -292.5zM825 616q0 121 -56 196t-167 75q-141 0 -231 -111q-123 -147 -123 -389q0 -121 56 -195.5t167 -74.5q141 0 231 110 q123 147 123 389zM434 1231l-90 16q18 106 72.5 159.5t132.5 53.5q55 0 143 -40t121 -40q68 0 94 82l90 -16q-18 -106 -72.5 -159.5t-131.5 -53.5q-55 0 -143.5 40t-121.5 40q-67 0 -94 -82z" />
<glyph unicode="&#xf6;" horiz-adv-x="1073" d="M999 629q0 -319 -184 -508q-145 -150 -358 -150q-182 0 -282.5 111t-100.5 293q0 319 184 508q145 150 358 149q182 0 282.5 -110.5t100.5 -292.5zM825 616q0 121 -56 196t-167 75q-141 0 -231 -111q-123 -147 -123 -389q0 -121 56 -195.5t167 -74.5q141 0 231 110 q123 147 123 389zM489 1466h9q86 0 86 -67q0 -86 -39 -125q-29 -29 -86 -29h-8q-86 0 -86 68q0 86 38 125q29 28 86 28zM868 1466h9q86 0 86 -67q0 -86 -39 -125q-29 -29 -86 -29h-9q-86 0 -86 68q0 86 39 125q29 28 86 28z" />
<glyph unicode="&#xf7;" d="M248 739h667l-22 -129h-668zM647 1096h8q82 0 82 -66q0 -82 -37 -119q-29 -29 -84 -28h-8q-82 0 -82 65q0 82 37 119q29 29 84 29zM539 467h8q82 0 82 -66q0 -82 -37 -118q-29 -29 -84 -29h-8q-82 0 -82 65q0 82 37 119q29 29 84 29z" />
<glyph unicode="&#xf8;" horiz-adv-x="1073" d="M1001 629q0 -319 -184 -508q-145 -150 -360 -150q-66 0 -125 17l-78 -146h-129l102 193q-156 106 -155 340q0 319 184 508q145 150 360 149q76 0 134 -18l79 147h129l-106 -198q149 -107 149 -334zM248 387q0 -133 61 -203l367 690q-33 12 -74 13q-141 0 -231 -111 q-123 -147 -123 -389zM825 616q0 121 -55 193l-367 -684q27 -8 68 -8q141 0 231 110q123 147 123 389z" />
<glyph unicode="&#xf9;" horiz-adv-x="1097" d="M731 0l-6 80q-164 -109 -336 -109q-133 0 -212 70t-79 201q0 49 17 141l108 621h168l-110 -619q-12 -78 -13 -117q0 -147 174 -147q137 0 285 74l143 809h168l-137 -766q-14 -84 -14 -201v-37h-156zM852 1221l-68 -76l-333 280l102 115z" />
<glyph unicode="&#xfa;" horiz-adv-x="1097" d="M731 0l-6 80q-164 -109 -336 -109q-133 0 -212 70t-79 201q0 49 17 141l108 621h168l-110 -619q-12 -78 -13 -117q0 -147 174 -147q137 0 285 74l143 809h168l-137 -766q-14 -84 -14 -201v-37h-156zM504 1145l-58 90l410 319l80 -129z" />
<glyph unicode="&#xfb;" horiz-adv-x="1097" d="M731 0l-6 80q-164 -109 -336 -109q-133 0 -212 70t-79 201q0 49 17 141l108 621h168l-110 -619q-12 -78 -13 -117q0 -147 174 -147q137 0 285 74l143 809h168l-137 -766q-14 -84 -14 -201v-37h-156zM776 1509l185 -301l-62 -61l-211 219l-287 -217l-59 59l293 301h141z " />
<glyph unicode="&#xfc;" horiz-adv-x="1097" d="M731 0l-6 80q-164 -109 -336 -109q-133 0 -212 70t-79 201q0 49 17 141l108 621h168l-110 -619q-12 -78 -13 -117q0 -147 174 -147q137 0 285 74l143 809h168l-137 -766q-14 -84 -14 -201v-37h-156zM502 1466h8q86 0 86 -67q0 -86 -39 -125q-29 -29 -86 -29h-8 q-86 0 -86 68q0 86 39 125q29 28 86 28zM881 1466h8q86 0 86 -67q0 -86 -39 -125q-29 -29 -86 -29h-8q-86 0 -86 68q0 86 39 125q29 28 86 28z" />
<glyph unicode="&#xfd;" horiz-adv-x="1097" d="M592 -274q63 68 90 213l23 127q-156 -94 -316 -95q-133 0 -212 70t-79 201q0 49 17 141l108 621h168l-110 -619q-12 -78 -13 -117q0 -147 174 -147q137 0 285 74l143 809h168l-190 -1082q-35 -195 -129 -295q-111 -117 -338 -116q-117 0 -213 26l8 133q106 -18 191 -18 q157 0 225 74zM512 1145l-57 90l409 319l80 -129z" />
<glyph unicode="&#xfe;" horiz-adv-x="1081" d="M487 1464l-90 -518q143 86 289 86q152 0 235 -111.5t83 -287.5q0 -137 -44.5 -273.5t-130.5 -232.5q-135 -156 -346 -156q-133 0 -245 78l-91 -510h-167l339 1925h168zM627 887q-133 0 -256 -80l-111 -631q102 -61 219 -61q129 0 219 100q131 150 131 414q1 258 -202 258 z" />
<glyph unicode="&#xff;" horiz-adv-x="1097" d="M592 -274q63 68 90 213l23 127q-156 -94 -316 -95q-133 0 -212 70t-79 201q0 49 17 141l108 621h168l-110 -619q-12 -78 -13 -117q0 -147 174 -147q137 0 285 74l143 809h168l-190 -1082q-35 -195 -129 -295q-111 -117 -338 -116q-117 0 -213 26l8 133q106 -18 191 -18 q157 0 225 74zM510 1466h8q86 0 86 -67q0 -86 -39 -125q-29 -29 -86 -29h-8q-86 0 -86 68q0 86 39 125q29 28 86 28zM889 1466h8q86 0 86 -67q0 -86 -39 -125q-29 -29 -86 -29h-8q-86 0 -86 68q0 86 39 125q29 28 86 28z" />
<glyph unicode="&#x152;" horiz-adv-x="1810" d="M1116 635l-88 -492h623l-27 -143h-897q-332 0 -489 172q-131 145 -132 383q0 184 71 362.5t188 290.5q199 193 624 193h866l-40 -144h-588l-84 -473h479l-27 -149h-479zM788 139h60l199 1123h-72q-315 0 -473 -148q-100 -92 -153.5 -242.5t-53.5 -314.5q0 -193 100 -299 q112 -119 393 -119z" />
<glyph unicode="&#x153;" horiz-adv-x="1757" d="M1604 444h-615q-2 -20 -2 -57q0 -137 70 -205q74 -70 243 -69q121 0 256 30l-10 -133q-160 -39 -289 -39q-297 0 -401 195q-68 -92 -173 -143.5t-226 -51.5q-182 0 -283.5 111t-101.5 293q0 319 184 508q145 150 360 149q240 0 336 -188l37 43q135 145 328 145 q170 0 264 -104q94 -106 94 -289q0 -70 -12 -139q-6 -35 -17 -45.5t-42 -10.5zM825 616q0 121 -56 196t-167 75q-141 0 -231 -111q-123 -147 -123 -389q0 -121 56 -195.5t167 -74.5q141 0 231 110q123 147 123 389zM1116 803q-80 -86 -112 -234h499q6 41 6 76q0 117 -53 182 q-53 63 -147 64q-111 0 -193 -88z" />
<glyph unicode="&#x178;" horiz-adv-x="1155" d="M561 0h-178l100 561l-309 840h184l240 -678l483 678h193l-612 -832zM590 1843h8q86 0 86 -67q0 -86 -39 -125q-29 -29 -86 -29h-8q-86 0 -86 68q0 86 39 125q29 28 86 28zM969 1843h8q86 0 86 -67q0 -86 -39 -125q-29 -29 -86 -29h-8q-86 0 -86 68q0 86 39 125 q29 28 86 28z" />
<glyph unicode="&#x2c6;" horiz-adv-x="823" d="M537 1509l184 -301l-62 -61l-210 219l-287 -217l-60 59l293 301h142z" />
<glyph unicode="&#x2dc;" horiz-adv-x="823" d="M174 1231l-90 16q18 106 72.5 159.5t132.5 53.5q55 0 143 -40t121 -40q68 0 94 82l90 -16q-18 -106 -72.5 -159.5t-132.5 -53.5q-55 0 -143 40t-121 40q-67 0 -94 -82z" />
<glyph unicode="&#x2000;" horiz-adv-x="999" />
<glyph unicode="&#x2001;" horiz-adv-x="1998" />
<glyph unicode="&#x2002;" horiz-adv-x="999" />
<glyph unicode="&#x2003;" horiz-adv-x="1998" />
<glyph unicode="&#x2004;" horiz-adv-x="665" />
<glyph unicode="&#x2005;" horiz-adv-x="499" />
<glyph unicode="&#x2006;" horiz-adv-x="331" />
<glyph unicode="&#x2007;" horiz-adv-x="331" />
<glyph unicode="&#x2008;" horiz-adv-x="249" />
<glyph unicode="&#x2009;" horiz-adv-x="399" />
<glyph unicode="&#x200a;" horiz-adv-x="110" />
<glyph unicode="&#x2010;" horiz-adv-x="645" d="M524 459h-405l26 145h406z" />
<glyph unicode="&#x2011;" horiz-adv-x="645" d="M524 459h-405l26 145h406z" />
<glyph unicode="&#x2012;" horiz-adv-x="645" d="M524 459h-405l26 145h406z" />
<glyph unicode="&#x2013;" horiz-adv-x="1024" d="M1006 459h-1018l26 145h1018z" />
<glyph unicode="&#x2014;" horiz-adv-x="2048" d="M2030 459h-2042l26 145h2042z" />
<glyph unicode="&#x2018;" horiz-adv-x="438" d="M225 1020q0 29 6 59q33 172 107 348h78l-45 -256q76 -18 75 -88q0 -76 -38 -114q-31 -31 -84 -31h-11q-88 0 -88 82z" />
<glyph unicode="&#x2019;" horiz-adv-x="438" d="M406 1346q0 -29 -7 -60q-33 -172 -106 -348h-78l45 256q-76 18 -76 88q0 76 39 115q31 31 84 30h10q89 1 89 -81z" />
<glyph unicode="&#x201a;" horiz-adv-x="438" d="M217 94q0 -29 -6 -59q-33 -172 -107 -348h-77l45 256q-76 18 -76 88q0 76 39 114q31 31 84 31h10q88 0 88 -82z" />
<glyph unicode="&#x201c;" horiz-adv-x="772" d="M559 1020q0 29 6 59q33 172 107 348h78l-45 -256q76 -18 75 -88q0 -76 -39 -114q-31 -31 -84 -31h-10q-88 0 -88 82zM225 1020q0 29 6 59q33 172 107 348h78l-45 -256q76 -18 75 -88q0 -76 -38 -114q-31 -31 -84 -31h-11q-88 0 -88 82z" />
<glyph unicode="&#x201d;" horiz-adv-x="772" d="M406 1346q0 -29 -7 -60q-33 -172 -106 -348h-78l45 256q-76 18 -76 88q0 76 39 115q31 31 84 30h10q89 1 89 -81zM739 1346q0 -29 -6 -60q-33 -172 -106 -348h-78l45 256q-76 18 -76 88q0 76 39 115q31 31 84 30h10q88 1 88 -81z" />
<glyph unicode="&#x201e;" horiz-adv-x="772" d="M217 94q0 -29 -6 -59q-33 -172 -107 -348h-77l45 256q-76 18 -76 88q0 76 39 114q31 31 84 31h10q88 0 88 -82zM551 94q0 -29 -6 -59q-33 -172 -107 -348h-78l46 256q-76 18 -76 88q0 76 39 114q31 31 84 31h10q88 0 88 -82z" />
<glyph unicode="&#x2022;" horiz-adv-x="724" d="M365 438h-35q-203 0 -197 178q0 184 90 275q68 68 197 67h35q100 0 148 -42t48 -136q0 -184 -90 -274q-67 -68 -196 -68z" />
<glyph unicode="&#x2026;" horiz-adv-x="1363" d="M172 201h14q84 0 84 -76q0 -84 -39 -123q-31 -31 -84 -31h-14q-84 0 -84 76q0 84 39 123q31 31 84 31zM627 201h14q84 0 84 -76q0 -84 -39 -123q-31 -31 -84 -31h-14q-84 0 -84 76q0 84 39 123q31 31 84 31zM1081 201h15q84 0 84 -76q0 -84 -39 -123q-31 -31 -84 -31h-15 q-84 0 -84 76q0 84 39 123q31 31 84 31z" />
<glyph unicode="&#x202f;" horiz-adv-x="399" />
<glyph unicode="&#x2039;" horiz-adv-x="671" d="M295 537l176 -359l-90 -65l-211 307q-43 59 -43 100q0 53 82 133l317 308l76 -76z" />
<glyph unicode="&#x203a;" horiz-adv-x="671" d="M373 537l-176 358l90 66l211 -308q43 -59 43 -100q0 -53 -82 -133l-318 -307l-75 75z" />
<glyph unicode="&#x205f;" horiz-adv-x="499" />
<glyph unicode="&#x20ac;" horiz-adv-x="1107" d="M807 494h-391q-6 -188 66.5 -285.5t248.5 -97.5q109 0 283 39l-21 -132q-150 -47 -295 -47q-244 0 -354.5 138.5t-99.5 384.5h-170l16 94l162 18q4 37 18 125h-155l16 94l168 19q78 281 249 432t417 151q127 0 243 -38l-24 -129q-125 29 -217 28q-188 0 -315.5 -123 t-182.5 -317h399l-20 -117h-408q-14 -88 -18 -121h405z" />
<glyph unicode="&#x2122;" horiz-adv-x="1361" d="M903 1401l129 -406l271 406h120l-114 -662h-121l72 422l-213 -323h-82l-101 327l-73 -426h-117l114 662h115zM346 1296h-194l18 105h524l-18 -105h-195l-96 -557h-135z" />
<glyph unicode="&#xe000;" horiz-adv-x="1004" d="M0 1005h1005v-1005h-1005v1005z" />
<glyph unicode="&#xfb01;" horiz-adv-x="1077" d="M272 1001l19 103q35 201 127 291q109 104 336 104q96 0 217 -22l-23 -129q-100 12 -192 12q-150 0 -217 -68q-57 -53 -80 -188l-17 -100h572l-178 -1004h-168l155 877h-403l-236 -1338h-168l236 1338h-178l16 98z" />
<glyph unicode="&#xfb02;" horiz-adv-x="1079" d="M754 1499q180 0 346 -31l-258 -1468h-168l237 1350q-88 10 -155 10q-150 0 -217 -68q-57 -53 -80 -188l-17 -100h260l-22 -127h-260l-236 -1338h-168l236 1338h-178l16 98l182 26l19 103q35 201 127 291q109 104 336 104z" />
<glyph unicode="&#xfb03;" horiz-adv-x="1787" d="M1725 1004l-179 -1004h-168l179 1004h168zM1708 1407h13q82 0 81 -66q0 -82 -36 -118q-29 -29 -84 -29h-13q-82 0 -82 66q0 82 37 118q29 29 84 29zM1099 1004h281l-23 -125h-280l-236 -1340h-168l236 1340h-178l16 96l184 26l25 140q33 186 123 270q94 88 270 88 q96 0 191 -22l-21 -131q-102 12 -170 12q-104 0 -153.5 -45t-71.5 -170zM442 1004h281l-23 -125h-280l-236 -1340h-168l236 1340h-178l16 96l184 26l25 140q33 186 123 270q94 88 270 88q96 0 191 -22l-21 -131q-102 12 -170 12q-104 0 -153.5 -45t-71.5 -170z" />
<glyph unicode="&#xfb04;" horiz-adv-x="1783" d="M1634 1464h168l-258 -1464h-168zM1099 1004h281l-23 -125h-280l-236 -1340h-168l236 1340h-178l16 96l184 26l25 140q33 186 123 270q94 88 270 88q96 0 191 -22l-21 -131q-102 12 -170 12q-104 0 -153.5 -45t-71.5 -170zM442 1004h281l-23 -125h-280l-236 -1340h-168 l236 1340h-178l16 96l184 26l25 140q33 186 123 270q94 88 270 88q96 0 191 -22l-21 -131q-102 12 -170 12q-104 0 -153.5 -45t-71.5 -170z" />
<glyph horiz-adv-x="409" />
</font>
</defs>
</svg>
