<?xml version="1.0" standalone="no"?>
<!DOCTYPE svg PUBLIC "-//W3C//DTD SVG 1.1//EN" "http://www.w3.org/Graphics/SVG/1.1/DTD/svg11.dtd" >
<svg xmlns="http://www.w3.org/2000/svg">
<metadata>
This is a custom SVG webfont generated by Font Squirrel.
Copyright   : Copyright c 2009 by Fontsmith Ltd All rights reserved
Designer    : Phil Garnham Jason Smith
Foundry     : Fontsmith Ltd
Foundry URL : httpwwwfontsmithcom
</metadata>
<defs>
<font id="webfontV8IQNETb" horiz-adv-x="1228" >
<font-face units-per-em="2048" ascent="1536" descent="-512" />
<missing-glyph horiz-adv-x="460" />
<glyph unicode=" "  horiz-adv-x="460" />
<glyph unicode="&#x09;" horiz-adv-x="460" />
<glyph unicode="&#xa0;" horiz-adv-x="460" />
<glyph unicode="!" horiz-adv-x="593" d="M455 137v-24q0 -141 -150 -142h-14q-150 0 -150 142v24q0 141 150 142h14q150 -1 150 -142zM401 438h-217l-45 963h307z" />
<glyph unicode="&#x22;" horiz-adv-x="976" d="M379 860h-217l-35 541h285zM817 860h-217l-35 541h285z" />
<glyph unicode="#" horiz-adv-x="1220" d="M866 418l-78 -418h-219l74 418h-184l-78 -418h-219l78 418h-131v186h163l35 193h-198v186h247l78 418h219l-78 -418h189l78 418h219l-78 -418h127v-186h-176l-33 -193h211v-186h-246zM494 604h186l35 193h-189z" />
<glyph unicode="$" d="M102 1018q0 180 111 281.5t301 121.5v217h186v-213q178 -10 312 -53v-242q-199 53 -381 54q-227 0 -228 -152q0 -55 40 -92t103.5 -58.5t139.5 -41t152.5 -50t140 -74.5t103.5 -125t40 -192q0 -184 -116 -295q-113 -106 -306 -127v-239h-186v235q-205 6 -391 70v246 q211 -74 424 -74q274 0 274 170q0 63 -53 104t-133 59.5t-173 50.5t-173 72t-133.5 129t-53.5 218z" />
<glyph unicode="%" horiz-adv-x="2045" d="M1522 1427l-748 -1456h-252l748 1456h252zM836 1001.5q0 -206.5 -93.5 -317.5t-275.5 -111q-365 0 -365 428q0 207 91.5 316.5t273.5 109.5t275.5 -109.5t93.5 -316zM596 1001q0 117 -28.5 174.5t-100.5 57.5t-99.5 -56.5t-27.5 -175t27.5 -176t99.5 -57.5t100.5 57 t28.5 176zM1944 397q0 -207 -92.5 -316.5t-274.5 -109.5t-274.5 109.5t-92.5 316.5q0 209 92.5 318.5t274.5 109.5t274.5 -109.5t92.5 -318.5zM1706 397q0 119 -28.5 176.5t-100.5 57.5q-74 0 -100.5 -56.5t-26.5 -177.5q0 -119 26.5 -175t100.5 -56q72 0 100.5 57t28.5 174 z" />
<glyph unicode="&#x26;" horiz-adv-x="1419" d="M1167 291l191 -201l-166 -166l-184 185q-176 -137 -437 -138q-223 0 -359 113t-136 301q0 127 73.5 228.5t221.5 158.5q-145 162 -146 318q0 152 102.5 244.5t270.5 92.5q162 0 259 -86t97 -231q0 -100 -65.5 -187t-183.5 -143l317 -336q31 45 59.5 126t36.5 143h203 q-8 -106 -52.5 -225t-101.5 -197zM623 201q133 0 235 63l-375 391q-125 -82 -125 -227q0 -102 70 -164.5t195 -62.5zM467 1106q0 -49 27.5 -94t101.5 -119q137 111 137 211q0 55 -34.5 88t-98.5 33q-61 0 -97 -33t-36 -86z" />
<glyph unicode="'" horiz-adv-x="538" d="M379 860h-217l-35 541h285z" />
<glyph unicode="(" horiz-adv-x="735" d="M84 532.5q0 321.5 125 579.5t369 420l135 -154q-307 -313 -307 -846q0 -530 307 -843l-135 -154q-244 162 -369 419t-125 578.5z" />
<glyph unicode=")" horiz-adv-x="735" d="M651 532.5q0 -321.5 -125 -578.5t-368 -419l-135 154q307 313 307 843.5t-307 843.5l135 154q244 -162 368.5 -419t124.5 -578.5z" />
<glyph unicode="*" horiz-adv-x="942" d="M471 852l-170 -260l-147 123l196 239l-293 82l74 181l264 -115l-22 299h190l-16 -299l264 115l74 -181l-293 -82l196 -239l-147 -123z" />
<glyph unicode="+" d="M997 567h-286v-286h-193v286h-287v193h287v287h193v-287h286v-193z" />
<glyph unicode="," horiz-adv-x="489" d="M86 125q0 154 150 154h14q150 0 149 -154v-55q0 -102 -14 -222t-31 -174h-147v291q-68 23 -94.5 58.5t-26.5 101.5z" />
<glyph unicode="-" horiz-adv-x="684" d="M590 410h-496v243h496v-243z" />
<glyph unicode="." horiz-adv-x="489" d="M401 137v-24q0 -141 -149 -142h-14q-150 0 -150 142v24q0 141 150 142h14q149 -1 149 -142z" />
<glyph unicode="/" horiz-adv-x="983" d="M930 1427l-617 -1456h-260l617 1456h260z" />
<glyph unicode="0" d="M383 698q0 -283 52 -387t179 -104t179.5 104.5t52.5 386.5q0 287 -52.5 400.5t-179.5 113.5t-179 -113.5t-52 -400.5zM614.5 -29q-284.5 0 -410.5 179.5t-126 548t126 548.5t410.5 180t410.5 -180t126 -548.5t-126 -548t-410.5 -179.5z" />
<glyph unicode="1" d="M784 209h201v-209h-731v209h238v989h-228v199q168 25 326 24q109 0 151.5 -30.5t42.5 -108.5v-1073z" />
<glyph unicode="2" d="M483 209h566v-209h-893q-8 23 -9 66q0 117 82 215l273 331q127 154 174 235t47 163q0 88 -55 135q-61 53 -213 53q-131 0 -275 -27v218q156 39 326 38q289 0 420 -131q100 -100 100 -272q0 -129 -65.5 -247t-233.5 -302z" />
<glyph unicode="3" d="M180 4v221q141 -25 281 -24q162 0 231 47q76 51 76 162q0 104 -70 153q-68 49 -272 49h-39v205h49q176 0 244 60q55 49 55 143q0 86 -47 127q-59 53 -221 53q-137 0 -274 -20v217q141 31 321 30q285 0 412 -127q96 -96 96 -258q0 -215 -186 -309q236 -86 235 -346 q0 -170 -98 -270q-139 -145 -455 -146q-186 0 -338 33z" />
<glyph unicode="4" d="M707 322h-617q-8 29 -8 71q0 94 43 213l291 795h282l-315 -860h324v333h292v-333h164v-219h-164v-322h-292v322z" />
<glyph unicode="5" d="M508 649h-285q-14 55 -10 158l25 594h766v-209h-515l-12 -315h74q274 0 404 -107.5t130 -331.5q0 -229 -130 -348t-414 -119q-182 0 -330 33v219q117 -23 258 -22q172 0 242.5 57t70.5 168q0 117 -57 170t-217 53z" />
<glyph unicode="6" d="M434 825q135 72 303 72q188 0 292 -113.5t104 -322.5q0 -236 -127 -363t-369 -127q-272 0 -391 167t-119 497q0 467 190 657q135 135 412 135q135 0 289 -26v-223q-119 20 -221 20q-201 0 -275 -74q-82 -82 -88 -299zM430 655v-77q0 -205 47 -294t166 -89q199 0 199 256 q0 131 -46 178t-161 47q-109 -1 -205 -21z" />
<glyph unicode="7" d="M1098 1317q0 -111 -33 -201l-393 -1116h-314l465 1192h-653v209h913q15 -23 15 -84z" />
<glyph unicode="8" d="M1116 385q0 -195 -134 -304.5t-373.5 -109.5t-367.5 105.5t-128 273.5q0 236 235 359q-100 63 -144 141t-44 184q0 178 125 285.5t327 107.5q205 0 323 -96t118 -258q0 -195 -201 -321q143 -72 203.5 -155t60.5 -212zM401 375q0 -82 55.5 -129t156 -47t156.5 46t56 117 q0 63 -43 109.5t-161 101.5l-91 41q-129 -112 -129 -239zM786 1047q0 72 -46 115.5t-130 43.5q-76 0 -126 -38t-50 -107q0 -61 43 -107.5t148 -95.5l30 -14q131 101 131 203z" />
<glyph unicode="9" d="M795 573q-135 -72 -303 -71q-188 0 -292 113.5t-104 322.5q0 236 127 362.5t369 126.5q272 0 391 -166.5t119 -496.5q0 -467 -191 -658q-135 -135 -411 -135q-135 0 -289 27v223q119 -20 221 -20q201 0 275 73q82 82 88 299zM799 743v78q0 205 -47 294t-166 89 q-199 0 -199 -256q0 -131 46 -178t161 -47q109 0 205 20z" />
<glyph unicode=":" horiz-adv-x="489" d="M401 137v-24q0 -141 -149 -142h-14q-150 0 -150 142v24q0 141 150 142h14q149 -1 149 -142zM401 711v-25q0 -141 -149 -141h-14q-150 0 -150 141v25q0 141 150 141h14q149 0 149 -141z" />
<glyph unicode=";" horiz-adv-x="489" d="M401 711v-25q0 -141 -149 -141h-14q-150 0 -150 141v25q0 141 150 141h14q149 0 149 -141zM88 125q0 154 150 154h14q150 0 149 -154v-55q0 -102 -14 -222t-31 -174h-147v291q-68 23 -94.5 58.5t-26.5 101.5z" />
<glyph unicode="&#x3c;" d="M997 190l-766 379v189l766 379v-217l-551 -254l551 -246v-230z" />
<glyph unicode="=" d="M997 764h-766v192h766v-192zM231 563h766v-192h-766v192z" />
<glyph unicode="&#x3e;" d="M997 569l-766 -379v230l551 246l-551 254v217l766 -379v-189z" />
<glyph unicode="?" horiz-adv-x="890" d="M299 440q-6 35 -6 64q0 20 3 40.5t13 45.5l17 39q6 14 24 44l24 38q5 8 27.5 40.5t24.5 34.5q100 139 100 240q0 78 -41 119q-49 45 -159 45q-94 0 -213 -37l-39 213q160 61 325 61q217 0 328 -94t111 -270q0 -86 -30 -156.5t-75 -122.5l-91 -100q-46 -49 -86 -111.5 t-54 -132.5h-203zM559 137v-24q0 -141 -149 -142h-15q-150 0 -149 142v24q0 141 149 142h15q149 -1 149 -142z" />
<glyph unicode="@" horiz-adv-x="1617" d="M743 305q-113 0 -179 64.5t-66 173.5q0 131 73.5 191.5t243.5 60.5h117v8q0 63 -32 83.5t-109 20.5q-115 0 -209 -22l-11 172q141 31 265 30q170 0 241 -86q55 -63 56 -196v-326q18 -6 43 -6q162 0 161 252q0 244 -130 377t-378 133q-250 0 -389 -139.5t-139 -390.5 q0 -281 150 -412q152 -139 481 -139q164 0 323 30l11 -176q-168 -37 -379 -37q-389 0 -588 174q-221 195 -221 549q0 336 201.5 534.5t554.5 198.5q332 0 519 -186t187 -475q0 -209 -94 -337t-287 -128q-131 0 -196 76h-5q-90 -72 -215 -72zM932 502v139h-111 q-63 0 -88.5 -19.5t-25.5 -64.5q0 -78 102 -78q60 0 123 23z" />
<glyph unicode="A" horiz-adv-x="1347" d="M995 0l-116 352h-455l-109 -352h-305l469 1401h352l506 -1401h-342zM643 1051l-145 -467h303l-154 467h-4z" />
<glyph unicode="B" horiz-adv-x="1292" d="M649 0h-497v1401h456q285 0 404 -105q98 -86 98 -239q0 -205 -197 -305q133 -18 215 -109.5t82 -226.5q0 -197 -116 -301q-130 -115 -445 -115zM471 612v-381h131q180 0 232 52q45 45 45 127q0 111 -54 155q-55 47 -223 47h-131zM471 1169v-325h109q127 0 172 43 q41 41 41 125q0 78 -39 116q-41 41 -166 41h-117z" />
<glyph unicode="C" horiz-adv-x="1206" d="M424 702q0 -270 100 -383q88 -100 307 -100q115 0 259 29l32 -234q-147 -43 -352 -43q-348 0 -508 170q-170 182 -170 553q0 344 166 538.5t512 194.5q211 0 367 -63l-41 -234q-174 49 -301 50q-211 0 -291 -123.5t-80 -354.5z" />
<glyph unicode="D" horiz-adv-x="1404" d="M627 0h-475v1401h432q205 0 339 -36t220 -122q170 -166 170 -536q0 -373 -170 -549q-156 -158 -516 -158zM471 1167v-934h135q217 0 301 125q74 109 74 349q0 147 -22.5 229t-75.5 139q-86 92 -314 92h-98z" />
<glyph unicode="E" horiz-adv-x="1193" d="M471 590v-359h637v-231h-956v1401h946l-25 -232h-602v-340h481v-239h-481z" />
<glyph unicode="F" horiz-adv-x="1132" d="M152 1401h923l-24 -232h-580v-340h459v-239h-459v-590h-319v1401z" />
<glyph unicode="G" horiz-adv-x="1374" d="M1155 1126q-180 51 -332 52q-207 0 -303 -119t-96 -354q0 -258 82 -373q80 -113 270 -113q84 0 170 14v295h-196v230h514v-715q-233 -72 -500 -72q-360 0 -516 184.5t-156 536.5q0 340 180.5 537.5t528.5 197.5q240 0 395 -67z" />
<glyph unicode="H" horiz-adv-x="1435" d="M471 829h494v572h319v-1401h-319v590h-494v-590h-319v1401h319v-572z" />
<glyph unicode="I" horiz-adv-x="630" d="M156 0v1401h319v-1401h-319z" />
<glyph unicode="J" horiz-adv-x="847" d="M63 -10l-22 243q84 -16 166 -16q102 0 140 39t38 154v991h320v-1000q0 -240 -101 -340q-92 -90 -323 -90q-89 1 -218 19z" />
<glyph unicode="K" horiz-adv-x="1335" d="M809 834l510 -834h-379l-338 596l-131 -150v-446h-319v1401h319v-586l469 586h365z" />
<glyph unicode="L" horiz-adv-x="1128" d="M1092 0h-940v1401h319v-1170h621v-231z" />
<glyph unicode="M" horiz-adv-x="1699" d="M403 1401l443 -783l457 783h245v-1401h-293v807l-290 -488h-246l-299 496v-815h-268v1401h251z" />
<glyph unicode="N" horiz-adv-x="1482" d="M152 0v1401h235l664 -897v897h280v-1401h-256l-643 850v-850h-280z" />
<glyph unicode="O" horiz-adv-x="1425" d="M1333 698q0 -727 -620.5 -727t-620.5 727q0 729 620.5 729t620.5 -729zM1001 698q0 254 -67.5 367t-221 113t-221 -113t-67.5 -367t66.5 -365.5t222 -111.5t222 111.5t66.5 365.5z" />
<glyph unicode="P" horiz-adv-x="1267" d="M471 1169v-446h158q131 0 186 53q55 55 55 178q0 115 -53 166q-55 49 -196 49h-150zM471 483v-483h-319v1401h481q326 0 448 -115q113 -104 113 -327.5t-104 -340.5q-121 -135 -394 -135h-225z" />
<glyph unicode="Q" horiz-adv-x="1429" d="M1333 698q0 -432 -217 -606q223 -2 350 -51q-14 -57 -50 -152.5t-60 -128.5l-416 177q-53 23 -87 28.5t-114 5.5h-26q-621 0 -621 727q0 729 620.5 729t620.5 -729zM1001 698q0 254 -67.5 367t-221 113t-221 -113t-67.5 -367t66.5 -365.5t222 -111.5t222 111.5 t66.5 365.5z" />
<glyph unicode="R" horiz-adv-x="1327" d="M471 508v-508h-319v1401h481q174 0 278.5 -24.5t171.5 -88.5q117 -111 117 -321q0 -145 -60.5 -253t-176.5 -163l303 -551h-361l-258 508h-176zM471 1169v-430h141q147 0 205 49q59 51 60 175q0 106 -50 155q-53 51 -213 51h-143z" />
<glyph unicode="S" horiz-adv-x="1208" d="M98 1018q0 205 143.5 307t379.5 102q223 0 391 -57l-49 -237q-184 49 -336 49q-227 0 -228 -150q0 -55 39 -92t102.5 -58.5t140.5 -41t152.5 -50t139 -74.5t102.5 -125t39 -192q0 -184 -117 -295q-141 -133 -432 -133q-258 0 -465 72l50 244q199 -70 387 -70 q143 0 209.5 41t66.5 137q0 53 -39 88t-102.5 54.5t-140 38t-152.5 49t-139.5 74.5t-102.5 125t-39 194z" />
<glyph unicode="T" horiz-adv-x="1245" d="M463 1169h-434v232h1202l-25 -232h-424v-1169h-319v1169z" />
<glyph unicode="U" horiz-adv-x="1421" d="M999 512v889h283v-873q0 -289 -137 -417q-145 -139 -430 -140q-303 0 -441 135q-135 133 -135 408v887h318v-887q0 -164 67 -231q66 -68 205 -68t203 66q67 67 67 231z" />
<glyph unicode="V" horiz-adv-x="1335" d="M25 1401h342l327 -1016l305 1016h312l-465 -1401h-334z" />
<glyph unicode="W" horiz-adv-x="1972" d="M1135 1401l274 -1010l250 1010h289l-379 -1401h-348l-230 817l-211 -817h-346l-409 1401h337l261 -1012l251 1012h261z" />
<glyph unicode="X" horiz-adv-x="1300" d="M375 0h-346l465 698l-428 703h333l279 -463l254 463h340l-459 -686l447 -715h-355l-278 475z" />
<glyph unicode="Y" horiz-adv-x="1355" d="M508 571l-483 830h360l307 -565l320 565h319l-504 -832v-569h-319v571z" />
<glyph unicode="Z" horiz-adv-x="1220" d="M1147 0h-1077v188l680 977h-660v236h1053v-197l-670 -968h674v-236z" />
<glyph unicode="[" horiz-adv-x="761" d="M717 -424h-518v1913h518v-205h-217v-1503h217v-205z" />
<glyph unicode="\" horiz-adv-x="983" d="M670 -29l-617 1456h260l617 -1456h-260z" />
<glyph unicode="]" horiz-adv-x="761" d="M563 -424h-518v205h217v1503h-217v205h518v-1913z" />
<glyph unicode="^" d="M1055 776h-242l-199 408l-204 -408h-236l358 627h162z" />
<glyph unicode="_" horiz-adv-x="880" d="M881 -256h-881v199h881v-199z" />
<glyph unicode="`" horiz-adv-x="876" d="M696 1272l-102 -127l-416 280l144 195z" />
<glyph unicode="a" horiz-adv-x="1087" d="M678 225v207h-156q-104 0 -139 -35q-29 -29 -29 -84q0 -119 144 -118q80 -1 180 30zM739 0l-24 61q-139 -90 -301 -90q-168 0 -260.5 90.5t-92.5 239.5q0 143 89 227q98 92 368 93h160v32q0 80 -37 113q-47 41 -170 41q-152 0 -281 -27l-14 215q184 37 356 37 q262 0 361 -114q78 -90 78 -267v-651h-232z" />
<glyph unicode="b" horiz-adv-x="1146" d="M416 1464v-499q115 68 276 67q383 0 383 -526q0 -289 -112 -418q-102 -117 -285 -117q-160 0 -299 92l-14 -63h-242v1464h293zM416 770v-520q86 -49 174 -49q100 0 139 66.5t39 234.5q0 172 -41 233.5t-137 61.5q-106 0 -174 -27z" />
<glyph unicode="c" horiz-adv-x="948" d="M621 -29q-338 0 -467 201q-82 125 -82 307q0 262 129 404q139 150 401 149q162 0 295 -37l-18 -217q-109 29 -232 29q-135 0 -203 -72q-68 -74 -67 -233q0 -158 69.5 -232.5t225.5 -74.5q102 0 209 20l22 -211q-143 -33 -282 -33z" />
<glyph unicode="d" horiz-adv-x="1150" d="M72 500q0 248 107.5 390t289.5 142q145 0 266 -74v506h293v-1464h-254l-6 72q-150 -100 -317 -101q-150 0 -240 86q-139 138 -139 443zM735 236v542q-72 23 -139 23q-109 0 -163 -68.5t-54 -240.5q0 -166 41 -228.5t141 -62.5q86 0 174 35z" />
<glyph unicode="e" horiz-adv-x="1081" d="M995 412h-616q6 -123 79.5 -170t229.5 -47q121 0 250 24l23 -213q-182 -35 -338 -35q-281 0 -416 129t-135 400q0 262 127 397t360 135q461 0 461 -506v-92q0 -22 -25 -22zM379 602h354q0 98 -45 153.5t-131 55.5q-168 0 -178 -209z" />
<glyph unicode="f" horiz-adv-x="735" d="M494 1004h237v-191h-237v-813h-293v813h-172v158l172 30v140q0 180 84 266q88 92 299 92q104 0 213 -22v-209q-82 12 -138 12q-100 0 -137 -37q-29 -29 -28 -119v-120z" />
<glyph unicode="g" horiz-adv-x="1107" d="M555 260q-76 0 -131 8q-27 -47 -27 -80q0 -27 29 -26h197q274 0 378 -107q74 -76 74 -213q0 -332 -510 -331h-16q-258 0 -376 64.5t-118 199.5q0 121 119 182q-51 43 -51 131q0 133 133 244q-154 100 -154 315q0 385 453 385q49 0 98 -6l99 250q135 -33 227 -102 l-145 -203q172 -96 172 -324q0 -387 -451 -387zM741 647q0 176 -186 176q-188 0 -188 -176q0 -90 45 -134t143 -44q186 0 186 178zM637 -82h-293q-29 -31 -29 -76q0 -57 53.5 -83.5t188.5 -26.5h31q225 0 225 98q0 49 -38 68.5t-138 19.5z" />
<glyph unicode="h" horiz-adv-x="1173" d="M123 1464h293v-514q145 82 313 82q164 0 242 -78q86 -84 86 -264v-690h-293v655q0 70 -31 101q-35 33 -127 32q-106 0 -190 -32v-756h-293v1464z" />
<glyph unicode="i" horiz-adv-x="550" d="M422 1004v-1004h-293v1004h293zM436 1337v-26q0 -139 -153 -140h-15q-154 0 -153 140v26q0 141 153 142h15q153 -1 153 -142z" />
<glyph unicode="j" horiz-adv-x="550" d="M-154 -481l-28 219q53 -4 94 -4q123 0 170 47q47 45 47 162v1061h293v-957q0 -279 -101.5 -405.5t-363.5 -126.5q-41 0 -111 4zM436 1337v-26q0 -139 -153 -140h-15q-154 0 -153 140v26q0 141 153 142h15q153 -1 153 -142z" />
<glyph unicode="k" horiz-adv-x="1114" d="M416 0h-293v1464h293v-843l313 383h336l-354 -402l391 -602h-330l-252 399l-104 -131v-268z" />
<glyph unicode="l" horiz-adv-x="550" d="M129 1464h293v-1464h-293v1464z" />
<glyph unicode="m" horiz-adv-x="1769" d="M123 1004h254l6 -72q152 100 326 100q190 0 266 -106q158 106 350 106q164 0 242 -78q86 -84 86 -264v-690h-293v655q0 70 -31 101q-35 33 -127 32q-78 0 -170 -26q4 -45 4 -72v-690h-293v655q0 70 -30 101q-35 33 -123 32q-86 0 -174 -32v-756h-293v1004z" />
<glyph unicode="n" horiz-adv-x="1173" d="M123 1004h254l6 -72q156 100 346 100q164 0 242 -78q86 -84 86 -264v-690h-293v655q0 70 -31 101q-35 33 -127 32q-106 0 -190 -32v-756h-293v1004z" />
<glyph unicode="o" horiz-adv-x="1163" d="M1092 502q0 -250 -128 -390.5t-382 -140.5t-382 140.5t-128 390.5t128 390t382 140t382 -140t128 -390zM786 501.5q0 157.5 -48 232.5t-156.5 75t-156.5 -75t-48 -232.5t48 -232t156.5 -74.5t156.5 74.5t48 232z" />
<glyph unicode="p" horiz-adv-x="1146" d="M416 -461h-293v1465h254l8 -74q154 102 315 102q150 0 240 -86q135 -133 135 -438q0 -537 -391 -537q-150 0 -268 74v-506zM416 768v-537q66 -29 182 -28q94 0 132 65.5t38 243.5q0 160 -39 221.5t-139 61.5q-82 0 -174 -27z" />
<glyph unicode="q" horiz-adv-x="1148" d="M733 -479v518q-121 -68 -274 -68q-387 0 -387 527q0 279 127 417q106 117 282 117q150 0 289 -92l14 64h242v-1446zM733 233v537q-82 29 -155 29q-111 0 -155 -73t-44 -228q0 -172 43 -234.5t141 -62.5q86 -1 170 32z" />
<glyph unicode="r" horiz-adv-x="778" d="M123 1004h254l10 -82q55 51 142 79.5t165 28.5q27 0 51 -4v-256q-66 8 -129 8q-92 0 -200 -24v-754h-293v1004z" />
<glyph unicode="s" horiz-adv-x="972" d="M512 1032q172 0 334 -55l-23 -215q-164 45 -309 45q-162 0 -162 -82q0 -39 41 -61.5t101.5 -30.5t132 -27.5t132 -47.5t101.5 -93.5t41 -163.5q0 -158 -114.5 -244t-337.5 -86q-199 0 -353 56l23 217q145 -47 323 -47q180 0 181 92q0 41 -41 64.5t-101.5 30.5t-131 25.5 t-131 45t-101.5 91t-41 163.5q0 147 109.5 235t326.5 88z" />
<glyph unicode="t" horiz-adv-x="821" d="M16 813v160l170 31v223q141 43 293 43v-266h260v-191h-260v-469q0 -88 28 -121t114 -33q37 0 141 13l10 -207q-113 -25 -256 -25q-182 0 -256 80t-74 252v510h-170z" />
<glyph unicode="u" horiz-adv-x="1165" d="M1042 0h-254l-8 68q-154 -96 -336 -97q-164 0 -241 78q-86 84 -86 264v691h293v-650q0 -76 30 -106q35 -33 127 -33q96 0 183 29v760h292v-1004z" />
<glyph unicode="v" horiz-adv-x="1085" d="M379 0l-359 1004h316l223 -697l213 697h293l-346 -1004h-340z" />
<glyph unicode="w" horiz-adv-x="1619" d="M971 0l-160 532l-158 -532h-338l-295 1004h310l178 -715l178 715h264l193 -715l168 715h288l-288 -1004h-340z" />
<glyph unicode="x" horiz-adv-x="1089" d="M354 1004l217 -304l164 304h320l-346 -496l360 -508h-342l-209 301l-166 -301h-325l356 494l-363 510h334z" />
<glyph unicode="y" horiz-adv-x="1169" d="M438 -18q-156 0 -233 77q-88 88 -88 254v691h293v-650q0 -70 30 -100q35 -33 125 -33q94 0 189 37v746h293v-961q0 -279 -101.5 -405.5t-363.5 -126.5q-133 0 -256 26l-21 217q125 -23 230 -22q123 0 170 47q49 47 49 162v122q-146 -81 -316 -81z" />
<glyph unicode="z" horiz-adv-x="905" d="M872 0h-835v166l467 651h-455v187h799v-170l-465 -648h489v-186z" />
<glyph unicode="{" horiz-adv-x="804" d="M592 213v-317q0 -72 24.5 -93.5t96.5 -21.5h22v-205h-123q-172 0 -246.5 80t-74.5 264v291q0 113 -54.5 159t-183.5 58v213q129 12 183.5 58t54.5 159v287q0 184 74.5 264t246.5 80h123v-205h-22q-72 0 -96.5 -21.5t-24.5 -93.5v-313q0 -129 -51.5 -205t-167.5 -116 q117 -41 168 -117t51 -205z" />
<glyph unicode="|" horiz-adv-x="516" d="M385 -518h-254v2040h254v-2040z" />
<glyph unicode="}" horiz-adv-x="804" d="M213 -104v317q0 129 51 205t168 117q-117 41 -168 116.5t-51 204.5v313q0 72 -24.5 93.5t-96.5 21.5h-22v205h123q172 0 246.5 -80t74.5 -264v-287q0 -113 54.5 -159t183.5 -58v-213q-129 -12 -183.5 -58t-54.5 -159v-291q0 -184 -74.5 -264t-246.5 -80h-123v205h22 q72 0 96.5 21.5t24.5 93.5z" />
<glyph unicode="~" d="M893 920l172 -23q0 -297 -258 -297q-76 0 -199 51t-170 51q-78 0 -102 -114l-172 26q0 293 258 293q74 0 198.5 -50t170.5 -50q75 0 102 113z" />
<glyph unicode="&#xa1;" horiz-adv-x="593" d="M139 866v25q0 141 150 141h14q150 0 150 -141v-25q0 -141 -150 -141h-14q-150 0 -150 141zM193 565h217l45 -962h-308z" />
<glyph unicode="&#xa2;" d="M600 -262v242q-240 33 -340 192q-82 125 -82 307q0 262 129 404q106 113 293 141v242h186v-236q119 -6 218 -33v-223q-139 33 -250 33q-135 0 -203 -72q-68 -74 -68 -233q0 -158 70 -233.5t225 -75.5q111 0 232 22v-211q-123 -29 -224 -31v-235h-186z" />
<glyph unicode="&#xa3;" d="M899 838v-183h-295q8 -90 8 -127q0 -180 -137 -315h668v-213h-946q-10 45 -11 117q0 82 68 195.5t68 205.5q0 43 -13 137h-196v170l170 11q-12 82 -13 178q0 184 99 289q119 125 407 124q158 0 320 -36v-222q-162 29 -277 29q-145 0 -203 -51q-49 -43 -49 -146 q0 -72 11 -163h321z" />
<glyph unicode="&#xa4;" d="M1030 698.5q0 -120.5 -49 -209.5l143 -141l-147 -149l-152 153q-88 -43 -210.5 -43t-211.5 43l-151 -153l-148 149l144 141q-49 88 -49 209t49 209l-144 142l148 149l151 -154q88 43 211 43t211 -43l152 154l147 -149l-143 -142q49 -88 49 -208.5zM766 698.5 q0 182.5 -151.5 182.5t-151.5 -182.5t151.5 -182.5t151.5 182.5z" />
<glyph unicode="&#xa5;" d="M197 449h258v77h-258v168h192l-377 707h344l267 -565l278 565h316l-388 -707h189v-168h-258v-77h258v-168h-258v-281h-305v281h-258v168z" />
<glyph unicode="&#xa6;" horiz-adv-x="516" d="M385 731h-254v791h254v-791zM385 -518h-254v790h254v-790z" />
<glyph unicode="&#xa7;" horiz-adv-x="1226" d="M469 793q-27 -25 -27 -64q0 -43 30 -64.5t110 -35.5l170 -29q33 20 32 68q0 74 -129 94zM582 178q109 0 153.5 20.5t44.5 71.5q0 43 -29.5 63.5t-95.5 31.5l-178 30q-166 27 -233.5 100.5t-67.5 204.5q0 117 68 195q-68 76 -68 203q0 137 90 223q113 106 365 106 q174 0 317 -49l-41 -198q-158 41 -276 41q-102 0 -143.5 -22.5t-41.5 -72.5q0 -43 28 -66.5t108 -35.5l174 -29q154 -25 224.5 -94.5t70.5 -204.5q0 -115 -70 -196q70 -80 70 -201q0 -158 -114 -243t-333 -85q-213 0 -383 60l41 205q160 -58 320 -58z" />
<glyph unicode="&#xa8;" horiz-adv-x="876" d="M369 1362v-23q0 -131 -140 -131h-12q-137 0 -137 131v23q0 70 33.5 100.5t103.5 30.5h12q140 0 140 -131zM795 1362v-23q0 -131 -138 -131h-12q-139 0 -139 131v23q0 131 139 131h12q70 0 104 -30.5t34 -100.5z" />
<glyph unicode="&#xa9;" horiz-adv-x="1617" d="M1530 700q0 -344 -201 -536.5t-520.5 -192.5t-520 192.5t-200.5 536.5t200.5 535.5t520 191.5t520.5 -191.5t201 -535.5zM1321 700.5q0 262.5 -131 403.5t-381 141t-381 -141t-131 -403.5t131 -404.5t381 -142t381 142t131 404.5zM868 479q63 0 131 10l15 -127 q-74 -18 -164 -18q-180 0 -260 86q-84 90 -84 275q0 362 344 362q98 0 172 -35l-21 -123q-84 23 -147 23q-90 0 -129 -50.5t-39 -176.5q0 -135 47 -185q41 -41 135 -41z" />
<glyph unicode="&#xaa;" horiz-adv-x="847" d="M516 877v129h-108q-57 0 -79 -15.5t-22 -54.5q0 -74 94 -74q58 1 115 15zM102 926q0 119 75 172t235 53h104v23q0 53 -26.5 71.5t-110.5 18.5q-111 0 -195 -19l-10 160q119 25 252 25q172 0 238 -64q61 -59 61 -184v-467h-166l-18 41q-88 -59 -197 -60q-106 0 -174 60.5 t-68 169.5z" />
<glyph unicode="&#xab;" horiz-adv-x="1165" d="M92 534.5q0 59.5 74 137.5l303 329l119 -114l-238 -352l238 -353l-119 -114l-303 329q-74 78 -74 137.5zM559 534.5q0 59.5 74 137.5l303 329l119 -114l-238 -352l238 -353l-119 -114l-303 329q-74 78 -74 137.5z" />
<glyph unicode="&#xac;" d="M807 371v393h-574v192h766v-585h-192z" />
<glyph unicode="&#xad;" horiz-adv-x="684" d="M590 410h-496v243h496v-243z" />
<glyph unicode="&#xae;" horiz-adv-x="1617" d="M745 608v-248h-170v699h236q147 0 215 -48t68 -171q0 -152 -115 -201l149 -279h-190l-127 248h-66zM745 936v-207h70q106 0 107 105q0 61 -25 81.5t-88 20.5h-64zM1530 700q0 -344 -201 -536.5t-520.5 -192.5t-520 192.5t-200.5 536.5t200.5 535.5t520 191.5 t520.5 -191.5t201 -535.5zM1321 700.5q0 262.5 -131 403.5t-381 141t-381 -141t-131 -403.5t131 -404.5t381 -142t381 142t131 404.5z" />
<glyph unicode="&#xaf;" horiz-adv-x="876" d="M739 1239h-604v201h604v-201z" />
<glyph unicode="&#xb0;" horiz-adv-x="1095" d="M948 1038q0 -176 -103.5 -282.5t-296 -106.5t-295.5 106.5t-103 282.5t103 282.5t295.5 106.5t296 -106.5t103.5 -282.5zM709 1038q0 90 -41 141.5t-119 51.5t-119 -51.5t-41 -141.5t41 -141t119 -51t119 51t41 141z" />
<glyph unicode="&#xb1;" d="M997 676h-286v-287h-193v287h-287v192h287v287h193v-287h286v-192zM997 0h-766v193h766v-193z" />
<glyph unicode="&#xb2;" horiz-adv-x="1024" d="M455 868h344v-163h-590q-8 37 -8 75q0 43 16 77t62 83l137 150q70 74 98.5 115.5t28.5 78.5q0 74 -127 74q-80 0 -168 -15v175q102 20 229 20q141 0 219 -57.5t78 -163.5q0 -78 -43 -146.5t-162 -187.5z" />
<glyph unicode="&#xb3;" horiz-adv-x="1024" d="M444 702q-102 0 -198 21v164q66 -12 157 -13q90 0 127 22t37 75q0 49 -32.5 67.5t-112.5 18.5h-51v149h57q123 0 123 80t-139 80q-90 0 -156 -10v162q78 20 205 20q150 0 233.5 -54t83.5 -163q0 -135 -110 -184q135 -39 135 -187q0 -119 -93.5 -183.5t-265.5 -64.5z" />
<glyph unicode="&#xb4;" horiz-adv-x="876" d="M281 1145l-103 127l375 348l143 -195z" />
<glyph unicode="&#xb5;" horiz-adv-x="1171" d="M408 -25v-436h-285v1465h293v-648q0 -76 30 -106q35 -33 127 -33q96 0 183 29v758h293v-1004h-254l-9 68q-152 -94 -335 -95q-23 0 -43 2z" />
<glyph unicode="&#x3bc;" horiz-adv-x="1171" d="M408 -25v-436h-285v1465h293v-648q0 -76 30 -106q35 -33 127 -33q96 0 183 29v758h293v-1004h-254l-9 68q-152 -94 -335 -95q-23 0 -43 2z" />
<glyph unicode="&#xb6;" horiz-adv-x="1337" d="M479 -416v1075q-176 0 -279.5 97.5t-103.5 273.5t105.5 273.5t277.5 97.5h756v-203h-139v-1614h-232v1614h-155v-1614h-230z" />
<glyph unicode="&#xb7;" horiz-adv-x="489" d="M401 711v-25q0 -141 -149 -141h-14q-150 0 -150 141v25q0 141 150 141h14q149 0 149 -141z" />
<glyph unicode="&#xb8;" horiz-adv-x="876" d="M483 -100q98 -37 133 -76t35 -111q0 -98 -55 -159q-59 -70 -188 -70q-102 0 -183 29v153q78 -20 142 -20q90 0 90 47q0 20 -21.5 36.5t-93.5 39.5q-59 18 -86 45.5t-27 76.5q0 66 43 119h146q-10 -35 -10 -53t13 -28.5t62 -28.5z" />
<glyph unicode="&#xb9;" horiz-adv-x="1024" d="M647 877h115v-164h-483v164h147v489h-139v162q123 12 233 12q74 0 100.5 -22.5t26.5 -77.5v-563z" />
<glyph unicode="&#xba;" horiz-adv-x="860" d="M299 1063q0 -197 131 -197t131 197t-131 197t-131 -197zM78 1063q0 174 87 270.5t265 96.5t265 -96.5t87 -270.5t-87 -270.5t-265 -96.5t-265 96.5t-87 270.5z" />
<glyph unicode="&#xbb;" horiz-adv-x="1165" d="M606 534.5q0 -59.5 -74 -137.5l-303 -329l-118 114l237 353l-237 352l118 114l303 -329q74 -78 74 -137.5zM1073 534.5q0 -59.5 -74 -137.5l-303 -329l-118 114l237 353l-237 352l118 114l303 -329q74 -78 74 -137.5z" />
<glyph unicode="&#xbc;" horiz-adv-x="2045" d="M1612 176h-389q-8 29 -9 57q0 49 29 136l152 452h231l-162 -473h148v180h203v-180h71v-172h-71v-176h-203v176zM1501 1427l-747 -1456h-252l747 1456h252zM557 748h111v-164h-480v164h148v489h-139v162q123 12 233 12q74 0 100.5 -22.5t26.5 -77.5v-563z" />
<glyph unicode="&#xbd;" horiz-adv-x="2045" d="M1501 1427l-747 -1456h-252l747 1456h252zM557 748h111v-164h-480v164h148v489h-139v162q123 12 233 12q74 0 100.5 -22.5t26.5 -77.5v-563zM1534 164h344v-164h-590q-8 37 -8 76q0 43 16.5 76.5t61.5 83.5l137 149q70 74 98.5 116t28.5 79q0 74 -127 73q-80 0 -168 -14 v174q102 20 229 21q141 0 219 -57.5t78 -164.5q0 -78 -43 -146.5t-161 -186.5z" />
<glyph unicode="&#xbe;" horiz-adv-x="2045" d="M1540 1427l-747 -1456h-252l747 1456h252zM1628 176h-389q-8 29 -8 57q0 49 29 136l151 452h231l-161 -473h147v180h203v-180h72v-172h-72v-176h-203v176zM420 592q-102 0 -199 20v164q66 -12 158 -12q90 0 127 21.5t37 74.5q0 49 -33 67.5t-113 18.5h-51v150h57 q123 0 123 79.5t-139 79.5q-90 0 -156 -10v162q78 20 205 20q150 0 234 -54t84 -163q0 -135 -111 -184q135 -39 135 -186q0 -119 -93 -183.5t-265 -64.5z" />
<glyph unicode="&#xbf;" horiz-adv-x="888" d="M590 563q6 -35 6 -63q0 -20 -3 -41t-13 -45l-17 -39q-6 -14 -24 -44l-24 -38q-5 -8 -27.5 -41t-24.5 -35q-100 -139 -101 -240q0 -78 41 -118q49 -45 160 -45q94 0 213 36l39 -212q-160 -61 -326 -62q-217 0 -327.5 94t-110.5 271q0 86 30 156.5t75 121.5l91 100 q46 49 86 112t54 132h203zM330 866v25q0 141 149 141h15q150 0 149 -141v-25q0 -141 -149 -141h-15q-149 0 -149 141z" />
<glyph unicode="&#xc0;" horiz-adv-x="1347" d="M995 0l-116 352h-455l-109 -352h-305l469 1401h352l506 -1401h-342zM643 1051l-145 -467h303l-154 467h-4zM932 1681l-103 -127l-415 281l143 195z" />
<glyph unicode="&#xc1;" horiz-adv-x="1347" d="M995 0l-116 352h-455l-109 -352h-305l469 1401h352l506 -1401h-342zM643 1051l-145 -467h303l-154 467h-4zM516 1554l-102 127l374 349l144 -195z" />
<glyph unicode="&#xc2;" horiz-adv-x="1347" d="M995 0l-116 352h-455l-109 -352h-305l469 1401h352l506 -1401h-342zM643 1051l-145 -467h303l-154 467h-4zM772 1960l256 -295l-102 -104l-252 200l-252 -200l-103 104l256 295h197z" />
<glyph unicode="&#xc3;" horiz-adv-x="1347" d="M995 0l-116 352h-455l-109 -352h-305l469 1401h352l506 -1401h-342zM643 1051l-145 -467h303l-154 467h-4zM903 1933l146 -22q0 -133 -57.5 -207t-160.5 -74q-66 0 -164 43t-137 43q-68 0 -86 -94l-145 23q0 133 57.5 206.5t159.5 73.5q66 0 165 -43t136 -43q68 0 86 94z " />
<glyph unicode="&#xc4;" horiz-adv-x="1347" d="M995 0l-116 352h-455l-109 -352h-305l469 1401h352l506 -1401h-342zM643 1051l-145 -467h303l-154 467h-4zM604 1772v-23q0 -131 -139 -131h-12q-137 0 -138 131v23q0 70 34 100.5t104 30.5h12q139 0 139 -131zM1030 1772v-23q0 -131 -137 -131h-12q-139 0 -140 131v23 q0 131 140 131h12q70 0 103.5 -30.5t33.5 -100.5z" />
<glyph unicode="&#xc5;" horiz-adv-x="1347" d="M995 0l-116 352h-455l-109 -352h-305l469 1401h352l506 -1401h-342zM643 1051l-145 -467h303l-154 467h-4zM645 1704h6q55 0 80 24.5t25 81.5v9q0 59 -24.5 81.5t-80.5 22.5h-6q-57 0 -82.5 -22.5t-25.5 -81.5v-9q0 -57 25.5 -81.5t82.5 -24.5zM641 2058h14 q246 0 246 -227v-29q0 -227 -246 -227h-14q-248 0 -248 227v29q0 227 248 227z" />
<glyph unicode="&#xc6;" horiz-adv-x="2054" d="M696 610h316v539zM557 383l-225 -383h-328l864 1401h1090l-25 -230h-602v-340h481v-243h-481v-359h637v-229h-956v383h-455z" />
<glyph unicode="&#xc7;" horiz-adv-x="1206" d="M424 702q0 -270 100 -383q88 -100 307 -100q115 0 259 29l32 -234q-131 -39 -346 -43v-14q0 -18 13.5 -28.5t62.5 -28.5q98 -37 133 -76t35 -111q0 -98 -55 -159q-59 -70 -189 -70q-102 0 -182 29v153q78 -20 141 -20q90 0 90 47q0 20 -21.5 36.5t-92.5 39.5 q-59 18 -86 45.5t-27 76.5q0 43 23 89q-236 29 -359 161q-170 182 -170 553q0 344 166 538.5t512 194.5q211 0 367 -63l-41 -234q-174 49 -301 50q-211 0 -291 -123.5t-80 -354.5z" />
<glyph unicode="&#xc8;" horiz-adv-x="1193" d="M471 590v-359h637v-231h-956v1401h946l-25 -232h-602v-340h481v-239h-481zM856 1681l-102 -127l-416 281l143 195z" />
<glyph unicode="&#xc9;" horiz-adv-x="1193" d="M471 590v-359h637v-231h-956v1401h946l-25 -232h-602v-340h481v-239h-481zM461 1554l-103 127l375 349l144 -195z" />
<glyph unicode="&#xca;" horiz-adv-x="1193" d="M471 590v-359h637v-231h-956v1401h946l-25 -232h-602v-340h481v-239h-481zM715 1960l256 -295l-103 -104l-252 200l-251 -200l-103 104l256 295h197z" />
<glyph unicode="&#xcb;" horiz-adv-x="1193" d="M471 590v-359h637v-231h-956v1401h946l-25 -232h-602v-340h481v-239h-481zM549 1772v-23q0 -131 -139 -131h-13q-137 0 -137 131v23q0 70 34 100.5t103 30.5h13q139 0 139 -131zM975 1772v-23q0 -131 -137 -131h-13q-139 0 -139 131v23q0 131 139 131h13 q70 0 103.5 -30.5t33.5 -100.5z" />
<glyph unicode="&#xcc;" horiz-adv-x="630" d="M156 0v1401h319v-1401h-319zM575 1681l-102 -127l-416 281l144 195z" />
<glyph unicode="&#xcd;" horiz-adv-x="630" d="M156 0v1401h319v-1401h-319zM160 1554l-103 127l375 349l143 -195z" />
<glyph unicode="&#xce;" horiz-adv-x="630" d="M156 0v1401h319v-1401h-319zM414 1960l256 -295l-103 -104l-252 200l-252 -200l-102 104l256 295h197z" />
<glyph unicode="&#xcf;" horiz-adv-x="630" d="M156 0v1401h319v-1401h-319zM248 1772v-23q0 -131 -139 -131h-13q-137 0 -137 131v23q0 70 34 100.5t103 30.5h13q139 0 139 -131zM674 1772v-23q0 -131 -137 -131h-13q-139 0 -139 131v23q0 131 139 131h13q70 0 103.5 -30.5t33.5 -100.5z" />
<glyph unicode="&#xd0;" horiz-adv-x="1404" d="M627 0h-475v590h-148v209l148 24v578h432q205 0 339 -36t220 -122q170 -166 170 -536q0 -373 -170 -549q-156 -158 -516 -158zM756 590h-285v-357h135q217 0 301 125q74 109 74 349q0 147 -22.5 229t-75.5 139q-86 92 -314 92h-98v-338h285v-239z" />
<glyph unicode="&#xd1;" horiz-adv-x="1482" d="M152 0v1401h235l664 -897v897h280v-1401h-256l-643 850v-850h-280zM971 1933l145 -22q0 -133 -57.5 -207t-159.5 -74q-66 0 -164 43t-137 43q-68 0 -86 -94l-145 23q0 133 57 206.5t160 73.5q66 0 165 -43t136 -43q68 0 86 94z" />
<glyph unicode="&#xd2;" horiz-adv-x="1425" d="M1333 698q0 -727 -620.5 -727t-620.5 727q0 729 620.5 729t620.5 -729zM1001 698q0 254 -67.5 367t-221 113t-221 -113t-67.5 -367t66.5 -365.5t222 -111.5t222 111.5t66.5 365.5zM971 1681l-103 -127l-415 281l143 195z" />
<glyph unicode="&#xd3;" horiz-adv-x="1425" d="M1333 698q0 -727 -620.5 -727t-620.5 727q0 729 620.5 729t620.5 -729zM1001 698q0 254 -67.5 367t-221 113t-221 -113t-67.5 -367t66.5 -365.5t222 -111.5t222 111.5t66.5 365.5zM555 1554l-102 127l374 349l144 -195z" />
<glyph unicode="&#xd4;" horiz-adv-x="1425" d="M1333 698q0 -727 -620.5 -727t-620.5 727q0 729 620.5 729t620.5 -729zM1001 698q0 254 -67.5 367t-221 113t-221 -113t-67.5 -367t66.5 -365.5t222 -111.5t222 111.5t66.5 365.5zM811 1960l256 -295l-102 -104l-252 200l-252 -200l-103 104l256 295h197z" />
<glyph unicode="&#xd5;" horiz-adv-x="1425" d="M1333 698q0 -727 -620.5 -727t-620.5 727q0 729 620.5 729t620.5 -729zM1001 698q0 254 -67.5 367t-221 113t-221 -113t-67.5 -367t66.5 -365.5t222 -111.5t222 111.5t66.5 365.5zM942 1933l145 -22q0 -133 -57 -207t-160 -74q-66 0 -164 43t-137 43q-68 0 -86 -94 l-145 23q0 133 57.5 206.5t159.5 73.5q66 0 165 -43t136 -43q68 0 86 94z" />
<glyph unicode="&#xd6;" horiz-adv-x="1425" d="M1333 698q0 -727 -620.5 -727t-620.5 727q0 729 620.5 729t620.5 -729zM1001 698q0 254 -67.5 367t-221 113t-221 -113t-67.5 -367t66.5 -365.5t222 -111.5t222 111.5t66.5 365.5zM643 1772v-23q0 -131 -139 -131h-12q-137 0 -138 131v23q0 70 34 100.5t104 30.5h12 q139 0 139 -131zM1069 1772v-23q0 -131 -137 -131h-12q-139 0 -140 131v23q0 131 140 131h12q70 0 103.5 -30.5t33.5 -100.5z" />
<glyph unicode="&#xd7;" d="M954 868l-204 -204l204 -205l-135 -135l-205 204l-204 -204l-136 135l205 205l-205 204l136 136l204 -205l205 205z" />
<glyph unicode="&#xd8;" horiz-adv-x="1429" d="M1337 698q0 -727 -622 -727q-88 0 -170 17l-49 -140h-179l70 193q-295 154 -295 657q0 729 623 729q86 0 168 -16l51 139h178l-70 -192q295 -156 295 -660zM1006 698q0 258 -70 369l-303 -838q33 -8 82 -8q156 0 223.5 111.5t67.5 365.5zM424 698q0 -258 68 -366l303 837 q-33 8 -80 9q-156 0 -223.5 -113t-67.5 -367z" />
<glyph unicode="&#xd9;" horiz-adv-x="1421" d="M999 512v889h283v-873q0 -289 -137 -417q-145 -139 -430 -140q-303 0 -441 135q-135 133 -135 408v887h318v-887q0 -164 67 -231q66 -68 205 -68t203 66q67 67 67 231zM969 1681l-103 -127l-415 281l143 195z" />
<glyph unicode="&#xda;" horiz-adv-x="1421" d="M999 512v889h283v-873q0 -289 -137 -417q-145 -139 -430 -140q-303 0 -441 135q-135 133 -135 408v887h318v-887q0 -164 67 -231q66 -68 205 -68t203 66q67 67 67 231zM553 1554l-102 127l374 349l144 -195z" />
<glyph unicode="&#xdb;" horiz-adv-x="1421" d="M999 512v889h283v-873q0 -289 -137 -417q-145 -139 -430 -140q-303 0 -441 135q-135 133 -135 408v887h318v-887q0 -164 67 -231q66 -68 205 -68t203 66q67 67 67 231zM809 1960l256 -295l-102 -104l-252 200l-252 -200l-103 104l256 295h197z" />
<glyph unicode="&#xdc;" horiz-adv-x="1421" d="M999 512v889h283v-873q0 -289 -137 -417q-145 -139 -430 -140q-303 0 -441 135q-135 133 -135 408v887h318v-887q0 -164 67 -231q66 -68 205 -68t203 66q67 67 67 231zM662 1772v-23q0 -131 -140 -131h-12q-137 0 -137 131v23q0 70 33.5 100.5t103.5 30.5h12 q140 0 140 -131zM1087 1772v-23q0 -131 -137 -131h-12q-139 0 -139 131v23q0 131 139 131h12q70 0 103.5 -30.5t33.5 -100.5z" />
<glyph unicode="&#xdd;" horiz-adv-x="1355" d="M508 571l-483 830h360l307 -565l320 565h319l-504 -832v-569h-319v571zM541 1554l-103 127l375 349l143 -195z" />
<glyph unicode="&#xde;" horiz-adv-x="1267" d="M471 252v-252h-319v1401h319v-232h162q326 0 448 -114q113 -104 113 -327.5t-104 -340.5q-121 -135 -394 -135h-225zM471 938v-446h158q131 0 186 53q55 55 55 178q0 115 -53 166q-55 49 -196 49h-150z" />
<glyph unicode="&#xdf;" horiz-adv-x="1460" d="M1124 268q0 43 -49 67.5t-118.5 41t-139 41t-119 85t-49.5 154.5q0 78 42 149t92.5 115t92.5 101t42 113q0 70 -49.5 108.5t-139.5 38.5q-236 0 -235 -272v-1010h-293v813h-172v158l172 30v43q0 207 133 331t383 124q221 0 348 -89t127 -255q0 -88 -40 -159.5t-89 -110.5 t-89 -81t-40 -79q0 -35 35 -58.5t86 -33.5t111.5 -31.5t111.5 -51.5t86 -93.5t35 -155.5q0 -330 -438 -330q-193 0 -347 56l23 217q145 -47 317 -47q94 0 132 17t38 54z" />
<glyph unicode="&#xe0;" horiz-adv-x="1087" d="M678 225v207h-156q-104 0 -139 -35q-29 -29 -29 -84q0 -119 144 -118q80 -1 180 30zM739 0l-24 61q-139 -90 -301 -90q-168 0 -260.5 90.5t-92.5 239.5q0 143 89 227q98 92 368 93h160v32q0 80 -37 113q-47 41 -170 41q-152 0 -281 -27l-14 215q184 37 356 37 q262 0 361 -114q78 -90 78 -267v-651h-232zM803 1272l-103 -127l-415 280l143 195z" />
<glyph unicode="&#xe1;" horiz-adv-x="1087" d="M678 225v207h-156q-104 0 -139 -35q-29 -29 -29 -84q0 -119 144 -118q80 -1 180 30zM739 0l-24 61q-139 -90 -301 -90q-168 0 -260.5 90.5t-92.5 239.5q0 143 89 227q98 92 368 93h160v32q0 80 -37 113q-47 41 -170 41q-152 0 -281 -27l-14 215q184 37 356 37 q262 0 361 -114q78 -90 78 -267v-651h-232zM387 1145l-102 127l374 348l144 -195z" />
<glyph unicode="&#xe2;" horiz-adv-x="1087" d="M678 225v207h-156q-104 0 -139 -35q-29 -29 -29 -84q0 -119 144 -118q80 -1 180 30zM739 0l-24 61q-139 -90 -301 -90q-168 0 -260.5 90.5t-92.5 239.5q0 143 89 227q98 92 368 93h160v32q0 80 -37 113q-47 41 -170 41q-152 0 -281 -27l-14 215q184 37 356 37 q262 0 361 -114q78 -90 78 -267v-651h-232zM641 1550l256 -295l-102 -104l-252 201l-252 -201l-103 104l256 295h197z" />
<glyph unicode="&#xe3;" horiz-adv-x="1087" d="M678 225v207h-156q-104 0 -139 -35q-29 -29 -29 -84q0 -119 144 -118q80 -1 180 30zM739 0l-24 61q-139 -90 -301 -90q-168 0 -260.5 90.5t-92.5 239.5q0 143 89 227q98 92 368 93h160v32q0 80 -37 113q-47 41 -170 41q-152 0 -281 -27l-14 215q184 37 356 37 q262 0 361 -114q78 -90 78 -267v-651h-232zM772 1524l146 -23q0 -133 -57.5 -206.5t-160.5 -73.5q-66 0 -164 43t-137 43q-68 0 -86 -95l-145 23q0 133 57.5 207t159.5 74q66 0 165 -43t136 -43q68 0 86 94z" />
<glyph unicode="&#xe4;" horiz-adv-x="1087" d="M678 225v207h-156q-104 0 -139 -35q-29 -29 -29 -84q0 -119 144 -118q80 -1 180 30zM739 0l-24 61q-139 -90 -301 -90q-168 0 -260.5 90.5t-92.5 239.5q0 143 89 227q98 92 368 93h160v32q0 80 -37 113q-47 41 -170 41q-152 0 -281 -27l-14 215q184 37 356 37 q262 0 361 -114q78 -90 78 -267v-651h-232zM475 1362v-23q0 -131 -139 -131h-12q-137 0 -138 131v23q0 70 34 100.5t104 30.5h12q139 0 139 -131zM901 1362v-23q0 -131 -137 -131h-12q-139 0 -140 131v23q0 131 140 131h12q70 0 103.5 -30.5t33.5 -100.5z" />
<glyph unicode="&#xe5;" horiz-adv-x="1087" d="M678 225v207h-156q-104 0 -139 -35q-29 -29 -29 -84q0 -119 144 -118q80 -1 180 30zM739 0l-24 61q-139 -90 -301 -90q-168 0 -260.5 90.5t-92.5 239.5q0 143 89 227q98 92 368 93h160v32q0 80 -37 113q-47 41 -170 41q-152 0 -281 -27l-14 215q184 37 356 37 q262 0 361 -114q78 -90 78 -267v-651h-232zM541 1294h6q55 0 79.5 24.5t24.5 82.5v8q0 59 -24.5 81.5t-79.5 22.5h-6q-57 0 -83 -22.5t-26 -81.5v-8q0 -57 26 -82t83 -25zM537 1649h14q246 0 246 -228v-28q0 -227 -246 -228h-14q-248 0 -248 228v28q0 228 248 228z" />
<glyph unicode="&#xe6;" horiz-adv-x="1673" d="M1214 -29q-276 0 -411 123q-68 -51 -180.5 -87t-208.5 -36q-168 0 -260.5 90.5t-92.5 239.5q0 143 89 227q98 92 368 93h160v36q-2 74 -37 109q-47 41 -170 41q-152 0 -281 -27l-14 215q184 37 356 37q215 0 324 -80q117 80 295 80q461 0 461 -506v-92q0 -23 -25 -22 h-616q6 -123 79.5 -170t229.5 -47q121 0 250 24l22 -213q-182 -35 -338 -35zM498 195q94 0 211 38q-25 68 -31 199h-156q-104 0 -139 -35q-29 -29 -29 -84q1 -118 144 -118zM971 602h354q0 98 -45 153.5t-131 55.5q-168 0 -178 -209z" />
<glyph unicode="&#xe7;" horiz-adv-x="948" d="M662 -100q98 -37 132.5 -76t34.5 -111q0 -98 -55 -159q-59 -70 -188 -70q-102 0 -183 29v153q78 -20 142 -20q90 0 90 47q0 20 -21.5 36.5t-93.5 39.5q-59 18 -85.5 45.5t-26.5 76.5q0 51 28 99q-188 37 -282 182q-82 125 -82 307q0 262 129 404q139 150 401 149 q162 0 295 -37l-18 -217q-109 29 -232 29q-135 0 -203 -72q-68 -74 -67 -233q0 -158 69.5 -232.5t225.5 -74.5q102 0 209 20l22 -211q-143 -33 -282 -33h-35v-14q0 -18 13.5 -28.5t62.5 -28.5z" />
<glyph unicode="&#xe8;" horiz-adv-x="1081" d="M995 412h-616q6 -123 79.5 -170t229.5 -47q121 0 250 24l23 -213q-182 -35 -338 -35q-281 0 -416 129t-135 400q0 262 127 397t360 135q461 0 461 -506v-92q0 -22 -25 -22zM379 602h354q0 98 -45 153.5t-131 55.5q-168 0 -178 -209zM799 1272l-103 -127l-415 280l143 195 z" />
<glyph unicode="&#xe9;" horiz-adv-x="1081" d="M995 412h-616q6 -123 79.5 -170t229.5 -47q121 0 250 24l23 -213q-182 -35 -338 -35q-281 0 -416 129t-135 400q0 262 127 397t360 135q461 0 461 -506v-92q0 -22 -25 -22zM379 602h354q0 98 -45 153.5t-131 55.5q-168 0 -178 -209zM383 1145l-102 127l374 348l144 -195z " />
<glyph unicode="&#xea;" horiz-adv-x="1081" d="M995 412h-616q6 -123 79.5 -170t229.5 -47q121 0 250 24l23 -213q-182 -35 -338 -35q-281 0 -416 129t-135 400q0 262 127 397t360 135q461 0 461 -506v-92q0 -22 -25 -22zM379 602h354q0 98 -45 153.5t-131 55.5q-168 0 -178 -209zM639 1550l256 -295l-102 -104 l-252 201l-252 -201l-103 104l256 295h197z" />
<glyph unicode="&#xeb;" horiz-adv-x="1081" d="M995 412h-616q6 -123 79.5 -170t229.5 -47q121 0 250 24l23 -213q-182 -35 -338 -35q-281 0 -416 129t-135 400q0 262 127 397t360 135q461 0 461 -506v-92q0 -22 -25 -22zM379 602h354q0 98 -45 153.5t-131 55.5q-168 0 -178 -209zM471 1362v-23q0 -131 -139 -131h-13 q-137 0 -137 131v23q0 70 34 100.5t103 30.5h13q139 0 139 -131zM897 1362v-23q0 -131 -137 -131h-12q-139 0 -140 131v23q0 131 140 131h12q70 0 103.5 -30.5t33.5 -100.5z" />
<glyph unicode="&#xec;" horiz-adv-x="550" d="M422 1004v-1004h-293v1004h293zM535 1272l-103 -127l-416 280l144 195z" />
<glyph unicode="&#xed;" horiz-adv-x="550" d="M422 1004v-1004h-293v1004h293zM119 1145l-103 127l375 348l144 -195z" />
<glyph unicode="&#xee;" horiz-adv-x="550" d="M422 1004v-1004h-293v1004h293zM375 1550l256 -295l-103 -104l-252 201l-251 -201l-103 104l256 295h197z" />
<glyph unicode="&#xef;" horiz-adv-x="550" d="M422 1004v-1004h-293v1004h293zM207 1362v-23q0 -131 -139 -131h-13q-137 0 -137 131v23q0 70 34 100.5t103 30.5h13q139 0 139 -131zM633 1362v-23q0 -131 -137 -131h-13q-139 0 -139 131v23q0 131 139 131h13q70 0 103.5 -30.5t33.5 -100.5z" />
<glyph unicode="&#xf0;" horiz-adv-x="1167" d="M276 1452l12 11l26 26l37 36l35 34l28 26l8 10l170 -116l143 139l119 -119l-133 -131q356 -334 356 -813q0 -272 -124 -428t-378 -156q-246 0 -369.5 135.5t-123.5 356.5q0 231 118.5 358t311.5 127q106 0 217 -53q-51 162 -178 307l-135 -131l-119 119l135 133 q-56 49 -156 129zM774 553q0 59 -8 158q-90 27 -162 26q-217 0 -217 -270q0 -123 48 -197.5t147 -74.5q192 0 192 358z" />
<glyph unicode="&#xf1;" horiz-adv-x="1173" d="M123 1004h254l6 -72q156 100 346 100q164 0 242 -78q86 -84 86 -264v-690h-293v655q0 70 -31 101q-35 33 -127 32q-106 0 -190 -32v-756h-293v1004zM836 1524l145 -23q0 -133 -57.5 -206.5t-159.5 -73.5q-66 0 -164 43t-137 43q-68 0 -86 -95l-146 23q0 133 57.5 207 t160.5 74q66 0 165 -43t136 -43q68 0 86 94z" />
<glyph unicode="&#xf2;" horiz-adv-x="1163" d="M1092 502q0 -250 -128 -390.5t-382 -140.5t-382 140.5t-128 390.5t128 390t382 140t382 -140t128 -390zM786 501.5q0 157.5 -48 232.5t-156.5 75t-156.5 -75t-48 -232.5t48 -232t156.5 -74.5t156.5 74.5t48 232zM840 1272l-103 -127l-415 280l143 195z" />
<glyph unicode="&#xf3;" horiz-adv-x="1163" d="M1092 502q0 -250 -128 -390.5t-382 -140.5t-382 140.5t-128 390.5t128 390t382 140t382 -140t128 -390zM786 501.5q0 157.5 -48 232.5t-156.5 75t-156.5 -75t-48 -232.5t48 -232t156.5 -74.5t156.5 74.5t48 232zM424 1145l-102 127l374 348l144 -195z" />
<glyph unicode="&#xf4;" horiz-adv-x="1163" d="M1092 502q0 -250 -128 -390.5t-382 -140.5t-382 140.5t-128 390.5t128 390t382 140t382 -140t128 -390zM786 501.5q0 157.5 -48 232.5t-156.5 75t-156.5 -75t-48 -232.5t48 -232t156.5 -74.5t156.5 74.5t48 232zM680 1550l256 -295l-102 -104l-252 201l-252 -201 l-103 104l256 295h197z" />
<glyph unicode="&#xf5;" horiz-adv-x="1163" d="M1092 502q0 -250 -128 -390.5t-382 -140.5t-382 140.5t-128 390.5t128 390t382 140t382 -140t128 -390zM786 501.5q0 157.5 -48 232.5t-156.5 75t-156.5 -75t-48 -232.5t48 -232t156.5 -74.5t156.5 74.5t48 232zM811 1524l145 -23q0 -133 -57 -206.5t-160 -73.5 q-66 0 -164 43t-137 43q-68 0 -86 -95l-145 23q0 133 57.5 207t159.5 74q66 0 165 -43t136 -43q68 0 86 94z" />
<glyph unicode="&#xf6;" horiz-adv-x="1163" d="M1092 502q0 -250 -128 -390.5t-382 -140.5t-382 140.5t-128 390.5t128 390t382 140t382 -140t128 -390zM786 501.5q0 157.5 -48 232.5t-156.5 75t-156.5 -75t-48 -232.5t48 -232t156.5 -74.5t156.5 74.5t48 232zM512 1362v-23q0 -131 -139 -131h-13q-137 0 -137 131v23 q0 70 34 100.5t103 30.5h13q139 0 139 -131zM938 1362v-23q0 -131 -137 -131h-13q-139 0 -139 131v23q0 131 139 131h13q70 0 103.5 -30.5t33.5 -100.5z" />
<glyph unicode="&#xf7;" d="M758 1077v-26q0 -127 -135 -127h-15q-133 0 -133 127v26q0 66 32 95.5t101 29.5h15q135 0 135 -125zM758 276v-26q0 -127 -135 -127h-15q-133 0 -133 127v26q0 66 32 95.5t101 29.5h15q135 0 135 -125zM997 567h-766v193h766v-193z" />
<glyph unicode="&#xf8;" horiz-adv-x="1163" d="M1092 502q0 -250 -128 -390.5t-382 -140.5q-63 0 -107 9l-55 -152h-172l71 197q-248 119 -247 477q0 250 128 390t382 140q63 0 106 -8l55 152h172l-71 -197q248 -121 248 -477zM786 502q0 141 -38 217l-193 -524h27q109 0 156.5 74.5t47.5 232.5zM377 502 q0 -141 39 -217l192 522q-8 2 -26 2q-109 0 -157 -74.5t-48 -232.5z" />
<glyph unicode="&#xf9;" horiz-adv-x="1165" d="M1042 0h-254l-8 68q-154 -96 -336 -97q-164 0 -241 78q-86 84 -86 264v691h293v-650q0 -76 30 -106q35 -33 127 -33q96 0 183 29v760h292v-1004zM842 1272l-103 -127l-415 280l143 195z" />
<glyph unicode="&#xfa;" horiz-adv-x="1165" d="M1042 0h-254l-8 68q-154 -96 -336 -97q-164 0 -241 78q-86 84 -86 264v691h293v-650q0 -76 30 -106q35 -33 127 -33q96 0 183 29v760h292v-1004zM426 1145l-102 127l374 348l144 -195z" />
<glyph unicode="&#xfb;" horiz-adv-x="1165" d="M1042 0h-254l-8 68q-154 -96 -336 -97q-164 0 -241 78q-86 84 -86 264v691h293v-650q0 -76 30 -106q35 -33 127 -33q96 0 183 29v760h292v-1004zM680 1550l256 -295l-102 -104l-252 201l-252 -201l-103 104l256 295h197z" />
<glyph unicode="&#xfc;" horiz-adv-x="1165" d="M1042 0h-254l-8 68q-154 -96 -336 -97q-164 0 -241 78q-86 84 -86 264v691h293v-650q0 -76 30 -106q35 -33 127 -33q96 0 183 29v760h292v-1004zM514 1362v-23q0 -131 -139 -131h-13q-137 0 -137 131v23q0 70 34 100.5t103 30.5h13q139 0 139 -131zM940 1362v-23 q0 -131 -137 -131h-12q-139 0 -140 131v23q0 131 140 131h12q70 0 103.5 -30.5t33.5 -100.5z" />
<glyph unicode="&#xfd;" horiz-adv-x="1169" d="M438 -18q-156 0 -233 77q-88 88 -88 254v691h293v-650q0 -70 30 -100q35 -33 125 -33q94 0 189 37v746h293v-961q0 -279 -101.5 -405.5t-363.5 -126.5q-133 0 -256 26l-21 217q125 -23 230 -22q123 0 170 47q49 47 49 162v122q-146 -81 -316 -81zM465 1145l-103 127 l375 348l144 -195z" />
<glyph unicode="&#xfe;" horiz-adv-x="1146" d="M416 -461h-293v1925h293v-514q139 82 284 82q150 0 240 -86q135 -133 135 -438q0 -537 -391 -537q-150 0 -268 74v-506zM416 770v-539q66 -29 182 -28q94 0 132 65.5t38 243.5q0 162 -39 223.5t-139 61.5q-82 0 -174 -27z" />
<glyph unicode="&#xff;" horiz-adv-x="1169" d="M438 -18q-156 0 -233 77q-88 88 -88 254v691h293v-650q0 -70 30 -100q35 -33 125 -33q94 0 189 37v746h293v-961q0 -279 -101.5 -405.5t-363.5 -126.5q-133 0 -256 26l-21 217q125 -23 230 -22q123 0 170 47q49 47 49 162v122q-146 -81 -316 -81zM516 1362v-23 q0 -131 -139 -131h-12q-137 0 -138 131v23q0 70 34 100.5t104 30.5h12q139 0 139 -131zM942 1362v-23q0 -131 -137 -131h-12q-139 0 -140 131v23q0 131 140 131h12q70 0 103.5 -30.5t33.5 -100.5z" />
<glyph unicode="&#x152;" horiz-adv-x="2007" d="M827 1401h1084l-25 -230h-602v-340h481v-243h-481v-359h637v-229h-1145q-365 0 -516 158q-168 168 -168 549q0 367 174 536q155 158 561 158zM965 207v987h-125q-223 0 -310 -92q-106 -117 -106 -395q0 -264 76 -375q88 -125 297 -125h168z" />
<glyph unicode="&#x153;" horiz-adv-x="1796" d="M1710 412h-616q4 -106 59 -156q63 -61 254 -61q88 0 235 22l23 -213q-172 -33 -328 -33q-270 0 -403 117q-127 -117 -352 -117q-254 0 -382 140.5t-128 390.5t128 390t382 140q223 0 350 -117q123 117 342 117q461 0 461 -506v-92q0 -22 -25 -22zM581.5 809 q-108.5 0 -156.5 -75t-48 -232.5t48 -232t157 -74.5q104 0 152 68.5t52 211.5v27q0 158 -48 232.5t-156.5 74.5zM1094 602h354q0 98 -45 153.5t-131 55.5q-168 0 -178 -209z" />
<glyph unicode="&#x178;" horiz-adv-x="1355" d="M508 571l-483 830h360l307 -565l320 565h319l-504 -832v-569h-319v571zM608 1772v-23q0 -131 -139 -131h-12q-137 0 -138 131v23q0 70 34 100.5t104 30.5h12q139 0 139 -131zM1034 1772v-23q0 -131 -137 -131h-12q-139 0 -140 131v23q0 131 140 131h12q70 0 103.5 -30.5 t33.5 -100.5z" />
<glyph unicode="&#x2c6;" horiz-adv-x="876" d="M537 1550l256 -295l-103 -104l-252 201l-252 -201l-102 104l256 295h197z" />
<glyph unicode="&#x2dc;" horiz-adv-x="876" d="M668 1524l145 -23q0 -133 -57.5 -206.5t-159.5 -73.5q-66 0 -164 43t-137 43q-68 0 -86 -95l-146 23q0 133 57.5 207t160.5 74q66 0 165 -43t136 -43q68 0 86 94z" />
<glyph unicode="&#x2000;" horiz-adv-x="1028" />
<glyph unicode="&#x2001;" horiz-adv-x="2058" />
<glyph unicode="&#x2002;" horiz-adv-x="1028" />
<glyph unicode="&#x2003;" horiz-adv-x="2058" />
<glyph unicode="&#x2004;" horiz-adv-x="686" />
<glyph unicode="&#x2005;" horiz-adv-x="514" />
<glyph unicode="&#x2006;" horiz-adv-x="342" />
<glyph unicode="&#x2007;" horiz-adv-x="342" />
<glyph unicode="&#x2008;" horiz-adv-x="256" />
<glyph unicode="&#x2009;" horiz-adv-x="411" />
<glyph unicode="&#x200a;" horiz-adv-x="112" />
<glyph unicode="&#x2010;" horiz-adv-x="684" d="M590 410h-496v243h496v-243z" />
<glyph unicode="&#x2011;" horiz-adv-x="684" d="M590 410h-496v243h496v-243z" />
<glyph unicode="&#x2012;" horiz-adv-x="684" d="M590 410h-496v243h496v-243z" />
<glyph unicode="&#x2013;" horiz-adv-x="1024" d="M1024 410h-1024v243h1024v-243z" />
<glyph unicode="&#x2014;" horiz-adv-x="2048" d="M2048 410h-2048v243h2048v-243z" />
<glyph unicode="&#x2018;" horiz-adv-x="473" d="M403 977q0 -154 -149 -154h-14q-150 0 -150 154v55q0 102 14.5 222t30.5 173h148v-290q68 -23 94 -58.5t26 -101.5z" />
<glyph unicode="&#x2019;" horiz-adv-x="473" d="M70 1272v2q0 154 149 153h14q152 0 152 -153v-55q0 -254 -33 -347q-16 -49 -80 -49h-82v291q-68 23 -94 59t-26 99z" />
<glyph unicode="&#x201a;" horiz-adv-x="473" d="M70 125q0 154 149 154h14q150 0 150 -154v-55q0 -102 -14.5 -222t-30.5 -174h-148v291q-68 23 -94 58.5t-26 101.5z" />
<glyph unicode="&#x201c;" horiz-adv-x="890" d="M403 977q0 -154 -149 -154h-14q-150 0 -150 154v55q0 102 14.5 222t30.5 173h148v-290q68 -23 94 -58.5t26 -101.5zM821 977q0 -154 -149 -154h-15q-150 0 -149 154v55q0 102 14.5 222t30.5 173h147v-290q68 -23 94.5 -58.5t26.5 -101.5z" />
<glyph unicode="&#x201d;" horiz-adv-x="890" d="M487 1274q0 154 150 153h14q150 0 150 -153v-55q0 -102 -14.5 -222t-30.5 -174h-148v291q-68 23 -94.5 58.5t-26.5 101.5zM70 1274q0 154 149 153h14q150 0 150 -153v-55q0 -102 -14.5 -222t-30.5 -174h-148v291q-68 23 -94 58.5t-26 101.5z" />
<glyph unicode="&#x201e;" horiz-adv-x="890" d="M487 125q0 154 150 154h14q150 0 150 -154v-55q0 -102 -14.5 -222t-30.5 -174h-148v291q-68 23 -94.5 58.5t-26.5 101.5zM70 125q0 154 149 154h14q150 0 150 -154v-55q0 -102 -14.5 -222t-30.5 -174h-148v291q-68 23 -94 58.5t-26 101.5z" />
<glyph unicode="&#x2022;" horiz-adv-x="772" d="M686 725v-51q0 -141 -70.5 -203.5t-216.5 -62.5h-26q-145 0 -216 62t-71 204v51q0 141 70.5 203.5t216.5 62.5h26q145 0 216 -62.5t71 -203.5z" />
<glyph unicode="&#x2026;" horiz-adv-x="1464" d="M399 137v-24q0 -76 -35.5 -109t-111.5 -33h-16q-150 0 -150 142v24q0 141 150 142h16q76 0 111.5 -33t35.5 -109zM889 137v-24q0 -141 -150 -142h-14q-150 0 -150 142v24q0 141 150 142h14q150 -1 150 -142zM1378 137v-24q0 -141 -149 -142h-17q-76 0 -111.5 33 t-35.5 109v24q0 76 36 109t111 33h17q149 -1 149 -142z" />
<glyph unicode="&#x202f;" horiz-adv-x="411" />
<glyph unicode="&#x2039;" horiz-adv-x="700" d="M92 534.5q0 57.5 74 137.5l303 329l121 -114l-240 -352l240 -353l-121 -114l-303 329q-74 80 -74 137.5z" />
<glyph unicode="&#x203a;" horiz-adv-x="700" d="M608 534.5q0 -57.5 -73 -137.5l-304 -329l-120 114l239 353l-239 352l120 114l304 -329q73 -80 73 -137.5z" />
<glyph unicode="&#x205f;" horiz-adv-x="514" />
<glyph unicode="&#x20ac;" d="M819 451h-293q55 -233 336 -234q131 0 293 35v-234q-162 -47 -340 -47q-272 0 -422.5 121t-199.5 359h-175v143l154 20q-2 25 -2 103h-152v145l164 21q90 545 609 544q172 0 327 -47v-229q-150 31 -270 31q-162 0 -239 -71t-99 -228h309v-166h-323q0 -74 2 -103h321v-163 z" />
<glyph unicode="&#x2122;" horiz-adv-x="1527" d="M899 1401l176 -383l180 383h175v-680h-185v317l-110 -225h-123l-117 229v-321h-176v680h180zM225 1253h-200v148h610v-148h-205v-532h-205v532z" />
<glyph unicode="&#xe000;" horiz-adv-x="1004" d="M0 1005h1005v-1005h-1005v1005z" />
<glyph unicode="&#xfb01;" horiz-adv-x="1265" d="M494 1124v-120h643v-1004h-293v813h-350v-813h-293v813h-172v178l172 10v140q0 154 73 235q109 123 392 123q162 0 274 -22v-209q-82 12 -199 12q-137 0 -192 -33t-55 -123z" />
<glyph unicode="&#xfb02;" horiz-adv-x="1265" d="M1137 0h-293v1270q-123 10 -185 10q-102 0 -137 -37q-29 -29 -28 -119v-120h217v-191h-217v-813h-293v813h-172v178l172 10v140q0 182 84 266q47 47 130 69.5t259 22.5q258 0 463 -24v-1475z" />
<glyph unicode="&#xfb03;" horiz-adv-x="2021" d="M1892 1004v-1004h-293v1004h293zM1906 1337v-26q0 -139 -153 -140h-15q-154 0 -153 140v26q0 141 153 142h15q153 -1 153 -142zM1229 1004h237v-191h-237v-813h-293v813h-172v158l172 30v140q0 180 84 266q88 92 299 92q104 0 213 -22v-209q-82 12 -138 12 q-100 0 -137 -37q-29 -29 -28 -119v-120zM494 1004h237v-191h-237v-813h-293v813h-172v158l172 30v140q0 180 84 266q88 92 299 92q104 0 213 -22v-209q-82 12 -138 12q-100 0 -137 -37q-29 -29 -28 -119v-120z" />
<glyph unicode="&#xfb04;" horiz-adv-x="2021" d="M1599 1464h293v-1464h-293v1464zM1229 1004h237v-191h-237v-813h-293v813h-172v158l172 30v140q0 180 84 266q88 92 299 92q104 0 213 -22v-209q-82 12 -138 12q-100 0 -137 -37q-29 -29 -28 -119v-120zM494 1004h237v-191h-237v-813h-293v813h-172v158l172 30v140 q0 180 84 266q88 92 299 92q104 0 213 -22v-209q-82 12 -138 12q-100 0 -137 -37q-29 -29 -28 -119v-120z" />
<glyph horiz-adv-x="460" />
</font>
</defs>
</svg>
