<?xml version="1.0" standalone="no"?>
<!DOCTYPE svg PUBLIC "-//W3C//DTD SVG 1.1//EN" "http://www.w3.org/Graphics/SVG/1.1/DTD/svg11.dtd" >
<svg xmlns="http://www.w3.org/2000/svg">
<metadata>
This is a custom SVG webfont generated by Font Squirrel.
Copyright   : Copyright c 2009 by Fontsmith Ltd All rights reserved
Designer    : Phil Garnham Jason Smith
Foundry     : Fontsmith Ltd
Foundry URL : httpwwwfontsmithcom
</metadata>
<defs>
<font id="webfonteoaLuaHM" horiz-adv-x="1040" >
<font-face units-per-em="2048" ascent="1536" descent="-512" />
<missing-glyph horiz-adv-x="389" />
<glyph unicode=" "  horiz-adv-x="389" />
<glyph unicode="&#x09;" horiz-adv-x="389" />
<glyph unicode="&#xa0;" horiz-adv-x="389" />
<glyph unicode="!" horiz-adv-x="563" d="M375 1401l-31 -1000q0 -20 -20 -20h-105l-29 1020h185zM289 -29h-15q-102 0 -102 111v8q0 111 102 111h15q102 0 102 -111v-8q0 -111 -102 -111z" />
<glyph unicode="&#x22;" horiz-adv-x="823" d="M262 942h-78l-18 406q-2 31 11 42t46 11h107l-29 -430q-2 -18 -9 -23.5t-30 -5.5zM592 942h-78l-18 406q-2 31 11 42t46 11h106l-28 -430q-2 -18 -9 -23.5t-30 -5.5z" />
<glyph unicode="#" horiz-adv-x="1163" d="M594 0l74 451h-258l-74 -451h-135l73 451h-141v122h162l43 252h-205v123h223l76 453h135l-75 -453h256l77 453h136l-78 -453h149v-123h-168l-41 -252h209v-122h-229l-74 -451h-135zM471 825l-41 -252h258l43 252h-260z" />
<glyph unicode="$" horiz-adv-x="1163" d="M309 139q98 -20 236 -20q186 0 268 74q70 63 70 174q0 100 -49.5 151t-206.5 100l-107 33q-186 57 -272 140q-100 94 -101 253q0 170 109 273q100 94 281 113v235h133v-231q150 -6 282 -43q33 -8 33 -41v-244h-121q-8 16 -17 71.5t-9 90.5q-92 14 -211 14 q-180 0 -254 -74q-55 -55 -56 -145q0 -94 58 -152q63 -61 203 -102l112 -35q209 -68 287 -158q76 -88 76 -245q0 -176 -107 -279q-92 -92 -276 -115v-239h-133v231q-205 2 -342 41q-33 10 -33 43v250h121q26 -60 26 -164z" />
<glyph unicode="%" horiz-adv-x="1927" d="M1403 1427l-723 -1456h-156l723 1456h156zM786 1001.5q0 -188.5 -78.5 -307.5t-246.5 -119t-247 119t-79 307.5t79 307t247 118.5t246.5 -118.5t78.5 -307zM631 1001.5q0 153.5 -40 223t-130 69.5t-130 -69.5t-40 -223t40 -223t130 -69.5t130 69.5t40 223zM1792 397.5 q0 -188.5 -79 -307.5t-247 -119t-246.5 119t-78.5 307.5t78.5 307t246.5 118.5t247 -118.5t79 -307zM1636 397.5q0 153.5 -40 223t-130 69.5t-130 -69.5t-40 -223t40 -223.5t130 -70t130 70t40 223.5z" />
<glyph unicode="&#x26;" horiz-adv-x="1447" d="M524 -29q-199 0 -320.5 108.5t-121.5 287.5q0 244 301 424q-102 119 -137 189.5t-35 152.5q0 129 93 211.5t231 82.5q145 0 232 -79.5t87 -206.5q0 -104 -62.5 -182t-207.5 -177l362 -409q106 211 107 585q0 29 9 37.5t34 8.5h243v-127h-159q-6 -369 -144 -605l125 -141 h180v-129q-82 -14 -161 -14q-53 0 -83 14t-71 61l-78 87q-168 -179 -424 -179zM860 250l-405 459q-201 -145 -201 -330q0 -125 78 -196.5t217 -71.5q188 0 311 139zM713 1137q0 68 -47.5 115.5t-128.5 47.5q-76 0 -126.5 -45t-50.5 -122q0 -61 32 -115.5t120 -153.5 q109 82 155 142.5t46 130.5z" />
<glyph unicode="'" horiz-adv-x="493" d="M262 942h-78l-18 406q-2 31 11 42t46 11h107l-29 -430q-2 -18 -9 -23.5t-30 -5.5z" />
<glyph unicode="(" horiz-adv-x="673" d="M152 528.5q0 632.5 417 991.5l84 -86q-309 -354 -309 -905.5t309 -905.5l-84 -86q-417 359 -417 991.5z" />
<glyph unicode=")" horiz-adv-x="673" d="M522 528.5q0 -632.5 -418 -991.5l-84 86q309 354 309.5 905t-309.5 906l84 86q418 -359 418 -991.5z" />
<glyph unicode="*" horiz-adv-x="897" d="M618 643l-169 264l-170 -264l-115 90l203 240l-297 88l49 139l278 -129l-24 330h147l-20 -330l278 129l49 -139l-297 -88l203 -240z" />
<glyph unicode="+" d="M586 993v-264h266v-133h-266v-266h-133v266h-265v133h265v264h133z" />
<glyph unicode="," horiz-adv-x="464" d="M252 -289h-41v256q-96 20 -96 117v6q0 111 104 111h2q61 0 89 -33t28 -109q0 -158 -43 -317q-8 -31 -43 -31z" />
<glyph unicode="-" horiz-adv-x="649" d="M514 463h-379v145h379v-145z" />
<glyph unicode="." horiz-adv-x="464" d="M240 -29h-15q-102 0 -102 111v8q0 111 102 111h15q102 0 102 -111v-8q0 -111 -102 -111z" />
<glyph unicode="/" horiz-adv-x="935" d="M846 1427l-600 -1456h-156l600 1456h156z" />
<glyph unicode="0" horiz-adv-x="1159" d="M1065 698.5q0 -358.5 -115.5 -543t-367.5 -184.5t-368 184.5t-116 543t116 543.5t368 185t367.5 -185t115.5 -543.5zM889 698q0 301 -67.5 438.5t-239.5 137.5t-240 -137.5t-68 -438.5t68 -437t240 -136t239.5 136t67.5 437z" />
<glyph unicode="1" horiz-adv-x="776" d="M508 137h207v-137h-621v137h246v1135h-242v123q188 18 289 18q70 0 95.5 -23.5t25.5 -86.5v-1166z" />
<glyph unicode="2" horiz-adv-x="999" d="M246 143h514q4 102 35 195h110v-309q0 -16 -12 -22.5t-45 -6.5h-780q-6 20 -7 51q0 84 86 189l314 376q135 162 186 260.5t51 196.5q0 96 -53 146q-63 57 -258 57h-272v121q174 31 329 30q233 0 340 -106q88 -88 88 -252q0 -127 -65.5 -239.5t-241.5 -317.5z" />
<glyph unicode="3" horiz-adv-x="1030" d="M197 1098h-111v272q0 31 57 31h752q6 -16 6 -43q0 -55 -16.5 -95t-59.5 -96l-305 -381q193 -16 306.5 -113.5t113.5 -275.5q0 -195 -121 -309q-125 -117 -383 -117q-178 0 -313 25v127h217q270 0 352 74q74 66 74 196q0 115 -70 182q-84 82 -311 82h-68q-4 25 -4 37 q0 59 64 140l342 428h-490q1 -66 -32 -164z" />
<glyph unicode="4" horiz-adv-x="1118" d="M725 360h-633q-6 20 -6 52q0 41 31 133l282 823q8 20 17.5 26.5t32.5 6.5h122l-305 -905h459v374h166v-374h158v-136h-158v-360h-166v360z" />
<glyph unicode="5" horiz-adv-x="1036" d="M713 1262h-410l-4 -437h123q285 0 403 -112q113 -106 113 -316q0 -184 -113 -297q-127 -129 -389 -129q-141 0 -309 27v125h258q229 0 311 80q68 66 68 200q0 141 -68 207q-78 76 -299 76h-207q-27 0 -35 6t-8 25l9 684h643q57 0 57 -31v-272h-111q-32 98 -32 164z" />
<glyph unicode="6" horiz-adv-x="1114" d="M293 831q180 61 336 62q389 0 389 -432q0 -223 -118 -356.5t-322 -133.5q-461 0 -461 662v55q0 410 159 590q133 150 402 149q125 0 227 -24v-127h-180q-229 0 -322 -98q-98 -105 -110 -347zM289 711v-105q0 -242 65.5 -366.5t231.5 -124.5q125 0 196.5 91t71.5 243 q0 158 -65.5 230.5t-210.5 72.5q-117 0 -289 -41z" />
<glyph unicode="7" horiz-adv-x="1105" d="M856 1262h-596q-4 -104 -35 -197h-110v307q0 16 12 22.5t45 6.5h848q8 -20 8 -51q0 -49 -31 -129l-432 -1180q-10 -25 -21.5 -33t-39.5 -8h-142z" />
<glyph unicode="8" horiz-adv-x="1107" d="M160 1077q0 156 110.5 253t284.5 97q180 0 284.5 -93t104.5 -238q0 -203 -225 -357q141 -76 220 -160.5t79 -211.5q0 -178 -129 -287t-338 -109q-201 0 -331 105.5t-130 281.5q0 244 277 398q-207 135 -207 321zM258 365q0 -111 79 -178.5t222 -67.5q129 0 210 67.5 t81 178.5q0 33 -9.5 61.5t-34 56t-43 46t-61.5 44t-65 37.5l-77 41l-75 39q-227 -137 -227 -325zM786 1092q0 92 -59 143t-167.5 51t-171 -51t-62.5 -150q0 -90 70.5 -153.5t207.5 -132.5q182 146 182 293z" />
<glyph unicode="9" horiz-adv-x="1114" d="M821 567q-180 -61 -336 -61q-389 0 -389 432q0 223 118 356t323 133q461 0 460 -661v-55q0 -410 -159 -590q-133 -150 -402 -150q-125 0 -227 25v127h180q229 0 322 98q98 104 110 346zM825 688v105q0 242 -65.5 366.5t-231.5 124.5q-125 0 -196.5 -91t-71.5 -243 q0 -158 65.5 -230.5t211.5 -72.5q116 0 288 41z" />
<glyph unicode=":" horiz-adv-x="464" d="M240 -29h-15q-102 0 -102 111v8q0 111 102 111h15q102 0 102 -111v-8q0 -111 -102 -111zM240 606h-15q-102 0 -102 111v8q0 111 102 111h15q102 0 102 -111v-8q0 -111 -102 -111z" />
<glyph unicode=";" horiz-adv-x="464" d="M240 606h-15q-102 0 -102 111v8q0 111 102 111h15q102 0 102 -111v-8q0 -111 -102 -111zM258 -289h-41v256q-96 20 -96 117v6q0 111 104 111h2q61 0 89 -33t28 -109q0 -158 -43 -317q-8 -31 -43 -31z" />
<glyph unicode="&#x3c;" d="M188 596v133l664 338v-154l-510 -251l510 -250v-154z" />
<glyph unicode="=" d="M852 780h-664v133h664v-133zM852 412h-664v133h664v-133z" />
<glyph unicode="&#x3e;" d="M852 729v-133l-664 -338v154l510 250l-510 251v154z" />
<glyph unicode="?" horiz-adv-x="847" d="M90 1280v117q127 31 297 30q207 0 305 -94q92 -86 92 -229q0 -109 -41 -192t-151 -203q-104 -115 -136 -178.5t-36 -147.5h-117q-10 31 -10 68q0 70 27.5 127t101.5 153l20 27q96 125 131 192.5t35 141.5q0 92 -55 137q-61 51 -231 51h-232zM373 -29h-15q-102 0 -102 111 v8q0 111 102 111h15q102 0 102 -111v-8q0 -111 -102 -111z" />
<glyph unicode="@" horiz-adv-x="1593" d="M1137 326q-123 0 -187 55q-113 -61 -225 -62q-123 0 -189.5 65t-66.5 171q0 100 59 160q76 74 265 73h143v7q0 94 -33 127q-37 37 -155 36h-199v95q104 29 219 28q168 0 236 -69q63 -68 63 -178v-392q31 -6 59 -6q111 0 160 74q55 86 55 233q0 104 -30.5 199.5t-93 176.5 t-173 129t-253.5 48q-270 0 -421 -158.5t-151 -445.5q0 -289 166 -438q172 -158 537 -158h319v-90q-186 -35 -364 -35q-401 0 -609 199q-193 186 -192 526q0 332 196.5 531.5t515.5 199.5q322 0 507.5 -186t185.5 -473q0 -229 -101 -346q-83 -96 -243 -96zM758 432 q78 0 178 37v215h-145q-113 0 -154 -39q-33 -33 -33 -88q0 -125 154 -125z" />
<glyph unicode="A" horiz-adv-x="1312" d="M1006 135l-99 285h-538l-90 -285h112v-135h-391v135h117l415 1266h154q27 0 37 -8.5t20 -34.5l447 -1223h115v-135h-424v135h125zM625 1217l-211 -656h444z" />
<glyph unicode="B" horiz-adv-x="1275" d="M127 0v135h141v1131h-141v135h520q238 0 344 -101q92 -86 92 -247q0 -109 -52 -191t-150 -114q135 -25 214 -113t79 -227q0 -170 -84 -271q-117 -137 -420 -137h-543zM446 659v-524h191q195 0 274 64q82 66 82 204q0 125 -73 191q-76 66 -277 65h-197zM446 1266v-469h203 q141 0 201 65q57 61 57 178q0 111 -55 166q-59 59 -227 60h-179z" />
<glyph unicode="C" horiz-adv-x="1185" d="M944 1075q-8 18 -19.5 86t-11.5 103q-98 10 -153 10q-236 0 -349.5 -137.5t-113.5 -436.5q0 -317 127 -452q117 -125 426 -125h217v-125q-150 -27 -283 -27q-346 0 -497 170q-172 190 -172 557q0 356 170 542.5t467 186.5q162 0 290 -36q33 -8 33 -43v-273h-131z" />
<glyph unicode="D" horiz-adv-x="1400" d="M645 0h-518v135h141v1131h-141v135h479q367 0 520 -160q160 -166 160 -532q0 -387 -160 -555q-147 -154 -481 -154zM446 1262v-1123h201q240 0 344 113q115 125 115 457q0 315 -125 440q-113 113 -373 113h-162z" />
<glyph unicode="E" horiz-adv-x="1234" d="M1081 0h-954v135h141v1131h-141v135h944q29 0 38 -6t9 -21v-301h-121q-33 88 -32 193h-519v-480h394q20 0 26 -3t6 -15v-127h-426v-506h529q0 106 33 195h120v-303q0 -14 -9 -20.5t-38 -6.5z" />
<glyph unicode="F" horiz-adv-x="1150" d="M963 1266h-517v-480h398q20 0 26.5 -3t6.5 -15v-127h-431v-506h166v-135h-485v135h141v1131h-141v135h942q29 0 38 -6t9 -21v-301h-121q-32 89 -32 193z" />
<glyph unicode="G" horiz-adv-x="1343" d="M1137 1079h-131q-20 37 -31 189q-82 10 -199 10q-242 0 -352 -123q-129 -145 -129 -457q0 -293 96 -434t303 -141q156 0 303 51v371h-217v135h391v-680h-124q-20 25 -31 63q-160 -92 -354 -92q-274 0 -410.5 188.5t-136.5 536.5q0 375 184 566q164 166 463 165 q182 0 342 -36q33 -8 33 -45v-267z" />
<glyph unicode="H" horiz-adv-x="1511" d="M1065 1266h-141v135h460v-135h-141v-1131h141v-135h-460v135h141v506h-619v-506h142v-135h-461v135h141v1131h-141v135h461v-135h-142v-480h619v480z" />
<glyph unicode="I" horiz-adv-x="722" d="M272 135v1131h-141v135h461v-135h-141v-1131h141v-135h-461v135h141z" />
<glyph unicode="J" horiz-adv-x="919" d="M115 119h166q154 0 211 51q53 49 53 178v918h-348v135h526v-1036q0 -215 -102 -312q-88 -82 -265 -82q-123 0 -241 19v129z" />
<glyph unicode="K" horiz-adv-x="1361" d="M268 135v1131h-141v135h461v-135h-142v-566l551 633q35 41 65 54.5t79 13.5h168v-135h-156l-403 -439l411 -692h164v-131q-106 -10 -192 -10q-55 0 -82 17.5t-56 64.5l-364 622l-185 -200v-363h142v-135h-461v135h141z" />
<glyph unicode="L" horiz-adv-x="1173" d="M446 135h512q0 106 33 195h121v-303q0 -14 -9 -20.5t-38 -6.5h-938v135h141v1131h-141v135h461v-135h-142v-1131z" />
<glyph unicode="M" horiz-adv-x="1806" d="M1491 1401h188v-135h-141v-1131h141v-135h-448v135h141v883l-405 -707h-99q-51 0 -73 41l-371 674v-891h141v-135h-438v135h141v1131h-141v135h188q53 0 75 -11.5t42 -48.5l469 -864l479 860q20 37 43 50.5t68 13.5z" />
<glyph unicode="N" horiz-adv-x="1562" d="M315 1401q49 0 71 -9.5t46 -43.5l737 -1045v963h-141v135h436v-135h-141v-1266h-131l-770 1100v-965h141v-135h-436v135h141v1131h-141v135h188z" />
<glyph unicode="O" horiz-adv-x="1355" d="M678 133q205 0 293 144.5t88 421t-88 422t-293 145.5t-293 -145.5t-88 -422t88 -421t293 -144.5zM678 -29q-272 0 -417.5 184.5t-145.5 543t145.5 543.5t417.5 185t417.5 -185t145.5 -543.5t-145.5 -543t-417.5 -184.5z" />
<glyph unicode="P" horiz-adv-x="1230" d="M446 135h142v-135h-461v135h141v1131h-141v135h561q264 0 365 -94q109 -102 108 -314q0 -438 -424 -438q-125 0 -291 23v-443zM446 1266v-570h220q178 0 245.5 67.5t67.5 231.5q0 145 -72 211q-66 59 -231 60h-230z" />
<glyph unicode="Q" horiz-adv-x="1355" d="M1241 698q0 -233 -71.5 -399t-198.5 -250q233 -39 352 -127q-14 -53 -80 -141l-242 121q-94 45 -148 57t-175 12q-272 0 -417.5 184.5t-145.5 543t145.5 543.5t417.5 185t417.5 -185.5t145.5 -543.5zM678 133q205 0 293 144.5t88 421t-88 422t-293 145.5t-293 -145.5 t-88 -422t88 -421t293 -144.5z" />
<glyph unicode="R" horiz-adv-x="1343" d="M446 135h142v-135h-461v135h141v1131h-141v135h567q262 0 365 -96q109 -102 108 -306q0 -344 -272 -415l231 -449h156v-131q-106 -10 -174 -10q-57 0 -89 18.5t-54 63.5l-246 491h-273v-432zM446 1266v-557h226q178 0 245.5 67.5t67.5 224.5q0 141 -70 205 q-66 59 -231 60h-238z" />
<glyph unicode="S" horiz-adv-x="1161" d="M317 139q98 -20 226 -20q186 0 268 74q70 63 70 174q0 100 -49.5 151t-206.5 100l-107 33q-186 57 -272 140q-100 94 -101 253q0 170 109 273q125 117 377 117q168 0 319 -43q33 -8 33 -41v-244h-131q-8 16 -17.5 71.5t-9.5 90.5q-92 14 -200 14q-180 0 -254 -74 q-55 -55 -56 -145q0 -96 58 -154q63 -61 202 -102l113 -35q209 -68 287 -158q76 -88 76 -243q0 -176 -107 -279q-125 -123 -397 -123q-217 0 -354 41q-33 10 -33 43v250h131q26 -60 26 -164z" />
<glyph unicode="T" horiz-adv-x="1267" d="M113 1401h1042q29 0 38 -6t9 -21v-301h-121q-33 88 -32 193h-326v-1131h141v-135h-461v135h142v1131h-326q0 -104 -33 -193h-120v301q0 14 9 20.5t38 6.5z" />
<glyph unicode="U" horiz-adv-x="1464" d="M1085 1266h-141v135h434v-135h-141v-791q0 -258 -133 -381q-129 -123 -365 -123q-268 0 -395 140q-117 127 -117 381v774h-141v135h461v-135h-141v-768q0 -193 77 -273q88 -94 267 -94q166 0 251 86q84 88 84 268v781z" />
<glyph unicode="V" horiz-adv-x="1275" d="M1268 1266h-119l-389 -1266h-160q-31 0 -43 9t-22 36l-396 1221h-131v135h170q68 0 88.5 -12.5t34.5 -55.5l365 -1157l329 1090h-123v135h396v-135z" />
<glyph unicode="W" horiz-adv-x="1894" d="M1886 1266h-119l-315 -1266h-166q-31 0 -45 10t-20 35l-258 1122l-244 -1167h-172q-31 0 -44.5 9t-21.5 36l-342 1221h-131v135h170q70 0 91.5 -12.5t31.5 -55.5l309 -1157l238 1165q8 35 23.5 47.5t54.5 12.5h141l283 -1235l264 1100h-123v135h395v-135z" />
<glyph unicode="X" horiz-adv-x="1224" d="M862 76l-270 477l-277 -522q-16 -31 -51 -31h-139q-18 0 -10 18l399 672l-326 576h-139v135h176q49 0 69.5 -9.5t39.5 -41.5l289 -512l280 532q16 31 51 31h140q20 0 10 -19l-404 -680l322 -567h154v-131q-106 -8 -170 -8q-57 0 -87 16.5t-57 63.5z" />
<glyph unicode="Y" horiz-adv-x="1204" d="M131 1266h-123v135h152q57 0 81.5 -13.5t45.5 -52.5l329 -630l299 561h-108v135h389v-135h-113l-393 -701v-430h141v-135h-460v135h141v428z" />
<glyph unicode="Z" horiz-adv-x="1187" d="M1026 0h-903q-6 20 -6 55q0 66 47 140l704 1071h-604q0 -104 -33 -193h-118v301q0 14 9 20.5t38 6.5h907q6 -20 6 -53q0 -68 -47 -142l-704 -1071h600q0 109 32 197h119v-305q0 -14 -9 -20.5t-38 -6.5z" />
<glyph unicode="[" horiz-adv-x="720" d="M651 -424h-401v1907h401v-135h-227v-1637h227v-135z" />
<glyph unicode="\" horiz-adv-x="935" d="M690 -29l-600 1456h156l600 -1456h-156z" />
<glyph unicode="]" horiz-adv-x="720" d="M471 -424h-401v135h227v1637h-227v135h401v-1907z" />
<glyph unicode="^" d="M573 1401l353 -580h-152l-254 432l-254 -432h-151l352 580h106z" />
<glyph unicode="_" horiz-adv-x="866" d="M817 -221h-768v129h768v-129z" />
<glyph unicode="`" horiz-adv-x="868" d="M651 1266l-63 -80l-373 270l66 90q18 25 35.5 25t41.5 -25z" />
<glyph unicode="a" horiz-adv-x="1083" d="M733 162v313h-205q-145 0 -204 -45q-59 -43 -60 -135q0 -178 209 -178q137 0 260 45zM737 59q-152 -88 -307 -88q-145 0 -240.5 81t-95.5 235q0 137 80 217q100 102 336 102q76 0 223 -8v88q0 109 -45 152t-188 43h-312v106q168 45 363 45q188 0 276 -92q72 -74 72 -229 v-586h135v-123q-121 -14 -188 -14q-93 -1 -109 71z" />
<glyph unicode="b" horiz-adv-x="1105" d="M340 1372v-411q150 72 293 71q178 0 274 -129q104 -145 105 -395q0 -256 -95.5 -396.5t-281.5 -140.5q-156 0 -318 99q-4 -37 -22 -70h-121v1348h-139v122q135 12 190 13q63 0 92 -29q23 -23 23 -82zM586 881q-106 0 -246 -39v-668q119 -51 248 -51q131 0 191.5 86 t60.5 301q0 172 -56 272q-55 99 -198 99z" />
<glyph unicode="c" horiz-adv-x="952" d="M870 117v-105q-145 -41 -280 -41q-244 0 -373 141.5t-129 391.5q0 252 141 397q127 131 365 131q123 0 246 -28q33 -8 32 -43v-228h-127q-25 59 -28 154q-49 6 -101 6q-178 0 -260 -84q-96 -100 -96 -303q0 -205 88 -295q92 -94 311 -94h211z" />
<glyph unicode="d" horiz-adv-x="1128" d="M778 59v2q-164 -90 -301 -90q-186 0 -284.5 140.5t-98.5 396.5q0 244 105.5 384t289.5 140q133 0 281 -74v390h-139v122q135 12 190 13q63 0 92 -29q23 -23 23 -82v-1247h135v-123q-121 -14 -188 -14q-89 -1 -105 71zM522 123q129 0 248 47v674q-147 37 -238 37 q-266 0 -266 -371q0 -213 62.5 -300t193.5 -87z" />
<glyph unicode="e" horiz-adv-x="1036" d="M920 451h-660q6 -168 80 -244q84 -90 309 -90h254v-103q-154 -43 -315 -43q-252 0 -371 129q-129 137 -129 404q0 240 115.5 384t322.5 144q199 0 307.5 -134t108.5 -370v-59q1 -18 -22 -18zM262 582h522q-23 311 -258 311q-127 0 -193.5 -87t-70.5 -224z" />
<glyph unicode="f" horiz-adv-x="647" d="M375 1004h272v-127h-272v-877h-166v877h-174v98l174 31v135q0 178 84 262q86 86 254 86q117 0 196 -27v-114h-129q-145 0 -194 -41q-45 -39 -45 -177v-126z" />
<glyph unicode="g" horiz-adv-x="1050" d="M940 655q0 -176 -105.5 -276t-304.5 -100q-96 0 -170 24l-36 -153h311q209 0 295 -80q82 -76 82 -222q0 -172 -125 -254.5t-346 -82.5h-23q-203 0 -318.5 85t-115.5 230q0 113 90 215q-16 18 -16 55q0 88 114 246q-152 98 -151 313q0 176 105.5 276.5t303.5 100.5 q35 0 93 -8l98 264q90 -25 147 -61l-129 -234q201 -90 201 -338zM780 655.5q0 116.5 -57 178t-192.5 61.5t-192.5 -61.5t-57 -178t57 -178t192.5 -61.5t192.5 61.5t57 178zM299 -4q-23 0 -33 2v-4q-18 -88 -18 -133q0 -205 291 -205h4q307 0 307 182q0 80 -43 117 q-47 41 -182 41h-326z" />
<glyph unicode="h" horiz-adv-x="1179" d="M340 1372v-424q172 84 330 84q170 0 252 -88q72 -78 71 -239v-580h133v-123q-135 -12 -184 -12q-63 0 -92 28q-23 23 -23 82v566q0 123 -45 168t-166 45q-111 0 -276 -39v-840h-166v1348h-139v122q135 12 190 13q63 0 92 -29q23 -23 23 -82z" />
<glyph unicode="i" horiz-adv-x="524" d="M283 1210h-13q-100 0 -100 109v6q0 109 100 109h13q100 0 100 -109v-6q0 -109 -100 -109zM369 901v-901h-166v877h-144v122q135 12 195 13q63 0 92 -29q23 -23 23 -82z" />
<glyph unicode="j" horiz-adv-x="524" d="M283 1210h-13q-100 0 -100 109v6q0 109 100 109h13q100 0 100 -109v-6q0 -109 -100 -109zM369 901v-1032q0 -178 -66 -256q-68 -82 -213 -82q-82 0 -147 14v125h84q100 0 137 39q39 41 39 166v1002h-144v122q135 12 195 13q63 0 92 -29q23 -23 23 -82z" />
<glyph unicode="k" horiz-adv-x="1093" d="M340 1372v-848l369 410q41 45 70.5 57.5t86.5 12.5h133v-127h-141l-240 -248l318 -504h127v-119q-117 -12 -156 -12q-47 0 -71.5 13t-49.5 52l-280 453l-166 -164v-348h-166v1348h-139v122q135 12 190 13q63 0 92 -29q23 -23 23 -82z" />
<glyph unicode="l" horiz-adv-x="495" d="M340 1372v-1372h-166v1348h-139v122q135 12 190 13q63 0 92 -29q23 -23 23 -82z" />
<glyph unicode="m" horiz-adv-x="1789" d="M1438 100v566q0 123 -45 168t-156 45q-123 0 -268 -43q16 -49 16 -138v-698h-166v666q0 123 -45 168t-156 45q-121 0 -256 -39v-840h-165v877h-140v120q123 14 193 15q94 0 110 -66q150 86 310 86q172 0 254 -102q203 102 364.5 102t243.5 -88q72 -78 72 -239v-580h133 v-123q-135 -12 -185 -12q-63 0 -92 28q-22 23 -22 82z" />
<glyph unicode="n" horiz-adv-x="1202" d="M1016 125h133v-123q-135 -12 -184 -12q-63 0 -93 28q-23 23 -22 82v566q0 123 -45 168t-166 45q-111 0 -277 -39v-840h-165v877h-140v120q123 14 193 15q94 0 110 -64q172 84 332 84q170 0 252 -88q72 -78 72 -239v-580z" />
<glyph unicode="o" horiz-adv-x="1093" d="M1006 502q0 -250 -119 -390.5t-340 -140.5t-340 140.5t-119 390.5t119 390t340 140t340 -140t119 -390zM834 501.5q0 190.5 -68 287t-219.5 96.5t-219 -96.5t-67.5 -287t67.5 -286.5t219 -96t219.5 96t68 286.5z" />
<glyph unicode="p" horiz-adv-x="1126" d="M647 -29q-147 0 -285 80v-512h-165v1338h-140v120q123 14 193 15q94 0 110 -62q150 82 289 82q182 0 282.5 -139t100.5 -385q0 -254 -99.5 -395.5t-285.5 -141.5zM604 881q-86 0 -242 -43v-668q117 -47 244 -47q131 0 192.5 87t61.5 300q0 195 -64.5 283t-191.5 88z" />
<glyph unicode="q" horiz-adv-x="1103" d="M772 -371v424q-154 -82 -297 -82q-188 0 -284.5 139.5t-96.5 397.5q0 248 110.5 386t311.5 138q133 0 277 -90l20 62h125v-1350h139v-123q-135 -12 -190 -12q-63 0 -92 28q-23 23 -23 82zM524 121q119 0 248 51v664q-139 45 -242 45q-264 0 -264 -371q0 -203 59.5 -296 t198.5 -93z" />
<glyph unicode="r" horiz-adv-x="718" d="M362 838v-838h-165v877h-140v120q123 14 193 15q53 0 78.5 -16.5t31.5 -63.5q168 100 289 100q49 0 49 -43v-125h-53q-168 1 -283 -26z" />
<glyph unicode="s" horiz-adv-x="968" d="M131 264h123q18 -57 27 -137q80 -23 200 -23q141 0 199 50q43 37 43 108q0 68 -45 102.5t-146 59.5l-118 31q-162 41 -221 100q-72 72 -72 184q0 135 90 209q98 84 295 84q162 0 280 -28q39 -10 39 -48v-198h-123q-18 43 -26 131q-82 10 -168 10q-236 0 -236 -147 q0 -61 44 -94t147 -60l123 -31q154 -39 219 -104q72 -72 72 -191q0 -137 -86 -213q-100 -88 -308 -88q-182 0 -315 37q-37 10 -37 47v209z" />
<glyph unicode="t" horiz-adv-x="747" d="M201 1006v231q84 25 166 29v-262h272v-127h-272v-566q0 -115 28 -151q35 -43 135 -43h187v-109q-100 -37 -225 -37q-145 0 -218 68q-74 72 -73 256v582h-174v98z" />
<glyph unicode="u" horiz-adv-x="1193" d="M352 901v-563q0 -123 45 -168t166 -45t268 39v713h-133v127h299v-879h140v-119q-121 -14 -193 -14q-90 0 -108 63q-172 -84 -326 -84q-170 0 -252 88q-72 78 -72 240v578h-133v122q135 12 185 13q63 0 92 -29q22 -23 22 -82z" />
<glyph unicode="v" horiz-adv-x="1075" d="M711 877v120h352v-120h-96l-322 -877h-115q-45 0 -61 12.5t-31 53.5l-295 811h-131v120q106 12 152 13q63 0 89 -14.5t44 -65.5l268 -770l244 717h-98z" />
<glyph unicode="w" horiz-adv-x="1554" d="M748 997h147l217 -841l191 721h-97v120h336v-120h-92l-246 -877h-119q-47 0 -68.5 13.5t-29.5 52.5l-196 755l-185 -821h-127q-45 0 -65.5 14.5t-30.5 51.5l-248 811h-123v120q106 12 146 13q63 0 90.5 -15.5t42.5 -64.5l217 -768l166 776q8 33 23.5 46t50.5 13z" />
<glyph unicode="x" horiz-adv-x="1034" d="M711 66l-213 323l-209 -358q-18 -31 -53 -31h-125q-18 0 -9 18l322 484l-242 375h-125v120q113 10 146 11q51 0 72.5 -13.5t50.5 -56.5l209 -322l210 357q18 31 54 31h125q18 0 8 -19l-324 -481l248 -379h121v-123q-90 -8 -141 -8q-49 0 -72.5 14.5t-52.5 57.5z" />
<glyph unicode="y" horiz-adv-x="1155" d="M354 901v-563q0 -123 45 -168t166 -45t269 39v713h-134v127h299v-1074q0 -217 -100 -321q-96 -98 -305 -98q-121 0 -244 24v115h193q168 0 229 61q61 59 62 236v106q-168 -82 -322 -82q-170 0 -252 88q-72 78 -72 240v578h-133v122q135 12 185 13q63 0 92 -29 q22 -23 22 -82z" />
<glyph unicode="z" horiz-adv-x="999" d="M870 0h-747q-6 18 -6 55q0 59 53 131l532 691h-432q-8 -90 -26 -144h-125v238q0 33 35 33h739q6 -18 6 -56q0 -61 -53 -131l-533 -692h441q4 92 26 147h125v-239q0 -33 -35 -33z" />
<glyph unicode="{" horiz-adv-x="749" d="M115 461v135q117 25 164 82t47 192v365q0 131 59 189.5t197 58.5h86v-135h-52q-74 0 -97 -22.5t-23 -96.5v-361q0 -152 -47.5 -222.5t-151.5 -117.5q104 -47 151.5 -117.5t47.5 -222.5v-358q0 -74 23.5 -96.5t96.5 -22.5h52v-135h-86q-137 0 -196.5 58.5t-59.5 189.5v362 q0 135 -47 192.5t-164 82.5z" />
<glyph unicode="|" horiz-adv-x="489" d="M315 -518h-141v2066h141v-2066z" />
<glyph unicode="}" horiz-adv-x="749" d="M635 598v-135q-117 -25 -164 -82t-47 -193v-364q0 -131 -59.5 -189.5t-196.5 -58.5h-86v135h51q74 0 97.5 22.5t23.5 96.5v360q0 152 47 222.5t152 117.5q-104 47 -151.5 118t-47.5 222v359q0 74 -23.5 96.5t-97.5 22.5h-51v135h86q137 0 196.5 -58.5t59.5 -189.5v-363 q0 -135 47 -192t164 -82z" />
<glyph unicode="~" d="M797 866l100 -10q-4 -88 -52 -144.5t-134 -56.5q-55 0 -188.5 32t-180.5 32q-49 0 -70.5 -14.5t-29.5 -55.5l-101 10q4 88 52.5 143.5t134.5 55.5q55 0 190 -31.5t178 -31.5q47 0 70 15t31 56z" />
<glyph unicode="&#xa1;" horiz-adv-x="563" d="M188 -397l31 999q0 20 21 21h104l29 -1020h-185zM274 1032h15q102 0 102 -110v-9q0 -111 -102 -110h-15q-102 0 -102 110v9q0 110 102 110z" />
<glyph unicode="&#xa2;" horiz-adv-x="1093" d="M686 -262h-133v239q-197 27 -301.5 166.5t-104.5 360.5q0 246 136 391q96 104 270 131v238h133v-234q117 -6 225 -33q31 -8 31 -39v-233h-117q-14 39 -26 156q-66 10 -162 10q-317 0 -318 -379q0 -209 95 -303q92 -92 301 -92h219v-105q-119 -35 -248 -41v-233z" />
<glyph unicode="&#xa3;" horiz-adv-x="1185" d="M106 770l207 25q-20 119 -20 213q0 203 113 309q117 111 354 110q145 0 268 -32v-119h-221q-201 0 -275 -72q-63 -61 -63 -198q0 -92 20 -209h365v-121h-346q14 -96 14 -160q0 -172 -200 -379h616q4 106 35 199h110v-307q0 -16 -11 -22.5t-46 -6.5h-870q-8 37 -9 59 q0 45 14.5 77t65.5 97q68 88 93.5 142.5t25.5 130.5q0 70 -14 170h-226v94z" />
<glyph unicode="&#xa4;" horiz-adv-x="1163" d="M934 715q0 -125 -57 -217l153 -154l-90 -90l-149 147q-88 -61 -209 -61q-123 0 -211 61l-148 -147l-90 90l154 154q-57 92 -58 217q0 121 58 217l-154 153l90 91l148 -150q86 63 211 64q123 0 209 -64l149 150l90 -91l-153 -153q57 -96 57 -217zM373 714.5 q0 -243.5 209 -243.5t209 243.5t-209 243.5t-209 -243.5z" />
<glyph unicode="&#xa5;" horiz-adv-x="1245" d="M188 1266h-122v135h155q57 0 80 -12.5t43 -53.5l293 -630l262 561h-108v135h389v-135h-113l-305 -598h231v-121h-282v-121h282v-121h-282v-170h141v-135h-461v135h141v170h-276v121h276v121h-276v121h223z" />
<glyph unicode="&#xa6;" horiz-adv-x="489" d="M315 -518h-141v797h141v-797zM315 752h-141v796h141v-796z" />
<glyph unicode="&#xa7;" horiz-adv-x="1048" d="M143 748q0 102 76 174q-76 68 -76 200q0 305 387 305q168 0 326 -45q31 -10 31 -39v-204h-129q-18 47 -27 133q-90 20 -188 20q-133 0 -189.5 -39t-56.5 -114q0 -66 37 -99.5t125 -54.5l155 -35q158 -37 224.5 -104.5t66.5 -194.5q0 -102 -78 -174q78 -72 78 -201 q0 -305 -387 -305q-168 0 -325 45q-31 10 -31 39v205h129q18 -47 26 -133q90 -20 189 -21q133 0 189.5 39t56.5 115q0 66 -37 99.5t-125 54.5l-156 35q-158 37 -224.5 104.5t-66.5 194.5zM631 563l84 -22q37 47 37 108q0 59 -42 95t-137 57l-155 35q-57 12 -84 22 q-37 -47 -37 -108q0 -59 42 -95.5t136 -56.5z" />
<glyph unicode="&#xa8;" horiz-adv-x="868" d="M236 1243h-13q-106 0 -106 115v4q0 115 106 115h13q106 0 106 -115v-4q0 -115 -106 -115zM645 1243h-12q-106 0 -107 115v4q0 115 107 115h12q106 0 107 -115v-4q-1 -115 -107 -115z" />
<glyph unicode="&#xa9;" horiz-adv-x="1572" d="M1491 700.5q0 -311.5 -188.5 -520.5t-516 -209t-516 209t-188.5 520.5t188.5 519t516 207.5t516 -207.5t188.5 -519zM1348 700.5q0 278.5 -150.5 438t-411 159.5t-411 -159.5t-150.5 -438t150.5 -439.5t411 -161t411 161t150.5 439.5zM975 846h-94q-16 31 -23 96 q-14 2 -47 2q-98 0 -140 -57.5t-42 -179.5q0 -139 52 -188.5t183 -49.5h103v-90q-82 -20 -154 -21q-311 0 -311 347q0 168 78.5 259t224.5 91q82 0 143 -21q27 -10 27 -43v-145z" />
<glyph unicode="&#xaa;" horiz-adv-x="901" d="M549 844v178h-139q-152 0 -152 -107q0 -109 129 -108q96 0 162 37zM686 807h92v-100q-45 -6 -133 -7q-86 0 -94 54q-98 -59 -202.5 -59.5t-166 58t-61.5 154.5q0 113 73.5 166t202.5 53h152v72q0 66 -37 91.5t-129 25.5h-186v94q119 18 233 18q256 0 256 -231v-389z" />
<glyph unicode="&#xab;" horiz-adv-x="1146" d="M311 539l252 -375l-76 -55l-266 305q-70 80 -69.5 125t69.5 125l266 305l76 -56zM772 539l252 -375l-76 -55l-266 305q-70 80 -70 125t70 125l266 305l76 -56z" />
<glyph unicode="&#xac;" d="M852 913v-501h-133v368h-531v133h664z" />
<glyph unicode="&#xad;" horiz-adv-x="649" d="M514 463h-379v145h379v-145z" />
<glyph unicode="&#xae;" horiz-adv-x="1572" d="M700 473h62v-98h-244v98h62v471h-62v100h262q137 0 195 -55q47 -45 47 -143q0 -160 -115 -201l97 -172h75v-94q-49 -8 -106 -8q-49 0 -72 49l-110 211h-91v-158zM700 944v-213h74q76 0 103 27q27 25 26 88q0 51 -26 76q-25 23 -103 22h-74zM1491 700.5 q0 -311.5 -188.5 -520.5t-516 -209t-516 209t-188.5 520.5t188.5 519t516 207.5t516 -207.5t188.5 -519zM1348 700.5q0 278.5 -150.5 438t-411 159.5t-411 -159.5t-150.5 -438t150.5 -439.5t411 -161t411 161t150.5 439.5z" />
<glyph unicode="&#xaf;" horiz-adv-x="868" d="M711 1266h-553v143h553v-143z" />
<glyph unicode="&#xb0;" horiz-adv-x="925" d="M276 1058.5q0 -235.5 186.5 -235.5t186.5 235.5t-186.5 235.5t-186.5 -235.5zM803 1059q0 -166 -91 -267.5t-249 -101.5t-249 101.5t-91 267.5t91 267t249 101t249 -101t91 -267z" />
<glyph unicode="&#xb1;" d="M586 993v-264h266v-133h-266v-266h-133v266h-265v133h265v264h133zM852 0h-664v133h664v-133z" />
<glyph unicode="&#xb2;" horiz-adv-x="1024" d="M553 1010l-166 -176h266q4 68 17 106h100v-207q0 -20 -12 -20h-516q-4 29 -4 49q0 43 16 75.5t65 88.5l158 178q66 76 92.5 120t26.5 95q0 47 -29 72q-37 31 -133 30h-170v105q115 18 221 18q121 0 192 -55t71 -150q0 -80 -36 -140t-159 -189z" />
<glyph unicode="&#xb3;" horiz-adv-x="1024" d="M592 1407h-262q-4 -33 -17 -78h-96v176q0 20 12 21h514q4 -20 5 -39q0 -61 -52 -127l-133 -174q207 -33 207 -228q0 -113 -68 -184q-82 -82 -243 -82q-111 0 -217 21v102h182q121 0 166 43q35 35 35 98q0 76 -47.5 107t-159.5 31q-4 16 -4 34q0 35 41 91z" />
<glyph unicode="&#xb4;" horiz-adv-x="868" d="M279 1186l-64 80l293 280q25 25 42 25t36 -25l65 -90z" />
<glyph unicode="&#xb5;" horiz-adv-x="1204" d="M362 901v-582q0 -106 46 -149q45 -45 165.5 -45t268.5 39v713h-133v127h299v-879h137v-119q-121 -14 -191 -14q-90 0 -108 63q-172 -84 -326 -84q-88 0 -158 27v-459h-165v1338h-136v122q135 12 187 13q63 0 92 -29q22 -23 22 -82z" />
<glyph unicode="&#xb6;" horiz-adv-x="1232" d="M532 1401h576v-135h-143v-1682h-148v1682h-162v-1682h-147v1084q-180 0 -284.5 96t-104.5 270q0 156 86 252q104 115 327 115z" />
<glyph unicode="&#xb7;" horiz-adv-x="464" d="M240 600h-15q-102 0 -102 111v8q0 111 102 110h15q102 0 102 -110v-8q0 -111 -102 -111z" />
<glyph unicode="&#xb8;" horiz-adv-x="868" d="M309 25h80q-14 -49 -14 -64q0 -27 19.5 -43t88.5 -43q78 -31 114 -68.5t36 -103.5q0 -84 -55 -139q-59 -57 -177 -58q-102 0 -165 27v88h141q113 0 112 64q0 29 -21.5 45t-86.5 43q-76 31 -101.5 58.5t-25.5 76.5q0 58 55 117z" />
<glyph unicode="&#xb9;" horiz-adv-x="1024" d="M598 834h147v-121h-466v121h174v571h-166v119q135 8 219 8q49 0 70.5 -17.5t21.5 -56.5v-624z" />
<glyph unicode="&#xba;" horiz-adv-x="901" d="M774 1065q0 -160 -82 -263.5t-241.5 -103.5t-241.5 103.5t-82 263.5t82 263.5t241.5 103.5t241.5 -103.5t82 -263.5zM627 1065q0 240 -176.5 240t-176.5 -240t176.5 -240t176.5 240z" />
<glyph unicode="&#xbb;" horiz-adv-x="1146" d="M123 164l252 375l-252 374l76 56l266 -305q70 -80 70 -125t-70 -125l-266 -305zM584 164l252 375l-252 374l75 56l267 -305q70 -80 69.5 -125t-69.5 -125l-267 -305z" />
<glyph unicode="&#xbc;" horiz-adv-x="2007" d="M1559 197h-363q-6 18 -6 41q0 35 18 90l162 454q10 31 39 31h109l-177 -504h218v217h139v-217h112v-112h-112v-197h-139v197zM1432 1427l-723 -1456h-156l723 1456h156zM537 713h147v-121h-467v121h174v571h-166v119q135 8 219 8q49 0 71 -17.5t22 -56.5v-624z" />
<glyph unicode="&#xbd;" horiz-adv-x="2007" d="M1423 1427l-723 -1456h-155l723 1456h155zM528 713h148v-121h-467v121h174v571h-166v119q135 8 219 8q49 0 70.5 -17.5t21.5 -56.5v-624zM1567 297l-166 -176h266q4 68 16 106h101v-207q0 -20 -12 -20h-517q-4 29 -4 49q0 43 16.5 76t65.5 88l158 178q66 76 92.5 120 t26.5 95q0 47 -29 72q-37 31 -133 31h-170v104q115 18 221 18q121 0 191.5 -55t70.5 -149q0 -80 -35.5 -140.5t-158.5 -189.5z" />
<glyph unicode="&#xbe;" horiz-adv-x="2007" d="M1581 197h-362q-6 18 -7 41q0 35 19 90l162 454q10 31 39 31h108l-176 -504h217v217h139v-217h113v-112h-113v-197h-139v197zM1454 1427l-723 -1456h-156l723 1456h156zM588 1282h-262q-4 -33 -17 -78h-96v176q0 20 12 21h514q4 -20 4 -39q0 -59 -51 -127l-133 -174 q207 -33 207 -227q0 -113 -68 -185q-82 -82 -243 -82q-111 0 -217 21v102h182q121 0 166 43q35 35 35 98q0 76 -47.5 107t-159.5 31q-4 16 -4 35q0 35 41 90z" />
<glyph unicode="&#xbf;" horiz-adv-x="847" d="M758 -276v-117q-127 -31 -297 -31q-207 0 -305 94q-92 86 -93 230q0 109 41 191.5t152 203.5q104 115 136 178.5t36 147.5h117q10 -31 10 -68q0 -70 -27.5 -127t-101.5 -154l-20 -26q-96 -125 -131 -192.5t-35 -141.5q0 -92 55 -137q61 -51 231 -51h232zM475 1032h14 q102 0 103 -110v-9q0 -111 -103 -110h-14q-102 0 -102 110v9q0 110 102 110z" />
<glyph unicode="&#xc0;" horiz-adv-x="1312" d="M1006 135l-99 285h-538l-90 -285h112v-135h-391v135h117l415 1266h154q27 0 37 -8.5t20 -34.5l447 -1223h115v-135h-424v135h125zM625 1217l-211 -656h444zM834 1614l-64 -80l-373 270l66 90q18 25 35.5 25t42.5 -25z" />
<glyph unicode="&#xc1;" horiz-adv-x="1312" d="M1006 135l-99 285h-538l-90 -285h112v-135h-391v135h117l415 1266h154q27 0 37 -8.5t20 -34.5l447 -1223h115v-135h-424v135h125zM625 1217l-211 -656h444zM502 1534l-64 80l293 280q25 25 42.5 25t35.5 -25l65 -90z" />
<glyph unicode="&#xc2;" horiz-adv-x="1312" d="M1006 135l-99 285h-538l-90 -285h112v-135h-391v135h117l415 1266h154q27 0 37 -8.5t20 -34.5l447 -1223h115v-135h-424v135h125zM625 1217l-211 -656h444zM608 1890h33q39 0 60.5 -11t48.5 -48l186 -227l-68 -58l-243 211l-244 -211l-68 58l187 227q27 37 48 48t60 11z " />
<glyph unicode="&#xc3;" horiz-adv-x="1312" d="M1006 135l-99 285h-538l-90 -285h112v-135h-391v135h117l415 1266h154q27 0 37 -8.5t20 -34.5l447 -1223h115v-135h-424v135h125zM625 1217l-211 -656h444zM817 1817l96 -11q-4 -98 -47 -155.5t-108 -57.5q-55 0 -143.5 41t-129.5 41q-31 0 -47 -16.5t-24 -59.5l-97 11 q2 98 46.5 155.5t109.5 57.5q55 0 143.5 -41t128.5 -41q31 0 47.5 16.5t24.5 59.5z" />
<glyph unicode="&#xc4;" horiz-adv-x="1312" d="M1006 135l-99 285h-538l-90 -285h112v-135h-391v135h117l415 1266h154q27 0 37 -8.5t20 -34.5l447 -1223h115v-135h-424v135h125zM625 1217l-211 -656h444zM424 1591h-12q-106 0 -107 115v4q0 115 107 115h12q106 0 106 -115v-4q0 -115 -106 -115zM834 1591h-13 q-106 0 -106 115v4q0 115 106 115h13q106 0 106 -115v-4q0 -115 -106 -115z" />
<glyph unicode="&#xc5;" horiz-adv-x="1312" d="M1006 135l-99 285h-538l-90 -285h112v-135h-391v135h117l415 1266h154q27 0 37 -8.5t20 -34.5l447 -1223h115v-135h-424v135h125zM625 1217l-211 -656h444zM508 1765.5q0 -69.5 22.5 -96.5t90.5 -27h6q68 0 90 27t22 96.5t-22.5 96t-89.5 26.5h-6q-68 0 -90.5 -26.5 t-22.5 -96zM387 1761v8q0 231 234 232h6q233 0 233 -232v-8q0 -231 -233 -231h-6q-234 0 -234 231z" />
<glyph unicode="&#xc6;" horiz-adv-x="1894" d="M537 561h391v688zM1624 1266h-518v-480h393q20 0 26.5 -3t6.5 -15v-127h-426v-506h528q0 106 33 195h121v-303q0 -14 -9.5 -20.5t-37.5 -6.5h-955v135h142v285h-471l-160 -285h113v-135h-402v135h117l692 1200q27 45 42 55.5t50 10.5h822q29 0 38 -6t9 -21v-301h-121 q-33 89 -33 193z" />
<glyph unicode="&#xc7;" horiz-adv-x="1185" d="M944 1075q-8 18 -19.5 86t-11.5 103q-98 10 -153 10q-236 0 -349.5 -137.5t-113.5 -436.5q0 -317 127 -452q117 -125 426 -125h217v-125q-150 -27 -283 -27q-12 0 -35.5 1t-33.5 1v-12q0 -27 19.5 -43t88.5 -43q78 -31 114 -68.5t36 -103.5q0 -84 -55 -139 q-59 -57 -177 -58q-102 0 -166 27v88h142q113 0 112 64q0 29 -21.5 45t-86.5 43q-76 31 -101.5 58.5t-25.5 76.5q0 37 22 76q-221 35 -329 157q-172 190 -172 557q0 356 170 542.5t467 186.5q162 0 290 -36q33 -8 33 -43v-273h-131z" />
<glyph unicode="&#xc8;" horiz-adv-x="1243" d="M1081 0h-954v135h141v1131h-141v135h944q29 0 38 -6t9 -21v-301h-121q-33 88 -32 193h-519v-480h394q20 0 26 -3t6 -15v-127h-426v-506h529q0 106 33 195h120v-303q0 -14 -9 -20.5t-38 -6.5zM840 1614l-64 -80l-373 270l66 90q18 25 35.5 25t42.5 -25z" />
<glyph unicode="&#xc9;" horiz-adv-x="1243" d="M1081 0h-954v135h141v1131h-141v135h944q29 0 38 -6t9 -21v-301h-121q-33 88 -32 193h-519v-480h394q20 0 26 -3t6 -15v-127h-426v-506h529q0 106 33 195h120v-303q0 -14 -9 -20.5t-38 -6.5zM508 1534l-64 80l293 280q25 25 42.5 25t35.5 -25l66 -90z" />
<glyph unicode="&#xca;" horiz-adv-x="1243" d="M1081 0h-954v135h141v1131h-141v135h944q29 0 38 -6t9 -21v-301h-121q-33 88 -32 193h-519v-480h394q20 0 26 -3t6 -15v-127h-426v-506h529q0 106 33 195h120v-303q0 -14 -9 -20.5t-38 -6.5zM621 1890h32q39 0 60.5 -11t48.5 -48l186 -227l-67 -58l-244 211l-244 -211 l-67 58l186 227q27 37 48.5 48t60.5 11z" />
<glyph unicode="&#xcb;" horiz-adv-x="1243" d="M1081 0h-954v135h141v1131h-141v135h944q29 0 38 -6t9 -21v-301h-121q-33 88 -32 193h-519v-480h394q20 0 26 -3t6 -15v-127h-426v-506h529q0 106 33 195h120v-303q0 -14 -9 -20.5t-38 -6.5zM438 1591h-12q-106 0 -107 115v4q0 115 107 115h12q106 0 107 -115v-4 q-1 -115 -107 -115zM848 1591h-12q-106 0 -107 115v4q0 115 107 115h12q106 0 106 -115v-4q0 -115 -106 -115z" />
<glyph unicode="&#xcc;" horiz-adv-x="722" d="M272 135v1131h-141v135h461v-135h-141v-1131h141v-135h-461v135h141zM580 1614l-64 -80l-373 270l66 90q18 25 35.5 25t42.5 -25z" />
<glyph unicode="&#xcd;" horiz-adv-x="722" d="M272 135v1131h-141v135h461v-135h-141v-1131h141v-135h-461v135h141zM207 1534l-64 80l293 280q25 25 42.5 25t35.5 -25l66 -90z" />
<glyph unicode="&#xce;" horiz-adv-x="722" d="M272 135v1131h-141v135h461v-135h-141v-1131h141v-135h-461v135h141zM346 1890h33q39 0 60.5 -11t47.5 -48l187 -227l-68 -58l-244 211l-243 -211l-68 58l187 227q27 37 48 48t60 11z" />
<glyph unicode="&#xcf;" horiz-adv-x="722" d="M272 135v1131h-141v135h461v-135h-141v-1131h141v-135h-461v135h141zM164 1591h-12q-106 0 -107 115v4q0 115 107 115h12q106 0 106 -115v-4q0 -115 -106 -115zM573 1591h-12q-106 0 -106 115v4q0 115 106 115h12q106 0 107 -115v-4q-1 -115 -107 -115z" />
<glyph unicode="&#xd0;" horiz-adv-x="1415" d="M102 643v115l181 22v486h-142v135h480q367 0 520 -160q160 -166 159 -532q0 -387 -159 -555q-147 -154 -482 -154h-518v135h142v508h-181zM461 1262v-478h284v-141h-284v-504h201q240 0 344 113q115 125 114 457q0 315 -125 440q-113 113 -372 113h-162z" />
<glyph unicode="&#xd1;" horiz-adv-x="1562" d="M315 1401q49 0 71 -9.5t46 -43.5l737 -1045v963h-141v135h436v-135h-141v-1266h-131l-770 1100v-965h141v-135h-436v135h141v1131h-141v135h188zM983 1817l96 -11q-4 -98 -47 -155.5t-108 -57.5q-55 0 -143.5 41t-129.5 41q-31 0 -47 -16.5t-24 -59.5l-97 11 q2 98 46 155.5t110 57.5q55 0 143 -41t129 -41q31 0 47.5 16.5t24.5 59.5z" />
<glyph unicode="&#xd2;" horiz-adv-x="1355" d="M678 133q205 0 293 144.5t88 421t-88 422t-293 145.5t-293 -145.5t-88 -422t88 -421t293 -144.5zM678 -29q-272 0 -417.5 184.5t-145.5 543t145.5 543.5t417.5 185t417.5 -185t145.5 -543.5t-145.5 -543t-417.5 -184.5zM895 1614l-64 -80l-372 270l65 90q18 25 36 25 t42 -25z" />
<glyph unicode="&#xd3;" horiz-adv-x="1355" d="M678 133q205 0 293 144.5t88 421t-88 422t-293 145.5t-293 -145.5t-88 -422t88 -421t293 -144.5zM678 -29q-272 0 -417.5 184.5t-145.5 543t145.5 543.5t417.5 185t417.5 -185t145.5 -543.5t-145.5 -543t-417.5 -184.5zM522 1534l-63 80l293 280q25 25 42 25t35 -25 l66 -90z" />
<glyph unicode="&#xd4;" horiz-adv-x="1355" d="M678 133q205 0 293 144.5t88 421t-88 422t-293 145.5t-293 -145.5t-88 -422t88 -421t293 -144.5zM678 -29q-272 0 -417.5 184.5t-145.5 543t145.5 543.5t417.5 185t417.5 -185t145.5 -543.5t-145.5 -543t-417.5 -184.5zM662 1890h32q39 0 60.5 -11t48.5 -48l186 -227 l-67 -58l-244 211l-244 -211l-67 58l186 227q27 37 48.5 48t60.5 11z" />
<glyph unicode="&#xd5;" horiz-adv-x="1355" d="M678 133q205 0 293 144.5t88 421t-88 422t-293 145.5t-293 -145.5t-88 -422t88 -421t293 -144.5zM678 -29q-272 0 -417.5 184.5t-145.5 543t145.5 543.5t417.5 185t417.5 -185t145.5 -543.5t-145.5 -543t-417.5 -184.5zM879 1817l96 -11q-4 -98 -47 -155.5t-109 -57.5 q-55 0 -143 41t-129 41q-31 0 -47.5 -16.5t-24.5 -59.5l-96 11q2 98 46 155.5t110 57.5q55 0 143 -41t129 -41q31 0 47.5 16.5t24.5 59.5z" />
<glyph unicode="&#xd6;" horiz-adv-x="1355" d="M678 133q205 0 293 144.5t88 421t-88 422t-293 145.5t-293 -145.5t-88 -422t88 -421t293 -144.5zM678 -29q-272 0 -417.5 184.5t-145.5 543t145.5 543.5t417.5 185t417.5 -185t145.5 -543.5t-145.5 -543t-417.5 -184.5zM479 1591h-12q-106 0 -107 115v4q0 115 107 115h12 q106 0 107 -115v-4q-1 -115 -107 -115zM889 1591h-12q-106 0 -107 115v4q0 115 107 115h12q106 0 106 -115v-4q0 -115 -106 -115z" />
<glyph unicode="&#xd7;" d="M332 942l186 -186l189 188l94 -94l-189 -188l189 -189l-94 -94l-189 188l-186 -186l-94 94l186 187l-186 186z" />
<glyph unicode="&#xd8;" horiz-adv-x="1355" d="M678 -29q-100 0 -191 29l-53 -160h-127l72 207q-264 164 -264 651q0 358 145.5 543.5t417.5 185.5q88 0 168 -22l55 158h125l-70 -201q285 -158 285 -664q0 -358 -145.5 -542.5t-417.5 -184.5zM678 133q205 0 293 144.5t88 420.5q0 375 -158 500l-360 -1044 q59 -21 137 -21zM297 698q0 -352 139 -483l357 1036q-61 14 -115 15q-205 0 -293 -146t-88 -422z" />
<glyph unicode="&#xd9;" horiz-adv-x="1464" d="M1085 1266h-141v135h434v-135h-141v-791q0 -258 -133 -381q-129 -123 -365 -123q-268 0 -395 140q-117 127 -117 381v774h-141v135h461v-135h-141v-768q0 -193 77 -273q88 -94 267 -94q166 0 251 86q84 88 84 268v781zM967 1614l-64 -80l-373 270l66 90q18 25 35.5 25 t42.5 -25z" />
<glyph unicode="&#xda;" horiz-adv-x="1464" d="M1085 1266h-141v135h434v-135h-141v-791q0 -258 -133 -381q-129 -123 -365 -123q-268 0 -395 140q-117 127 -117 381v774h-141v135h461v-135h-141v-768q0 -193 77 -273q88 -94 267 -94q166 0 251 86q84 88 84 268v781zM592 1534l-64 80l293 280q25 25 42.5 25t35.5 -25 l66 -90z" />
<glyph unicode="&#xdb;" horiz-adv-x="1464" d="M1085 1266h-141v135h434v-135h-141v-791q0 -258 -133 -381q-129 -123 -365 -123q-268 0 -395 140q-117 127 -117 381v774h-141v135h461v-135h-141v-768q0 -193 77 -273q88 -94 267 -94q166 0 251 86q84 88 84 268v781zM731 1890h33q39 0 60.5 -11t47.5 -48l187 -227 l-68 -58l-243 211l-244 -211l-68 58l187 227q27 37 48 48t60 11z" />
<glyph unicode="&#xdc;" horiz-adv-x="1464" d="M1085 1266h-141v135h434v-135h-141v-791q0 -258 -133 -381q-129 -123 -365 -123q-268 0 -395 140q-117 127 -117 381v774h-141v135h461v-135h-141v-768q0 -193 77 -273q88 -94 267 -94q166 0 251 86q84 88 84 268v781zM547 1591h-12q-106 0 -107 115v4q0 115 107 115h12 q106 0 106 -115v-4q0 -115 -106 -115zM956 1591h-12q-106 0 -106 115v4q0 115 106 115h12q106 0 107 -115v-4q-1 -115 -107 -115z" />
<glyph unicode="&#xdd;" horiz-adv-x="1204" d="M131 1266h-123v135h152q57 0 81.5 -13.5t45.5 -52.5l329 -630l299 561h-108v135h389v-135h-113l-393 -701v-430h141v-135h-460v135h141v428zM483 1534l-63 80l293 280q25 25 42 25t36 -25l65 -90z" />
<glyph unicode="&#xde;" horiz-adv-x="1236" d="M272 135v1131h-141v135h461v-135h-141v-136h239q264 0 365 -94q109 -102 108 -313q0 -438 -424 -438q-123 0 -288 22v-172h141v-135h-461v135h141zM678 995h-227v-569h217q178 0 245.5 67.5t67.5 231.5q0 145 -72 211q-65 59 -231 59z" />
<glyph unicode="&#xdf;" horiz-adv-x="1288" d="M666 123q82 -18 165 -19q139 0 195 48q53 43 53 110q0 72 -50 114t-187 89q-178 61 -248 123.5t-70 148.5q0 72 42 129.5t143 126.5q86 61 119.5 105.5t33.5 101.5q0 72 -55 115t-143 43q-127 0 -201 -70q-88 -86 -88 -274v-1014h-166v877h-174v98l174 31v34 q0 219 128 334t337 115q160 0 251 -78t91 -199q0 -90 -53.5 -163.5t-116 -111.5t-115.5 -85t-53 -92q0 -49 49 -81t199 -87q162 -59 235.5 -132t73.5 -194q0 -125 -92 -205q-102 -90 -305 -90q-160 0 -287 39q-33 10 -33 45v203h121q19 -45 27 -135z" />
<glyph unicode="&#xe0;" horiz-adv-x="1083" d="M733 162v313h-205q-145 0 -204 -45q-59 -43 -60 -135q0 -178 209 -178q137 0 260 45zM737 59q-152 -88 -307 -88q-145 0 -240.5 81t-95.5 235q0 137 80 217q100 102 336 102q76 0 223 -8v88q0 109 -45 152t-188 43h-312v106q168 45 363 45q188 0 276 -92q72 -74 72 -229 v-586h135v-123q-121 -14 -188 -14q-93 -1 -109 71zM772 1266l-63 -80l-373 270l65 90q18 25 36 25t42 -25z" />
<glyph unicode="&#xe1;" horiz-adv-x="1083" d="M733 162v313h-205q-145 0 -204 -45q-59 -43 -60 -135q0 -178 209 -178q137 0 260 45zM737 59q-152 -88 -307 -88q-145 0 -240.5 81t-95.5 235q0 137 80 217q100 102 336 102q76 0 223 -8v88q0 109 -45 152t-188 43h-312v106q168 45 363 45q188 0 276 -92q72 -74 72 -229 v-586h135v-123q-121 -14 -188 -14q-93 -1 -109 71zM418 1186l-64 80l293 280q25 25 42.5 25t35.5 -25l66 -90z" />
<glyph unicode="&#xe2;" horiz-adv-x="1083" d="M733 162v313h-205q-145 0 -204 -45q-59 -43 -60 -135q0 -178 209 -178q137 0 260 45zM737 59q-152 -88 -307 -88q-145 0 -240.5 81t-95.5 235q0 137 80 217q100 102 336 102q76 0 223 -8v88q0 109 -45 152t-188 43h-312v106q168 45 363 45q188 0 276 -92q72 -74 72 -229 v-586h135v-123q-121 -14 -188 -14q-93 -1 -109 71zM512 1542h33q39 0 60.5 -11t47.5 -48l187 -228l-68 -57l-244 211l-243 -211l-68 57l186 228q27 37 48.5 48t60.5 11z" />
<glyph unicode="&#xe3;" horiz-adv-x="1083" d="M733 162v313h-205q-145 0 -204 -45q-59 -43 -60 -135q0 -178 209 -178q137 0 260 45zM737 59q-152 -88 -307 -88q-145 0 -240.5 81t-95.5 235q0 137 80 217q100 102 336 102q76 0 223 -8v88q0 109 -45 152t-188 43h-312v106q168 45 363 45q188 0 276 -92q72 -74 72 -229 v-586h135v-123q-121 -14 -188 -14q-93 -1 -109 71zM723 1468l96 -10q-4 -98 -47 -155.5t-108 -57.5q-55 0 -143.5 41t-129.5 41q-31 0 -47 -16.5t-25 -59.5l-96 11q2 98 46 155.5t110 57.5q55 0 143 -41t129 -41q31 0 47.5 16t24.5 59z" />
<glyph unicode="&#xe4;" horiz-adv-x="1083" d="M733 162v313h-205q-145 0 -204 -45q-59 -43 -60 -135q0 -178 209 -178q137 0 260 45zM737 59q-152 -88 -307 -88q-145 0 -240.5 81t-95.5 235q0 137 80 217q100 102 336 102q76 0 223 -8v88q0 109 -45 152t-188 43h-312v106q168 45 363 45q188 0 276 -92q72 -74 72 -229 v-586h135v-123q-121 -14 -188 -14q-93 -1 -109 71zM336 1243h-12q-106 0 -107 115v4q0 115 107 115h12q106 0 106 -115v-4q0 -115 -106 -115zM745 1243h-12q-106 0 -106 115v4q0 115 106 115h12q106 0 107 -115v-4q-1 -115 -107 -115z" />
<glyph unicode="&#xe5;" horiz-adv-x="1083" d="M733 162v313h-205q-145 0 -204 -45q-59 -43 -60 -135q0 -178 209 -178q137 0 260 45zM737 59q-152 -88 -307 -88q-145 0 -240.5 81t-95.5 235q0 137 80 217q100 102 336 102q76 0 223 -8v88q0 109 -45 152t-188 43h-312v106q168 45 363 45q188 0 276 -92q72 -74 72 -229 v-586h135v-123q-121 -14 -188 -14q-93 -1 -109 71zM422 1417.5q0 -69.5 22.5 -96.5t90.5 -27h6q68 0 90 27t22 96.5t-22.5 96t-89.5 26.5h-6q-68 0 -90.5 -26.5t-22.5 -96zM301 1413v8q0 231 234 232h6q233 0 233 -232v-8q0 -231 -233 -231h-6q-234 0 -234 231z" />
<glyph unicode="&#xe6;" horiz-adv-x="1671" d="M1554 451h-659q6 -168 80 -244q84 -90 309 -90h254v-103q-154 -43 -315 -43q-248 0 -367 123q-186 -123 -412 -123q-168 0 -259 83t-91 233q0 137 80 217q100 102 336 102q76 0 223 -8v88q0 109 -45 152t-188 43h-312v106q168 45 363 45q219 0 305 -129q113 129 305 129 q199 0 307.5 -134t108.5 -370v-59q0 -18 -23 -18zM496 117q143 0 295 73q-53 111 -58 285h-205q-145 0 -204 -45q-59 -43 -60 -135q0 -86 51.5 -132t180.5 -46zM897 582h522q-23 311 -258 311q-127 0 -193.5 -87t-70.5 -224z" />
<glyph unicode="&#xe7;" horiz-adv-x="952" d="M870 117v-105q-145 -41 -280 -41q-8 0 -26.5 1t-28.5 1v-12q0 -27 19 -43t89 -43q78 -31 114 -68.5t36 -103.5q0 -84 -56 -139q-59 -57 -176 -58q-102 0 -166 27v88h142q113 0 112 64q0 29 -21.5 45t-86.5 43q-76 31 -101.5 58.5t-25.5 76.5q0 43 24 80q-137 31 -221 125 q-129 141 -129 391q0 252 141 397q127 131 365 131q123 0 246 -28q33 -8 32 -43v-228h-127q-25 59 -28 154q-49 6 -101 6q-178 0 -260 -84q-96 -100 -96 -303q0 -205 88 -295q92 -94 311 -94h211z" />
<glyph unicode="&#xe8;" horiz-adv-x="1036" d="M920 451h-660q6 -168 80 -244q84 -90 309 -90h254v-103q-154 -43 -315 -43q-252 0 -371 129q-129 137 -129 404q0 240 115.5 384t322.5 144q199 0 307.5 -134t108.5 -370v-59q1 -18 -22 -18zM262 582h522q-23 311 -258 311q-127 0 -193.5 -87t-70.5 -224zM760 1266 l-64 -80l-372 270l65 90q18 25 35.5 25t42.5 -25z" />
<glyph unicode="&#xe9;" horiz-adv-x="1036" d="M920 451h-660q6 -168 80 -244q84 -90 309 -90h254v-103q-154 -43 -315 -43q-252 0 -371 129q-129 137 -129 404q0 240 115.5 384t322.5 144q199 0 307.5 -134t108.5 -370v-59q1 -18 -22 -18zM262 582h522q-23 311 -258 311q-127 0 -193.5 -87t-70.5 -224zM375 1186 l-64 80l293 280q25 25 42.5 25t35.5 -25l66 -90z" />
<glyph unicode="&#xea;" horiz-adv-x="1036" d="M920 451h-660q6 -168 80 -244q84 -90 309 -90h254v-103q-154 -43 -315 -43q-252 0 -371 129q-129 137 -129 404q0 240 115.5 384t322.5 144q199 0 307.5 -134t108.5 -370v-59q1 -18 -22 -18zM262 582h522q-23 311 -258 311q-127 0 -193.5 -87t-70.5 -224zM514 1542h33 q39 0 60.5 -11t47.5 -48l187 -228l-68 -57l-244 211l-243 -211l-68 57l187 228q27 37 48 48t60 11z" />
<glyph unicode="&#xeb;" horiz-adv-x="1036" d="M920 451h-660q6 -168 80 -244q84 -90 309 -90h254v-103q-154 -43 -315 -43q-252 0 -371 129q-129 137 -129 404q0 240 115.5 384t322.5 144q199 0 307.5 -134t108.5 -370v-59q1 -18 -22 -18zM262 582h522q-23 311 -258 311q-127 0 -193.5 -87t-70.5 -224zM330 1243h-13 q-106 0 -106 115v4q0 115 106 115h13q106 0 106 -115v-4q0 -115 -106 -115zM739 1243h-12q-106 0 -106 115v4q0 115 106 115h12q106 0 107 -115v-4q-1 -115 -107 -115z" />
<glyph unicode="&#xec;" horiz-adv-x="524" d="M369 901v-901h-166v877h-144v122q135 12 195 13q63 0 92 -29q23 -23 23 -82zM449 1266l-64 -80l-373 270l66 90q18 25 35.5 25t42.5 -25z" />
<glyph unicode="&#xed;" horiz-adv-x="524" d="M369 901v-901h-166v877h-144v122q135 12 195 13q63 0 92 -29q23 -23 23 -82zM125 1186l-64 80l293 280q25 25 42.5 25t35.5 -25l66 -90z" />
<glyph unicode="&#xee;" horiz-adv-x="524" d="M369 901v-901h-166v877h-144v122q135 12 195 13q63 0 92 -29q23 -23 23 -82zM240 1542h32q39 0 60.5 -11t48.5 -48l186 -228l-67 -57l-244 211l-244 -211l-67 57l186 228q27 37 48.5 48t60.5 11z" />
<glyph unicode="&#xef;" horiz-adv-x="524" d="M369 901v-901h-166v877h-144v122q135 12 195 13q63 0 92 -29q23 -23 23 -82zM57 1243h-12q-106 0 -106 115v4q0 115 106 115h12q106 0 107 -115v-4q-1 -115 -107 -115zM467 1243h-12q-106 0 -107 115v4q0 115 107 115h12q106 0 106 -115v-4q0 -115 -106 -115z" />
<glyph unicode="&#xf0;" horiz-adv-x="1110" d="M469 1169l-70 86l152 121q-53 68 -139 156l73 70q92 -78 160 -150l180 145l70 -86l-176 -141q297 -352 297 -811q0 -268 -119 -429t-346 -161q-217 0 -337 140.5t-120 363.5q0 229 120 358.5t314 129.5q125 0 273 -52q-57 197 -185 379zM846 580q0 106 -19 211 q-135 33 -247 32q-315 0 -316 -350q0 -160 74 -260t211 -100q297 0 297 467z" />
<glyph unicode="&#xf1;" horiz-adv-x="1202" d="M1016 125h133v-123q-135 -12 -184 -12q-63 0 -93 28q-23 23 -22 82v566q0 123 -45 168t-166 45q-111 0 -277 -39v-840h-165v877h-140v120q123 14 193 15q94 0 110 -64q172 84 332 84q170 0 252 -88q72 -78 72 -239v-580zM846 1468l96 -10q-4 -98 -47 -155.5t-109 -57.5 q-55 0 -143 41t-129 41q-31 0 -47 -16.5t-25 -59.5l-96 11q2 98 46 155.5t110 57.5q55 0 143 -41t129 -41q31 0 47.5 16t24.5 59z" />
<glyph unicode="&#xf2;" horiz-adv-x="1093" d="M1006 502q0 -250 -119 -390.5t-340 -140.5t-340 140.5t-119 390.5t119 390t340 140t340 -140t119 -390zM834 501.5q0 190.5 -68 287t-219.5 96.5t-219 -96.5t-67.5 -287t67.5 -286.5t219 -96t219.5 96t68 286.5zM764 1266l-64 -80l-372 270l65 90q18 25 35.5 25t42.5 -25 z" />
<glyph unicode="&#xf3;" horiz-adv-x="1093" d="M1006 502q0 -250 -119 -390.5t-340 -140.5t-340 140.5t-119 390.5t119 390t340 140t340 -140t119 -390zM834 501.5q0 190.5 -68 287t-219.5 96.5t-219 -96.5t-67.5 -287t67.5 -286.5t219 -96t219.5 96t68 286.5zM403 1186l-63 80l293 280q25 25 42 25t36 -25l65 -90z" />
<glyph unicode="&#xf4;" horiz-adv-x="1093" d="M1006 502q0 -250 -119 -390.5t-340 -140.5t-340 140.5t-119 390.5t119 390t340 140t340 -140t119 -390zM834 501.5q0 190.5 -68 287t-219.5 96.5t-219 -96.5t-67.5 -287t67.5 -286.5t219 -96t219.5 96t68 286.5zM530 1542h33q39 0 60.5 -11t48.5 -48l186 -228l-67 -57 l-244 211l-244 -211l-67 57l186 228q27 37 48 48t60 11z" />
<glyph unicode="&#xf5;" horiz-adv-x="1093" d="M1006 502q0 -250 -119 -390.5t-340 -140.5t-340 140.5t-119 390.5t119 390t340 140t340 -140t119 -390zM834 501.5q0 190.5 -68 287t-219.5 96.5t-219 -96.5t-67.5 -287t67.5 -286.5t219 -96t219.5 96t68 286.5zM748 1468l96 -10q-4 -98 -47 -155.5t-109 -57.5 q-55 0 -143 41t-129 41q-31 0 -47.5 -16.5t-24.5 -59.5l-96 11q2 98 46 155.5t109 57.5q55 0 143.5 -41t129.5 -41q31 0 47.5 16t24.5 59z" />
<glyph unicode="&#xf6;" horiz-adv-x="1093" d="M1006 502q0 -250 -119 -390.5t-340 -140.5t-340 140.5t-119 390.5t119 390t340 140t340 -140t119 -390zM834 501.5q0 190.5 -68 287t-219.5 96.5t-219 -96.5t-67.5 -287t67.5 -286.5t219 -96t219.5 96t68 286.5zM348 1243h-12q-106 0 -107 115v4q0 115 107 115h12 q106 0 107 -115v-4q-1 -115 -107 -115zM758 1243h-13q-106 0 -106 115v4q0 115 106 115h13q106 0 106 -115v-4q0 -115 -106 -115z" />
<glyph unicode="&#xf7;" d="M852 596h-664v133h664v-133zM524 207h-10q-102 0 -102 110v5q0 111 102 110h10q102 0 103 -110v-5q-1 -110 -103 -110zM524 893h-10q-102 0 -102 111v4q0 111 102 110h10q102 0 103 -110v-4q-1 -111 -103 -111z" />
<glyph unicode="&#xf8;" horiz-adv-x="1093" d="M1006 502q0 -250 -119 -390.5t-340 -140.5q-63 0 -119 13l-53 -156h-123l67 192q-231 121 -231 482q0 250 119 390t340 140q55 0 123 -14l55 158h121l-70 -197q230 -121 230 -477zM260 502q0 -248 111 -332l250 709q-35 6 -74 6q-152 0 -219.5 -96.5t-67.5 -286.5z M834 502q0 240 -109 327l-248 -704q35 -6 70 -6q152 0 219.5 96.5t67.5 286.5z" />
<glyph unicode="&#xf9;" horiz-adv-x="1193" d="M352 901v-563q0 -123 45 -168t166 -45t268 39v713h-133v127h299v-879h140v-119q-121 -14 -193 -14q-90 0 -108 63q-172 -84 -326 -84q-170 0 -252 88q-72 78 -72 240v578h-133v122q135 12 185 13q63 0 92 -29q22 -23 22 -82zM770 1266l-63 -80l-373 270l65 90 q18 25 36 25t42 -25z" />
<glyph unicode="&#xfa;" horiz-adv-x="1193" d="M352 901v-563q0 -123 45 -168t166 -45t268 39v713h-133v127h299v-879h140v-119q-121 -14 -193 -14q-90 0 -108 63q-172 -84 -326 -84q-170 0 -252 88q-72 78 -72 240v578h-133v122q135 12 185 13q63 0 92 -29q22 -23 22 -82zM479 1186l-63 80l293 280q25 25 42 25t35 -25 l66 -90z" />
<glyph unicode="&#xfb;" horiz-adv-x="1193" d="M352 901v-563q0 -123 45 -168t166 -45t268 39v713h-133v127h299v-879h140v-119q-121 -14 -193 -14q-90 0 -108 63q-172 -84 -326 -84q-170 0 -252 88q-72 78 -72 240v578h-133v122q135 12 185 13q63 0 92 -29q22 -23 22 -82zM578 1542h32q39 0 60.5 -11t48.5 -48 l186 -228l-67 -57l-244 211l-244 -211l-67 57l186 228q27 37 48.5 48t60.5 11z" />
<glyph unicode="&#xfc;" horiz-adv-x="1193" d="M352 901v-563q0 -123 45 -168t166 -45t268 39v713h-133v127h299v-879h140v-119q-121 -14 -193 -14q-90 0 -108 63q-172 -84 -326 -84q-170 0 -252 88q-72 78 -72 240v578h-133v122q135 12 185 13q63 0 92 -29q22 -23 22 -82zM377 1243h-12q-106 0 -107 115v4 q0 115 107 115h12q106 0 106 -115v-4q0 -115 -106 -115zM786 1243h-12q-106 0 -106 115v4q0 115 106 115h12q106 0 107 -115v-4q-1 -115 -107 -115z" />
<glyph unicode="&#xfd;" horiz-adv-x="1155" d="M354 901v-563q0 -123 45 -168t166 -45t269 39v713h-134v127h299v-1074q0 -217 -100 -321q-96 -98 -305 -98q-121 0 -244 24v115h193q168 0 229 61q61 59 62 236v106q-168 -82 -322 -82q-170 0 -252 88q-72 78 -72 240v578h-133v122q135 12 185 13q63 0 92 -29 q22 -23 22 -82zM453 1186l-64 80l293 280q25 25 42 25t36 -25l65 -90z" />
<glyph unicode="&#xfe;" horiz-adv-x="1103" d="M582 881q-86 0 -242 -43v-668q119 -47 244 -47q131 0 192.5 87t61.5 300q0 195 -64.5 283t-191.5 88zM340 1372v-422q147 82 287 82q182 0 282.5 -139t100.5 -385q0 -254 -99.5 -395.5t-285.5 -141.5q-147 0 -285 80v-512h-166v1809h-139v122q135 12 190 13q63 0 92 -29 q23 -23 23 -82z" />
<glyph unicode="&#xff;" horiz-adv-x="1155" d="M354 901v-563q0 -123 45 -168t166 -45t269 39v713h-134v127h299v-1074q0 -217 -100 -321q-96 -98 -305 -98q-121 0 -244 24v115h193q168 0 229 61q61 59 62 236v106q-168 -82 -322 -82q-170 0 -252 88q-72 78 -72 240v578h-133v122q135 12 185 13q63 0 92 -29 q22 -23 22 -82zM379 1243h-12q-106 0 -107 115v4q0 115 107 115h12q106 0 106 -115v-4q0 -115 -106 -115zM788 1243h-12q-106 0 -106 115v4q0 115 106 115h12q106 0 107 -115v-4q-1 -115 -107 -115z" />
<glyph unicode="&#x152;" horiz-adv-x="1931" d="M825 139h133l-2 1123h-131q-283 0 -403 -134q-133 -145 -133 -427.5t133 -428.5q120 -133 403 -133zM1769 0h-964q-352 0 -522 180q-176 186 -176.5 520t176.5 521q170 180 522 180h954q29 0 38 -6t9 -21v-301h-120q-33 88 -33 193h-518v-480h393q20 0 26.5 -3t6.5 -15 v-127h-426v-506h528q0 106 33 195h121v-303q0 -14 -9.5 -20.5t-38.5 -6.5z" />
<glyph unicode="&#x153;" horiz-adv-x="1783" d="M1667 451h-659q6 -168 79 -244q84 -90 310 -90h254v-103q-154 -43 -316 -43q-252 0 -370 129q-20 20 -45 56q-117 -184 -373 -185q-221 0 -340 140.5t-119 390.5t119 390t340 140q256 0 375 -188q117 188 354 188q199 0 306.5 -132t107.5 -372v-59q0 -18 -23 -18z M834 501.5q0 190.5 -68 287t-219.5 96.5t-219 -96.5t-67.5 -287t67.5 -286.5t219 -96t219.5 96t68 286.5zM1010 582h522q-23 311 -258 311q-127 0 -193.5 -86t-70.5 -225z" />
<glyph unicode="&#x178;" horiz-adv-x="1204" d="M131 1266h-123v135h152q57 0 81.5 -13.5t45.5 -52.5l329 -630l299 561h-108v135h389v-135h-113l-393 -701v-430h141v-135h-460v135h141v428zM408 1591h-13q-106 0 -106 115v4q0 115 106 115h13q106 0 106 -115v-4q0 -115 -106 -115zM817 1591h-12q-106 0 -107 115v4 q0 115 107 115h12q106 0 107 -115v-4q-1 -115 -107 -115z" />
<glyph unicode="&#x2c6;" horiz-adv-x="868" d="M418 1542h33q39 0 60 -11t48 -48l186 -228l-67 -57l-244 211l-244 -211l-67 57l186 228q27 37 48.5 48t60.5 11z" />
<glyph unicode="&#x2dc;" horiz-adv-x="868" d="M635 1468l96 -10q-4 -98 -47 -155.5t-109 -57.5q-55 0 -143 41t-129 41q-31 0 -47 -16.5t-25 -59.5l-96 11q2 98 46 155.5t110 57.5q55 0 143 -41t129 -41q31 0 47.5 16t24.5 59z" />
<glyph unicode="&#x2000;" horiz-adv-x="999" />
<glyph unicode="&#x2001;" horiz-adv-x="2000" />
<glyph unicode="&#x2002;" horiz-adv-x="999" />
<glyph unicode="&#x2003;" horiz-adv-x="2000" />
<glyph unicode="&#x2004;" horiz-adv-x="665" />
<glyph unicode="&#x2005;" horiz-adv-x="499" />
<glyph unicode="&#x2006;" horiz-adv-x="331" />
<glyph unicode="&#x2007;" horiz-adv-x="331" />
<glyph unicode="&#x2008;" horiz-adv-x="249" />
<glyph unicode="&#x2009;" horiz-adv-x="399" />
<glyph unicode="&#x200a;" horiz-adv-x="110" />
<glyph unicode="&#x2010;" horiz-adv-x="649" d="M514 463h-379v145h379v-145z" />
<glyph unicode="&#x2011;" horiz-adv-x="649" d="M514 463h-379v145h379v-145z" />
<glyph unicode="&#x2012;" horiz-adv-x="649" d="M514 463h-379v145h379v-145z" />
<glyph unicode="&#x2013;" horiz-adv-x="1024" d="M1024 463h-1024v145h1024v-145z" />
<glyph unicode="&#x2014;" horiz-adv-x="2048" d="M2048 463h-2048v145h2048v-145z" />
<glyph unicode="&#x2018;" horiz-adv-x="448" d="M209 1427h41v-256q96 -20 96 -116v-6q0 -111 -104 -111h-2q-61 0 -89 33t-28 108q0 158 43 318q8 30 43 30z" />
<glyph unicode="&#x2019;" horiz-adv-x="448" d="M240 938h-41v256q-96 20 -97 117v6q0 111 105 110h2q61 0 89 -32.5t28 -108.5q0 -158 -43 -317q-8 -31 -43 -31z" />
<glyph unicode="&#x201a;" horiz-adv-x="448" d="M240 -313h-41v256q-96 20 -97 116v7q0 111 105 110h2q61 0 89 -32.5t28 -108.5q0 -158 -43 -318q-8 -30 -43 -30z" />
<glyph unicode="&#x201c;" horiz-adv-x="788" d="M549 1427h41v-256q96 -20 96 -116v-6q0 -111 -104 -111h-2q-61 0 -89 33t-28 108q0 158 43 318q8 30 43 30zM209 1427h41v-256q96 -20 96 -116v-6q0 -111 -104 -111h-2q-61 0 -89 33t-28 108q0 158 43 318q8 30 43 30z" />
<glyph unicode="&#x201d;" horiz-adv-x="788" d="M240 938h-41v256q-96 20 -97 117v6q0 111 105 110h2q61 0 89 -32.5t28 -108.5q0 -158 -43 -317q-8 -31 -43 -31zM580 938h-41v256q-96 20 -97 117v6q0 111 105 110h2q61 0 89 -32.5t28 -108.5q0 -158 -43 -317q-8 -31 -43 -31z" />
<glyph unicode="&#x201e;" horiz-adv-x="788" d="M240 -313h-41v256q-96 20 -97 116v7q0 111 105 110h2q61 0 89 -32.5t28 -108.5q0 -158 -43 -318q-8 -30 -43 -30zM580 -313h-41v256q-96 20 -97 116v7q0 111 105 110h2q61 0 89 -32.5t28 -108.5q0 -158 -43 -318q-8 -30 -43 -30z" />
<glyph unicode="&#x2022;" horiz-adv-x="733" d="M111 709v24q0 133 57 192.5t172 59.5h53q115 0 172.5 -59.5t57.5 -192.5v-24q0 -133 -57.5 -192.5t-172.5 -59.5h-53q-115 0 -172 59.5t-57 192.5z" />
<glyph unicode="&#x2026;" horiz-adv-x="1394" d="M240 -29h-15q-102 0 -102 111v8q0 111 102 111h15q102 0 102 -111v-8q0 -111 -102 -111zM705 -29h-15q-102 0 -102 111v8q0 111 102 111h15q102 0 102 -111v-8q0 -111 -102 -111zM1169 -29h-14q-102 0 -102 111v8q0 111 102 111h14q102 0 103 -111v-8q-1 -111 -103 -111z " />
<glyph unicode="&#x202f;" horiz-adv-x="399" />
<glyph unicode="&#x2039;" horiz-adv-x="686" d="M311 539l252 -375l-76 -55l-266 305q-70 80 -69.5 125t69.5 125l266 305l76 -56z" />
<glyph unicode="&#x203a;" horiz-adv-x="686" d="M123 164l252 375l-252 374l76 56l266 -305q70 -80 70 -125t-70 -125l-266 -305z" />
<glyph unicode="&#x205f;" horiz-adv-x="499" />
<glyph unicode="&#x20ac;" horiz-adv-x="1222" d="M817 477h-389q31 -188 142.5 -273t351.5 -85h190v-121q-150 -27 -260 -27q-276 0 -418.5 127t-181.5 379h-158v98l146 15q-2 35 -2 108v43h-144v99l152 14q61 573 579 573q145 0 267 -34q33 -10 32 -43v-275l-118 -2q-8 18 -19.5 89t-11.5 108q-78 8 -141 8 q-188 0 -288 -102.5t-124 -313.5h395v-121h-403v-41q0 -70 2 -102h401v-121z" />
<glyph unicode="&#x2122;" horiz-adv-x="1562" d="M1417 1401h96v-103h-69v-475h69v-102h-262v102h68v305l-135 -190h-76q-43 0 -61 29l-109 170v-314h63v-102h-249v102h69v475h-69v103h102q33 0 48.5 -8.5t35.5 -40.5l190 -310l203 310q20 33 35.5 41t50.5 8zM90 1401h526q35 0 46.5 -7.5t11.5 -31.5v-168h-109 q-6 33 -10 113h-133v-484h67v-102h-272v102h68v484h-133q-2 -14 -4.5 -41t-5.5 -46.5t-3 -25.5h-106v168q0 25 11 32t46 7z" />
<glyph unicode="&#xe000;" horiz-adv-x="1010" d="M0 1010h1010v-1010h-1010v1010z" />
<glyph unicode="&#xfb01;" horiz-adv-x="1179" d="M1024 903v-903h-166v877h-483v-877h-166v877h-174v98l174 31v135q0 178 84 262q86 86 254 86q84 0 178 -27v-114h-111q-145 0 -194 -41q-45 -39 -45 -177v-126h540q61 0 85 -23t24 -78zM938 1237h-12q-100 0 -101 109v6q0 109 101 108h12q100 0 100 -108v-6 q0 -109 -100 -109z" />
<glyph unicode="&#xfb02;" horiz-adv-x="1150" d="M995 1380v-1380h-166v1348h-215q-145 0 -194 -41q-45 -39 -45 -177v-126h272v-127h-272v-877h-166v877h-174v98l174 31v129q0 178 84 262q96 92 336 92q168 0 295 -14q41 -4 56 -26t15 -69z" />
<glyph unicode="&#xfb03;" horiz-adv-x="1818" d="M1577 1210h-13q-100 0 -100 109v6q0 109 100 109h13q100 0 100 -109v-6q0 -109 -100 -109zM1663 901v-901h-166v877h-144v122q135 12 195 13q63 0 92 -29q23 -23 23 -82zM1022 1004h272v-127h-272v-877h-166v877h-174v98l174 31v135q0 178 84 262q86 86 254 86 q117 0 196 -27v-114h-129q-145 0 -194 -41q-45 -39 -45 -177v-126zM375 1004h272v-127h-272v-877h-166v877h-174v98l174 31v135q0 178 84 262q86 86 254 86q117 0 196 -27v-114h-129q-145 0 -194 -41q-45 -39 -45 -177v-126z" />
<glyph unicode="&#xfb04;" horiz-adv-x="1789" d="M1634 1372v-1372h-166v1348h-139v122q135 12 190 13q63 0 92 -29q23 -23 23 -82zM1022 1004h272v-127h-272v-877h-166v877h-174v98l174 31v135q0 178 84 262q86 86 254 86q117 0 196 -27v-114h-129q-145 0 -194 -41q-45 -39 -45 -177v-126zM375 1004h272v-127h-272v-877 h-166v877h-174v98l174 31v135q0 178 84 262q86 86 254 86q117 0 196 -27v-114h-129q-145 0 -194 -41q-45 -39 -45 -177v-126z" />
<glyph horiz-adv-x="389" />
</font>
</defs>
</svg>
